<?xml version="1.0" encoding="UTF-8" standalone="no"?>
<svg
   width="240"
   height="240"
   viewBox="0 0 240 240"
   version="1.1"
   id="svg7"
   sodipodi:docname="app-icon-border.svg"
   inkscape:version="1.4 (86a8ad7, 2024-10-11)"
   xml:space="preserve"
   xmlns:inkscape="http://www.inkscape.org/namespaces/inkscape"
   xmlns:sodipodi="http://sodipodi.sourceforge.net/DTD/sodipodi-0.dtd"
   xmlns="http://www.w3.org/2000/svg"
   xmlns:svg="http://www.w3.org/2000/svg"><defs
     id="defs7" /><sodipodi:namedview
     id="namedview7"
     pagecolor="#b8b8b8"
     bordercolor="#000000"
     borderopacity="0.25"
     inkscape:showpageshadow="2"
     inkscape:pageopacity="0.0"
     inkscape:pagecheckerboard="true"
     inkscape:deskcolor="#d1d1d1"
     inkscape:zoom="1.3331457"
     inkscape:cx="52.882442"
     inkscape:cy="142.89511"
     inkscape:window-width="1920"
     inkscape:window-height="1057"
     inkscape:window-x="2552"
     inkscape:window-y="-8"
     inkscape:window-maximized="1"
     inkscape:current-layer="svg7" /><path
     style="fill:none;stroke:none;stroke-width:1.91629"
     d="m 47.527417,107.32323 c 6.596511,-38.412939 41.46805,-59.055573 68.602873,-58.676806 33.11051,0.462182 68.55395,24.392371 68.9493,62.364716"
     id="path4"
     sodipodi:nodetypes="csc" /><path
     d="m 122.59334,64.856607 c 0,2.597286 1.07152,3.16831 5.97944,3.18729 7.58835,0.03165 8.77946,0.865235 12.9842,9.093668 l 3.44737,6.743137 -9.09517,13.029141 c -5.00202,7.165487 -10.90013,15.409727 -13.10695,18.320207 l -4.01184,5.29422 -1.38404,-3.71244 c -1.47173,-3.93865 -7.56919,-26.021901 -7.56919,-27.409127 0,-0.450808 1.39201,-0.819363 3.09498,-0.819363 4.86327,0 5.76737,-3.369197 1.76512,-6.583377 -4.31954,-3.470431 -19.44198,-4.069927 -22.11281,-0.876307 -2.27538,2.719082 -0.3524,5.433422 4.33391,6.113588 4.68151,0.680168 5.21408,1.687762 10.38192,19.688446 4.93346,17.18133 5.07856,19.62041 1.164,19.62041 -2.06491,0 -4.60656,-3.24264 -8.37123,-10.67702 -4.38492,-8.66499 -6.88355,-11.57074 -13.25845,-15.42236 -6.996755,-4.226526 -9.248219,-4.745341 -20.59643,-4.745341 -15.092225,0 -22.276813,6.846751 -24.963985,10.346431 -7.324115,5.81289 -13.85304,26.13102 -8.082468,35.95549 4.06655,7.27603 -0.33742,3.93152 9.139798,13.32652 18.351345,17.3126 50.452255,9.6014 58.917565,-14.15222 l 2.95782,-8.30436 h 7.24712 c 5.52183,0 7.80518,-0.78297 9.59102,-3.28693 1.29,-1.8064 5.76741,-8.03545 9.95142,-13.84061 4.18242,-5.80355 8.84641,-12.27937 10.36437,-14.3863 1.5164,-2.108509 3.85877,-5.197733 5.20295,-6.866516 l 2.4428,-3.032283 2.17175,4.025638 c 2.03299,3.7678 1.80657,4.391045 -3.5255,9.680511 -22.46681,22.28732 -6.26486,59.27255 25.96518,59.27255 20.45451,0 35.82412,-14.90197 35.81772,-34.72961 -0.003,-17.01412 -12.85056,-27.01508 -13.504,-27.15921 -8.64734,-5.834149 -18.016,-7.752732 -28.75399,-6.806392 l -7.23594,0.953794 -7.74618,-14.7343 C 141.72759,62.055269 141.35128,61.693041 131.11605,61.693041 c -7.45918,0 -8.52271,0.393866 -8.52271,3.163566 m 46.63975,37.450273 c -1.97402,0.40335 -3.58769,1.77477 -3.58769,3.04812 0,3.98608 7.54368,17.14334 11.02613,19.22656 3.91613,2.34576 4.31635,7.08162 0.88654,10.48403 -4.19994,4.16643 -10.2464,0.29106 -10.29423,-6.59444 -0.0255,-3.84372 -6.9218,-18.4784 -9.43158,-20.01746 -0.82277,-0.50457 -3.99746,1.42359 -7.05575,4.28347 -4.20637,3.93547 -5.83276,7.01204 -6.68424,12.64793 -1.34897,8.92759 -0.45286,13.05604 4.3658,20.11868 9.03615,13.23953 29.98337,16.67359 42.27713,6.92979 8.77625,-6.95668 11.8776,-13.76467 11.18239,-24.54607 -0.90092,-13.9719 -9.84777,-23.67296 -23.57181,-25.55528 -3.03917,-0.41603 -7.13867,-0.42711 -9.11269,-0.0254 m -114.917155,3.17304 c -2.913189,1.42362 -7.218397,5.09017 -9.567126,8.15094 -3.646673,4.74533 -4.273318,7.10693 -4.268535,16.08989 0.0031,9.09683 0.612296,11.31922 4.47901,16.3493 13.507191,17.56727 42.899006,12.41857 48.969356,-8.57957 l 1.40637,-4.86241 -11.48535,0.72287 c -6.3159,0.39705 -13.39398,1.23379 -15.726766,1.86176 -3.345305,0.89845 -4.611354,0.46029 -5.97467,-2.06738 -3.380385,-6.26703 2.734605,-11.73052 9.254602,-8.26798 1.730055,0.91742 7.497437,1.66876 12.816764,1.66876 8.96918,0 9.67236,-0.25939 9.66599,-3.55901 -0.024,-14.44166 -24.074084,-25.082317 -39.569645,-17.50716"
     stroke="none"
     fill="#b5b5b5"
     fill-rule="evenodd"
     id="path5"
     sodipodi:nodetypes="ccccccccssccccsccscccccsccccccsscccccsccscscsccccsccccccccccccscc"
     style="display:inline;fill:#ffffff;fill-opacity:1;stroke-width:1.58816" /><g
     style="fill:#000000"
     id="g1"
     transform="matrix(0.79914798,0,0,0.79276344,90.700909,170.40199)"><path
       d="m 48.68,38.71 c 8.06,-8.06 10,-34.59 10,-34.59 C 54.180497,6.1755781 49.345702,7.3986763 44.41,7.73 36.16,8.43 28.52,9.6 24,14.08 17.13,21 15.4,30.82 19.34,37.77 23.66,31 41.47,21.29 41.47,21.29 28.69,30.43 14,47.78 13.41,50 c -0.59,2.22 3.64,2.3 4.3,1.15 0.66,-1.15 3.2,-5.78 6,-8.57 6.97,4.95 17.62,3.49 24.97,-3.87 z"
       id="path1-3"
       style="fill:#ffffff"
       sodipodi:nodetypes="ccccccsscc" /></g><path
     style="fill:none;stroke:#ffffff;stroke-width:7.73178;stroke-dasharray:none;stroke-opacity:1"
     d="m 83.317952,233.24469 c -8.869359,-2.98802 -25.178281,-10.82324 -25.775003,-12.38297 -0.187611,-0.4904 0.560172,-4.97963 1.661757,-9.97608 1.101572,-4.99643 2.002863,-9.61586 2.002863,-10.26539 0,-0.68019 -2.18738,-3.0324 -5.158421,-5.54719 -2.837135,-2.40144 -7.356867,-6.91766 -10.043861,-10.03605 l -4.885429,-5.66979 -10.128526,2.46208 -10.128516,2.46209 -1.398766,-1.69672 C 15.857857,178.22033 8.8306488,161.85296 5.6983579,150.53244 l -1.2045076,-4.35329 8.7907037,-5.51433 8.790704,-5.51435 0.03926,-14.9059 0.03927,-14.90592 -8.875073,-5.635273 C 7.1092131,95.785994 4.4837538,93.765316 4.6663911,93.074933 6.9936889,84.277615 10.462296,74.886469 14.120531,67.478195 c 2.461833,-4.985472 4.857484,-9.553442 5.323666,-10.15106 0.786054,-1.007668 1.57782,-0.920943 10.903653,1.194405 L 40.403902,60.802516 50.866151,50.273752 61.328398,39.744977 59.000145,29.66468 56.67188,19.584382 58.132807,18.452895 C 61.232885,16.051914 75.483587,9.4621823 82.854342,7.0212971 95.59436,2.8023612 93.76472,2.2601035 99.911182,12.076471 c 2.907678,4.643803 5.590398,8.631529 5.961578,8.86162 0.37116,0.230089 7.08193,0.406269 14.91282,0.391506 l 14.23797,-0.02683 3.12947,-4.753191 c 1.72121,-2.614254 4.21063,-6.5931669 5.53201,-8.8420269 2.35859,-4.0139866 2.44395,-4.0813592 4.66452,-3.6804228 7.82323,1.4125418 29.01693,10.2918357 33.91446,14.2087757 l 1.79615,1.436507 -2.32198,10.298662 -2.32199,10.298663 2.38107,1.903228 c 3.12379,2.496898 13.54906,12.96684 16.08644,16.155355 l 1.99296,2.504444 10.0912,-2.401348 c 5.55014,-1.320747 10.47191,-2.254808 10.93725,-2.075695 2.41157,0.928192 15.19988,31.564518 15.22897,36.483258 0.007,1.088341 -1.55425,2.381938 -6.931,5.744872 -3.8166,2.387132 -7.83418,5.010032 -8.92791,5.828662 l -1.98861,1.48841 0.57035,4.42106 c 0.31371,2.43158 0.48238,8.93011 0.37482,14.44118 l -0.19551,10.02017 8.39171,5.38049 8.39171,5.3805 -0.11694,2.51309 c -0.0642,1.38221 -1.15673,5.66921 -2.42761,9.52669 -2.5246,7.66294 -10.94304,25.35643 -12.31582,25.88481 -0.47137,0.18144 -5.23682,-0.69248 -10.58986,-1.94203 l -9.73277,-2.27191 -10.4921,10.52373 -10.4921,10.52375 2.37793,9.97828 c 1.72549,7.24048 2.18887,10.20675 1.6889,10.81098 -0.37894,0.458 -4.78792,2.8497 -9.79771,5.31491 -9.49157,4.6706 -21.53953,9.05705 -25.49277,9.28147 -2.28903,0.12994 -2.32447,0.0903 -7.80115,-8.72281 l -5.50168,-8.85334 -3.23099,0.43632 c -3.78321,0.5109 -17.18754,0.57885 -22.21216,0.11259 l -3.48877,-0.32374 -4.42526,7.12209 c -6.042344,9.72466 -6.803572,10.68447 -8.466158,10.6748 -0.788192,-0.005 -5.281321,-1.30477 -9.984715,-2.88931 z"
     id="path1"
     sodipodi:nodetypes="cssssscccsscccccssssscccccscssscsssscccsscsscsscssccccssscccssssscsscsccc" /></svg>
