<?xml version="1.0" encoding="UTF-8" standalone="no"?>
<svg
   width="240"
   height="240"
   viewBox="0 0 240 240"
   version="1.1"
   id="svg7"
   sodipodi:docname="app-icon-rent.svg"
   inkscape:version="1.4.4 (dcaf3e7, 2026-05-05)"
   xml:space="preserve"
   xmlns:inkscape="http://www.inkscape.org/namespaces/inkscape"
   xmlns:sodipodi="http://sodipodi.sourceforge.net/DTD/sodipodi-0.dtd"
   xmlns="http://www.w3.org/2000/svg"
   xmlns:svg="http://www.w3.org/2000/svg"><defs
     id="defs7" /><sodipodi:namedview
     id="namedview7"
     pagecolor="#ffffff"
     bordercolor="#000000"
     borderopacity="0.25"
     inkscape:showpageshadow="2"
     inkscape:pageopacity="0.0"
     inkscape:pagecheckerboard="0"
     inkscape:deskcolor="#d1d1d1"
     inkscape:zoom="2.6662914"
     inkscape:cx="143.64521"
     inkscape:cy="120.57947"
     inkscape:window-width="1536"
     inkscape:window-height="836"
     inkscape:window-x="0"
     inkscape:window-y="0"
     inkscape:window-maximized="1"
     inkscape:current-layer="svg7" /><path
     id="path7"
     style="display:inline;fill:#aa2b37;fill-opacity:1;stroke:none;stroke-width:1.91629"
     d="m 96.329645,10 0.505082,12.054768 -27.342161,9.291107 -7.594159,-8.790058 -24.556246,22.604415 7.087089,7.282966 -10.885164,17.83064 -12.15185,-3.767731 -10.380078,31.644997 10.885163,4.771796 v 21.59838 L 10,127.53349 l 8.101235,32.14604 6.582003,-1.7576 12.658923,18.33365 -6.836534,7.78599 23.039004,23.35598 6.834544,-8.79004 18.988387,13.81238 -3.292991,10.04662 28.356319,6.77995 2.53136,-11.30124 23.79664,0.75357 5.06277,11.30121 30.38063,-10.04465 -4.05062,-10.80017 20.00055,-8.79007 5.56983,7.786 22.02486,-24.86308 -6.07691,-5.02233 11.39224,-18.33367 8.35576,3.76577 6.582,-35.91181 -11.1397,-1.50708 0.50708,-21.59839 9.62047,-5.022324 -10.63461,-29.384358 -11.89732,3.767732 -12.15187,-19.840756 6.83455,-8.287035 -23.54408,-21.598371 -9.1134,9.291106 -30.12806,-9.543605 2.27885,-13.812384 z"
     sodipodi:nodetypes="ccccccccccccccccccccccccccccccccccccccccccccc" /><path
     style="fill:none;stroke:none;stroke-width:1.91629"
     d="m 47.527417,107.32323 c 6.596511,-38.412939 41.46805,-59.055573 68.602873,-58.676806 33.11051,0.462182 68.55395,24.392371 68.9493,62.364716"
     id="path4"
     sodipodi:nodetypes="csc" /><path
     d="m 121.30842,31.272761 c 0,1.198008 0.49425,1.461395 2.75804,1.470149 3.50016,0.0146 4.04956,0.399093 5.98901,4.194488 l 1.59012,3.110297 -4.19518,6.009743 c -2.30721,3.3051 -5.02773,7.10779 -6.04563,8.45026 l -1.85048,2.44198 -0.63839,-1.71238 c -0.67884,-1.81672 -3.49132,-12.0027 -3.49132,-12.64256 0,-0.20794 0.64207,-0.37793 1.42757,-0.37793 2.2432,0 2.66022,-1.55406 0.81417,-3.036611 -1.9924,-1.600749 -8.96769,-1.877269 -10.19962,-0.4042 -1.04952,1.254187 -0.16254,2.506191 1.99904,2.819911 2.15936,0.31373 2.40501,0.77849 4.78869,9.08137 2.27558,7.92495 2.34251,9.04999 0.5369,9.04999 -0.95244,0 -2.12479,-1.49568 -3.86126,-4.92482 -2.02256,-3.99675 -3.17506,-5.33704 -6.11551,-7.11362 -3.22727,-1.9495 -4.26577,-2.1888 -9.500175,-2.1888 -6.961344,0 -10.275262,3.15809 -11.51473,4.77233 -3.378275,2.68121 -6.389766,12.05303 -3.728068,16.5846 1.875711,3.3561 -0.155637,1.81343 4.215765,6.14691 8.464626,7.9855 23.271288,4.42868 27.175948,-6.52777 l 1.3643,-3.83041 h 3.34276 c 2.54697,0 3.60017,-0.36115 4.4239,-1.51611 0.59501,-0.83321 2.66023,-3.70638 4.59012,-6.38404 1.92916,-2.6769 4.08044,-5.6639 4.78061,-6.63573 0.69944,-0.97256 1.77987,-2.39747 2.39988,-3.1672 l 1.12675,-1.39866 1.00173,1.85684 c 0.93772,1.73792 0.83328,2.02539 -1.62615,4.46518 -10.3629,10.2801 -2.88969,27.33968 11.97653,27.33968 9.43472,0 16.52401,-6.87359 16.52106,-16.01916 -0.001,-7.84783 -5.92737,-12.46081 -6.22877,-12.52729 -3.98862,-2.69102 -8.30995,-3.57598 -13.26289,-3.13947 l -3.3376,0.43994 -3.57295,-6.796252 c -4.82842,-9.182782 -5.002,-9.349861 -9.72303,-9.349861 -3.44058,0 -3.93114,0.181672 -3.93114,1.459206 m 21.51276,17.274077 c -0.91052,0.18605 -1.65483,0.81862 -1.65483,1.40596 0,1.83859 3.47955,7.90742 5.08584,8.86832 1.80633,1.08199 1.99093,3.26642 0.40892,4.8358 -1.93724,1.92178 -4.72619,0.13425 -4.74825,-3.04171 -0.0118,-1.77293 -3.19271,-8.52323 -4.35035,-9.23313 -0.37951,-0.23274 -1.84385,0.65663 -3.25449,1.97576 -1.94021,1.81525 -2.69039,3.23433 -3.08313,5.83391 -0.62222,4.11788 -0.20889,6.02215 2.01374,9.27981 4.16795,6.10679 13.82994,7.69076 19.50048,3.1964 4.04808,-3.2088 5.47859,-6.34901 5.15792,-11.32197 -0.41556,-6.44459 -4.54232,-10.91924 -10.87259,-11.78747 -1.40183,-0.19189 -3.29273,-0.197 -4.20326,-0.0117 m -53.00596,1.46357 c -1.343719,0.65665 -3.329512,2.34786 -4.412872,3.75965 -1.682041,2.18881 -1.971084,3.2781 -1.968878,7.42153 0.0014,4.19594 0.282424,5.22103 2.06596,7.54117 6.230242,8.10297 19.78732,5.72811 22.5873,-3.95736 l 0.64869,-2.2428 -5.29766,0.33342 c -2.91323,0.18315 -6.178023,0.56909 -7.254029,0.85875 -1.543034,0.41441 -2.127004,0.21231 -2.755839,-0.95359 -1.559215,-2.89069 1.261347,-5.41074 4.26872,-3.81363 0.797994,0.42316 3.458218,0.76972 5.911778,0.76972 4.13707,0 4.46141,-0.11965 4.45847,-1.64161 -0.0111,-6.66127 -11.104255,-11.56931 -18.25164,-8.07524"
     stroke="none"
     fill="#b5b5b5"
     fill-rule="evenodd"
     id="path5"
     sodipodi:nodetypes="ccccccccssccccsccscccccsccccccsscccccsccscscsccccsccccccccccccscc"
     style="display:inline;fill:#ffffff;fill-opacity:1;stroke-width:0.732545" /><g
     style="fill:#000000"
     id="g1"
     transform="matrix(0.79914798,0,0,0.79276344,90.700909,170.40199)"><path
       d="m 48.68,38.71 c 8.06,-8.06 10,-34.59 10,-34.59 C 54.180497,6.1755781 49.345702,7.3986763 44.41,7.73 36.16,8.43 28.52,9.6 24,14.08 17.13,21 15.4,30.82 19.34,37.77 23.66,31 41.47,21.29 41.47,21.29 28.69,30.43 14,47.78 13.41,50 c -0.59,2.22 3.64,2.3 4.3,1.15 0.66,-1.15 3.2,-5.78 6,-8.57 6.97,4.95 17.62,3.49 24.97,-3.87 z"
       id="path1-3"
       style="fill:#ffffff"
       sodipodi:nodetypes="ccccccsscc" /></g></svg>
