<?xml version="1.0" encoding="UTF-8" standalone="no"?>
<svg
   width="240"
   height="240"
   viewBox="0 0 240 240"
   version="1.1"
   id="svg7"
   sodipodi:docname="app-icon.svg"
   inkscape:version="1.4 (e7c3feb100, 2024-10-09)"
   xml:space="preserve"
   xmlns:inkscape="http://www.inkscape.org/namespaces/inkscape"
   xmlns:sodipodi="http://sodipodi.sourceforge.net/DTD/sodipodi-0.dtd"
   xmlns="http://www.w3.org/2000/svg"
   xmlns:svg="http://www.w3.org/2000/svg"><defs
     id="defs7" /><sodipodi:namedview
     id="namedview7"
     pagecolor="#ffffff"
     bordercolor="#000000"
     borderopacity="0.25"
     inkscape:showpageshadow="2"
     inkscape:pageopacity="0.0"
     inkscape:pagecheckerboard="0"
     inkscape:deskcolor="#d1d1d1"
     inkscape:zoom="2.6662914"
     inkscape:cx="143.64521"
     inkscape:cy="154.33422"
     inkscape:window-width="1707"
     inkscape:window-height="932"
     inkscape:window-x="0"
     inkscape:window-y="0"
     inkscape:window-maximized="1"
     inkscape:current-layer="svg7" /><path
     id="path7"
     style="display:inline;fill:#aa2b37;fill-opacity:1;stroke:none;stroke-width:1.91629"
     d="m 96.329645,10 0.505082,12.054768 -27.342161,9.291107 -7.594159,-8.790058 -24.556246,22.604415 7.087089,7.282966 -10.885164,17.83064 -12.15185,-3.767731 -10.380078,31.644997 10.885163,4.771796 v 21.59838 L 10,127.53349 l 8.101235,32.14604 6.582003,-1.7576 12.658923,18.33365 -6.836534,7.78599 23.039004,23.35598 6.834544,-8.79004 18.988387,13.81238 -3.292991,10.04662 28.356319,6.77995 2.53136,-11.30124 23.79664,0.75357 5.06277,11.30121 30.38063,-10.04465 -4.05062,-10.80017 20.00055,-8.79007 5.56983,7.786 22.02486,-24.86308 -6.07691,-5.02233 11.39224,-18.33367 8.35576,3.76577 6.582,-35.91181 -11.1397,-1.50708 0.50708,-21.59839 9.62047,-5.022324 -10.63461,-29.384358 -11.89732,3.767732 -12.15187,-19.840756 6.83455,-8.287035 -23.54408,-21.598371 -9.1134,9.291106 -30.12806,-9.543605 2.27885,-13.812384 z"
     sodipodi:nodetypes="ccccccccccccccccccccccccccccccccccccccccccccc" /><path
     style="fill:none;stroke:none;stroke-width:1.91629"
     d="m 47.527417,107.32323 c 6.596511,-38.412939 41.46805,-59.055573 68.602873,-58.676806 33.11051,0.462182 68.55395,24.392371 68.9493,62.364716"
     id="path4"
     sodipodi:nodetypes="csc" /><path
     d="m 122.59334,64.856607 c 0,2.597286 1.07152,3.16831 5.97944,3.18729 7.58835,0.03165 8.77946,0.865235 12.9842,9.093668 l 3.44737,6.743137 -9.09517,13.029141 c -5.00202,7.165487 -10.90013,15.409727 -13.10695,18.320207 l -4.01184,5.29422 -1.38404,-3.71244 c -1.47173,-3.93865 -7.56919,-26.021901 -7.56919,-27.409127 0,-0.450808 1.39201,-0.819363 3.09498,-0.819363 4.86327,0 5.76737,-3.369197 1.76512,-6.583377 -4.31954,-3.470431 -19.44198,-4.069927 -22.11281,-0.876307 -2.27538,2.719082 -0.3524,5.433422 4.33391,6.113588 4.68151,0.680168 5.21408,1.687762 10.38192,19.688446 4.93346,17.18133 5.07856,19.62041 1.164,19.62041 -2.06491,0 -4.60656,-3.24264 -8.37123,-10.67702 -4.38492,-8.66499 -6.88355,-11.57074 -13.25845,-15.42236 -6.996755,-4.226526 -9.248219,-4.745341 -20.59643,-4.745341 -15.092225,0 -22.276813,6.846751 -24.963985,10.346431 -7.324115,5.81289 -13.85304,26.13102 -8.082468,35.95549 4.06655,7.27603 -0.33742,3.93152 9.139798,13.32652 18.351345,17.3126 50.452255,9.6014 58.917565,-14.15222 l 2.95782,-8.30436 h 7.24712 c 5.52183,0 7.80518,-0.78297 9.59102,-3.28693 1.29,-1.8064 5.76741,-8.03545 9.95142,-13.84061 4.18242,-5.80355 8.84641,-12.27937 10.36437,-14.3863 1.5164,-2.108509 3.85877,-5.197733 5.20295,-6.866516 l 2.4428,-3.032283 2.17175,4.025638 c 2.03299,3.7678 1.80657,4.391045 -3.5255,9.680511 -22.46681,22.28732 -6.26486,59.27255 25.96518,59.27255 20.45451,0 35.82412,-14.90197 35.81772,-34.72961 -0.003,-17.01412 -12.85056,-27.01508 -13.504,-27.15921 -8.64734,-5.834149 -18.016,-7.752732 -28.75399,-6.806392 l -7.23594,0.953794 -7.74618,-14.7343 C 141.72759,62.055269 141.35128,61.693041 131.11605,61.693041 c -7.45918,0 -8.52271,0.393866 -8.52271,3.163566 m 46.63975,37.450273 c -1.97402,0.40335 -3.58769,1.77477 -3.58769,3.04812 0,3.98608 7.54368,17.14334 11.02613,19.22656 3.91613,2.34576 4.31635,7.08162 0.88654,10.48403 -4.19994,4.16643 -10.2464,0.29106 -10.29423,-6.59444 -0.0255,-3.84372 -6.9218,-18.4784 -9.43158,-20.01746 -0.82277,-0.50457 -3.99746,1.42359 -7.05575,4.28347 -4.20637,3.93547 -5.83276,7.01204 -6.68424,12.64793 -1.34897,8.92759 -0.45286,13.05604 4.3658,20.11868 9.03615,13.23953 29.98337,16.67359 42.27713,6.92979 8.77625,-6.95668 11.8776,-13.76467 11.18239,-24.54607 -0.90092,-13.9719 -9.84777,-23.67296 -23.57181,-25.55528 -3.03917,-0.41603 -7.13867,-0.42711 -9.11269,-0.0254 m -114.917155,3.17304 c -2.913189,1.42362 -7.218397,5.09017 -9.567126,8.15094 -3.646673,4.74533 -4.273318,7.10693 -4.268535,16.08989 0.0031,9.09683 0.612296,11.31922 4.47901,16.3493 13.507191,17.56727 42.899006,12.41857 48.969356,-8.57957 l 1.40637,-4.86241 -11.48535,0.72287 c -6.3159,0.39705 -13.39398,1.23379 -15.726766,1.86176 -3.345305,0.89845 -4.611354,0.46029 -5.97467,-2.06738 -3.380385,-6.26703 2.734605,-11.73052 9.254602,-8.26798 1.730055,0.91742 7.497437,1.66876 12.816764,1.66876 8.96918,0 9.67236,-0.25939 9.66599,-3.55901 -0.024,-14.44166 -24.074084,-25.082317 -39.569645,-17.50716"
     stroke="none"
     fill="#b5b5b5"
     fill-rule="evenodd"
     id="path5"
     sodipodi:nodetypes="ccccccccssccccsccscccccsccccccsscccccsccscscsccccsccccccccccccscc"
     style="display:inline;fill:#ffffff;fill-opacity:1;stroke-width:1.58816" /><g
     style="fill:#000000"
     id="g1"
     transform="matrix(0.79914798,0,0,0.79276344,90.700909,170.40199)"><path
       d="m 48.68,38.71 c 8.06,-8.06 10,-34.59 10,-34.59 C 54.180497,6.1755781 49.345702,7.3986763 44.41,7.73 36.16,8.43 28.52,9.6 24,14.08 17.13,21 15.4,30.82 19.34,37.77 23.66,31 41.47,21.29 41.47,21.29 28.69,30.43 14,47.78 13.41,50 c -0.59,2.22 3.64,2.3 4.3,1.15 0.66,-1.15 3.2,-5.78 6,-8.57 6.97,4.95 17.62,3.49 24.97,-3.87 z"
       id="path1-3"
       style="fill:#ffffff"
       sodipodi:nodetypes="ccccccsscc" /></g></svg>
