<?xml version="1.0" encoding="UTF-8" standalone="no"?>
<svg
   width="240"
   height="240"
   viewBox="0 0 240 240"
   version="1.1"
   id="svg7"
   sodipodi:docname="bicycle.svg"
   inkscape:version="1.4 (86a8ad7, 2024-10-11)"
   xml:space="preserve"
   xmlns:inkscape="http://www.inkscape.org/namespaces/inkscape"
   xmlns:sodipodi="http://sodipodi.sourceforge.net/DTD/sodipodi-0.dtd"
   xmlns="http://www.w3.org/2000/svg"
   xmlns:svg="http://www.w3.org/2000/svg"><defs
     id="defs7" /><sodipodi:namedview
     id="namedview7"
     pagecolor="#b8b8b8"
     bordercolor="#000000"
     borderopacity="0.25"
     inkscape:showpageshadow="2"
     inkscape:pageopacity="0.0"
     inkscape:pagecheckerboard="true"
     inkscape:deskcolor="#d1d1d1"
     inkscape:zoom="1.3331457"
     inkscape:cx="52.882442"
     inkscape:cy="142.89511"
     inkscape:window-width="1920"
     inkscape:window-height="1057"
     inkscape:window-x="2552"
     inkscape:window-y="-8"
     inkscape:window-maximized="1"
     inkscape:current-layer="svg7" /><path
     style="fill:none;stroke:none;stroke-width:1.91629"
     d="m 47.527417,107.32323 c 6.596511,-38.412939 41.46805,-59.055573 68.602873,-58.676806 33.11051,0.462182 68.55395,24.392371 68.9493,62.364716"
     id="path4"
     sodipodi:nodetypes="csc" /><path
     d="m 123.41031,48.293889 c 0,3.48697 1.43856,4.253594 8.02766,4.279076 10.18769,0.04249 11.78681,1.161615 17.43185,12.208645 l 4.62825,9.052955 -12.21067,17.492188 c -6.71543,9.619977 -14.63389,20.688227 -17.59665,24.595677 l -5.38607,7.10772 -1.85813,-4.98411 c -1.97586,-5.28781 -10.16197,-34.935537 -10.16197,-36.797949 0,-0.605229 1.86884,-1.10003 4.15515,-1.10003 6.52915,0 7.74294,-4.523294 2.36975,-8.83847 -5.79917,-4.659205 -26.101706,-5.464054 -29.687411,-1.176481 -3.054797,3.650486 -0.473112,7.294606 5.818463,8.207758 6.285131,0.913156 7.000129,2.265894 13.938178,26.432592 6.62339,23.06669 6.81819,26.34126 1.56272,26.34126 -2.77223,0 -6.184506,-4.35339 -11.238739,-14.33437 C 87.315745,105.14723 83.961226,101.24613 75.402645,96.075165 66.009197,90.40087 62.986509,89.704338 47.751042,89.704338 c -20.261969,0 -29.907591,9.192061 -33.515237,13.890532 -9.8329428,7.80406 -18.5983087,35.08203 -10.8510647,48.27181 5.4595204,9.76839 -0.453001,5.27824 12.2705767,17.89143 24.637479,23.24292 67.734348,12.8903 79.099395,-18.99997 l 3.971002,-11.14896 h 9.729576 c 7.41329,0 10.47879,-1.05117 12.87636,-4.41285 1.73188,-2.42517 7.743,-10.78794 13.36021,-18.58162 5.61508,-7.79152 11.87669,-16.48559 13.91462,-19.314233 2.03583,-2.830765 5.18057,-6.978182 6.98519,-9.218596 l 3.27956,-4.070972 2.91567,5.404594 c 2.72938,5.058436 2.4254,5.895169 -4.73313,12.996507 -30.16267,29.9217 -8.41085,79.57598 34.85938,79.57598 27.46107,0 48.09544,-20.00655 48.08685,-46.62601 -0.004,-22.8422 -17.25244,-36.268925 -18.12971,-36.462426 -11.60943,-7.832599 -24.18726,-10.40838 -38.60348,-9.137877 l -9.71457,1.28051 -10.39958,-19.781439 c -14.05379,-26.727777 -14.559,-27.214084 -28.30024,-27.214084 -10.01428,0 -11.44211,0.528782 -11.44211,4.247225 M 186.0262,98.57251 c -2.6502,0.541515 -4.81663,2.38271 -4.81663,4.09223 0,5.35149 10.12772,23.01568 14.80306,25.8125 5.25758,3.14928 5.79489,9.50738 1.19022,14.07526 -5.6386,5.59362 -13.75624,0.39076 -13.82045,-8.85332 -0.0342,-5.16036 -9.29282,-24.80805 -12.66231,-26.87431 -1.1046,-0.67741 -5.36676,1.91123 -9.47265,5.75075 -5.64723,5.28354 -7.83073,9.41396 -8.97388,16.98039 -1.81105,11.98568 -0.60799,17.5283 5.86128,27.01021 12.13142,17.77464 40.25397,22.38502 56.75888,9.30354 11.7825,-9.33965 15.9462,-18.47967 15.01285,-32.95417 -1.20953,-18.75788 -13.22106,-31.78198 -31.64618,-34.309073 -4.08022,-0.558538 -9.58398,-0.573414 -12.23419,-0.0341 M 31.744922,102.83236 c -3.911083,1.91127 -9.691012,6.83378 -12.844283,10.94299 -4.895817,6.37081 -5.737115,9.54137 -5.730694,21.60138 0.0042,12.21289 0.822034,15.19655 6.013266,21.94965 18.133992,23.58482 57.593782,16.67247 65.743492,-11.51845 l 1.888112,-6.528 -15.419582,0.97049 c -8.47937,0.53305 -17.982001,1.65641 -21.113867,2.49949 -4.491218,1.20621 -6.190944,0.61796 -8.021255,-2.77555 -4.538314,-8.41376 3.671326,-15.74873 12.424706,-11.10012 2.322674,1.23168 10.065635,2.24038 17.207063,2.24038 12.041515,0 12.985565,-0.34824 12.977013,-4.77812 -0.03222,-19.38856 -32.320506,-33.674104 -53.123971,-23.50413"
     stroke="none"
     fill="#b5b5b5"
     fill-rule="evenodd"
     id="path5"
     sodipodi:nodetypes="ccccccccssccccsccscccccsccccccsscccccsccscscsccccsccccccccccccscc"
     style="display:inline;fill:#ffffff;fill-opacity:1;stroke-width:2.13217" /></svg>
