<?xml version="1.0" encoding="UTF-8" standalone="no"?>
<!-- Created with Inkscape (http://www.inkscape.org/) -->

<svg
   width="240mm"
   height="240mm"
   viewBox="0 0 240 240"
   version="1.1"
   id="svg1"
   xml:space="preserve"
   inkscape:version="1.4 (86a8ad7, 2024-10-11)"
   sodipodi:docname="g-gear.svg"
   xmlns:inkscape="http://www.inkscape.org/namespaces/inkscape"
   xmlns:sodipodi="http://sodipodi.sourceforge.net/DTD/sodipodi-0.dtd"
   xmlns="http://www.w3.org/2000/svg"
   xmlns:svg="http://www.w3.org/2000/svg"><sodipodi:namedview
     id="namedview1"
     pagecolor="#ffffff"
     bordercolor="#111111"
     borderopacity="1"
     inkscape:showpageshadow="0"
     inkscape:pageopacity="0"
     inkscape:pagecheckerboard="1"
     inkscape:deskcolor="#d1d1d1"
     inkscape:document-units="mm"
     inkscape:zoom="0.55244701"
     inkscape:cx="769.30455"
     inkscape:cy="382.84215"
     inkscape:window-width="1920"
     inkscape:window-height="1057"
     inkscape:window-x="2552"
     inkscape:window-y="-8"
     inkscape:window-maximized="1"
     inkscape:current-layer="layer1" /><defs
     id="defs1" /><g
     inkscape:label="Layer 1"
     inkscape:groupmode="layer"
     id="layer1"><path
       id="path2"
       style="fill:#ffffff;stroke-width:1.46694"
       d="m 147.71088,0.00155029 c -1.11037,0.03922065 -1.61813,0.85595844 -3.45147,3.96668291 -1.36952,2.3237322 -3.94961,6.4350988 -5.7335,9.1363928 l -3.24373,4.911329 -8.36538,0.01602 c -0.0296,-0.0015 -0.0561,-0.0052 -0.0858,-0.0067 -5.8124,-0.299376 -10.64411,-0.301709 -15.06988,-0.07028 -3.66599,-0.0725 -6.46501,-0.176034 -6.69107,-0.315743 -0.38469,-0.23775 -3.16487,-4.358138 -6.178432,-9.1565466 C 92.52138,-1.6605087 94.417527,-1.1001771 81.213647,3.2592326 73.574525,5.7813744 58.804909,12.590507 55.591956,15.071431 l -1.51412,1.168921 2.412773,10.415902 2.413289,10.415902 L 48.060632,47.951595 37.217367,58.831034 26.795264,56.474072 C 17.129865,54.288298 16.309339,54.19882 15.494661,55.240039 15.011504,55.857551 12.528647,60.577354 9.9771688,65.728805 6.1857448,73.383737 2.5908373,83.087617 0.17880046,92.177836 -0.01048407,92.891208 2.7107249,94.979237 9.1048706,99.02703 l 9.1978884,5.8229 -0.04031,15.40216 -0.04082,15.40216 L 9.110555,141.3521 0,147.04994 l 1.2485026,4.49843 c 3.2463293,11.69744 10.5293384,28.60977 14.2668294,33.12976 l 1.449524,1.75338 10.49755,-2.54454 10.351823,-2.50889 c 5.811759,8.51012 12.836728,16.05163 20.894332,22.34178 -0.09895,1.06548 -0.929499,5.32506 -2.005562,10.19111 -1.141689,5.1628 -1.916823,9.8017 -1.722376,10.30842 0.618451,1.61167 17.521326,9.70758 26.713615,12.79508 4.874653,1.63727 9.531308,2.98135 10.348206,2.98535 1.7231,0.01 2.51178,-0.98192 8.774146,-11.03033 l 3.94756,-6.33398 c 12.07652,1.0309 26.66955,0.32018 35.03714,-2.16473 5.40092,-1.60391 14.21445,-5.87363 19.58588,-9.48831 l 9.76633,-6.57221 v 8.52661 8.52661 h 20.19877 20.19876 V 168.5618 115.66012 h -78.87115 v 17.31368 17.31315 l 38.53986,0.67731 c 0,0 -4.60063,14.86985 -24.6327,24.18939 -36.74382,16.68855 -75.465678,-7.78282 -75.465678,-54.684 0,-34.869826 20.594894,-59.396064 50.016068,-59.56329 18.91312,-0.107604 38.3183,10.210388 46.87857,25.506813 1.69777,3.033758 35.89261,-24.459486 35.84041,-25.494928 -0.11973,-2.375161 -10.71608,-16.744409 -20.33209,-24.333915 l 2.17351,-9.611299 2.40657,-10.641728 -1.86138,-1.484147 C 179.16715,10.799803 157.20184,1.6249359 149.09374,0.16536458 148.51839,0.06179285 148.08101,-0.01152326 147.71088,0.00155029 Z"
       sodipodi:nodetypes="sscccccssscccccccsssccccccccccccssscccssccccccccccccscssccccss" /></g></svg>
