<?xml version="1.0" encoding="UTF-8" standalone="no"?>
<svg
   width="240"
   height="240"
   viewBox="0 0 240 240"
   version="1.1"
   id="svg7"
   sodipodi:docname="icon.svg"
   inkscape:version="1.4 (e7c3feb100, 2024-10-09)"
   xml:space="preserve"
   xmlns:inkscape="http://www.inkscape.org/namespaces/inkscape"
   xmlns:sodipodi="http://sodipodi.sourceforge.net/DTD/sodipodi-0.dtd"
   xmlns:xlink="http://www.w3.org/1999/xlink"
   xmlns="http://www.w3.org/2000/svg"
   xmlns:svg="http://www.w3.org/2000/svg"><defs
     id="defs7" /><sodipodi:namedview
     id="namedview7"
     pagecolor="#ffffff"
     bordercolor="#000000"
     borderopacity="0.25"
     inkscape:showpageshadow="2"
     inkscape:pageopacity="0.0"
     inkscape:pagecheckerboard="0"
     inkscape:deskcolor="#d1d1d1"
     inkscape:zoom="2.6662914"
     inkscape:cx="69.00971"
     inkscape:cy="121.32957"
     inkscape:window-width="1707"
     inkscape:window-height="932"
     inkscape:window-x="0"
     inkscape:window-y="0"
     inkscape:window-maximized="1"
     inkscape:current-layer="svg7" /><path
     id="path7"
     style="display:inline;fill:#b5b5b5;fill-opacity:1;stroke:none;stroke-width:1.88976"
     d="M 84.792969,10.195312 85.289063,22.130859 58.433594,31.330078 50.97461,22.626953 26.855469,45.007812 33.816406,52.21875 23.125,69.873047 11.189453,66.142578 0.994141,97.474609 11.685547,102.19922 v 21.38476 L 0,126.56641 l 7.957032,31.82812 6.464843,-1.74023 12.433594,18.15234 -6.714844,7.70898 22.628907,23.125 6.71289,-8.70312 18.650391,13.67578 -3.234375,9.94727 27.851566,6.71289 2.48632,-11.18946 23.373046,0.7461 4.97266,11.18945 29.83984,-9.94531 -3.97851,-10.69336 19.64453,-8.70313 5.4707,7.70899 21.63281,-24.61719 -5.96875,-4.97265 11.18946,-18.15235 8.20703,3.72852 6.46484,-35.55664 -10.94141,-1.49219 0.49805,-21.38477 9.44922,-4.972653 -10.44531,-29.09375 -11.68555,3.730469 -11.93555,-19.644532 6.71289,-8.205078 -23.125,-21.384765 -8.95117,9.199218 -29.59179,-9.449218 2.23828,-13.675782 z M 104.1875,59.802734 A 58.683342,58.683342 0 0 1 162.87109,118.48633 58.683342,58.683342 0 0 1 104.1875,177.16992 58.683342,58.683342 0 0 1 45.503906,118.48633 58.683342,58.683342 0 0 1 104.1875,59.802734 Z" /><path
     d="m 86.998594,11.218 c -2.126,0.786 -2.265,1.236 -2.369,7.666 l -0.071,4.384 -8.254,2.754 c -6.955,2.32 -13.427,4.933 -16.446,6.639 -0.385,0.217 -2.145,-1.192 -3.911,-3.133 -3.798,-4.174 -6.667,-4.468 -9.981,-1.025 -1.324,1.377 -3.487,3.514 -4.807,4.75 -9.051,8.478 -11.425565,12.223791 -11.425565,13.231791 0,1.08 2.451565,-2.137791 12.889565,-12.122791 2.379,-2.276 4.05,-4.413 3.714,-4.75 -0.337,-0.337 0.138,-0.668 1.054,-0.737 0.917,-0.069 2.221,-0.181 2.897,-0.25 0.677,-0.069 2.413,1.113 3.858,2.625 1.446,1.513 3.287,2.75 4.092,2.75 2.271,0 10.791,-2.901 16.32,-5.557 2.75,-1.321 5.969,-2.544 7.152,-2.719 4.004,-0.59 5.546,-2.771 5.183,-7.333 -0.238,-2.987 0.112,-4.501 1.197,-5.179 0.859,-0.536 8.958,-0.859 18.404996,-0.734 15.26,0.202 17.007,0.405 18.287,2.123 0.924,1.239 1.218,3.177 0.846,5.577 -0.699,4.507 0.847,6.322 6.725,7.893 2.313,0.619 4.655,1.473 5.205,1.898 0.55,0.425 3.475,1.337 6.5,2.026 3.025,0.689 6.711,1.691 8.19,2.226 2.251,0.813 3.262,0.536 6.191,-1.698 1.926,-1.469 3.668,-3.169 3.87,-3.777 0.235,-0.703 1.076,-0.798 2.309,-0.262 1.067,0.464 2.257,0.882 2.645,0.93 0.388,0.047 2.48,1.661 4.649,3.586 2.169,1.925 5.972,5.206 8.45,7.292 4.481,3.77 5.066,5.275 3.057,7.857 -1.518,1.951 -2.32,4.559 -1.617,5.261 1.005,1.006 4.242,-4.723 4.249,-7.521 0.006,-2.043 -2.186,-4.592 -10.086,-11.729 -11.242,-10.156 -12.919,-10.668 -16.707,-5.098 -1.265,1.86 -2.741,3.654 -3.281,3.988 -0.857,0.53 -22.882,-6.083 -26.919,-8.083 -1.091,-0.54 -1.428,-2.093 -1.236,-5.687 0.439,-8.233 -0.451,-8.596 -21.336,-8.696 -9.650996,-0.046 -18.420996,0.239 -19.487996,0.634 m -55.097,35.422 c -1.531,1.72 -3.939236,-2.755042 -0.024,3.36 3.941171,2.016736 0.653403,4.868351 0.131424,7.107356 -2.871291,4.680528 -2.026984,4.179514 -3.950424,7.392644 -3.120441,5.212736 -0.858695,7.199883 -9.479,5.417 l -5.736,-1.283 -1.87,2.433 c -1.029,1.338 -1.881,3.446 -1.893,4.683 -0.012,1.237 -0.37,2.25 -0.795,2.25 -0.425,0 -1.853,3.263 -3.173,7.25 -1.32,3.987 -2.772,7.677 -3.227,8.2 -2.39,2.746 2.076,7.55 7.018,7.55 1.12,0 2.273,0.381 2.561,0.847 0.771,1.248 0.876,7.703 0.254,15.653 l -0.547,7 -3.522,0.308 c -3.182,0.279 -3.589,0.662 -4.209,3.97 -0.378,2.013 -0.246,8.527 0.292,14.476 0.849,9.376 1.27,11.019 3.169,12.349 1.205,0.843 1.931,1.953 1.615,2.465 -0.317,0.513 0.126,0.932 0.983,0.932 2.112,0 1.97,-0.773 -0.814,-4.422 -2.463,-3.229 -3.379,-7.292 -4.273,-18.941 -0.598,-7.791 -0.112,-8.661 5.345,-9.565 l 3.801,-0.629 -0.118,-12.256 c -0.065,-6.741 -0.388,-12.526 -0.717,-12.856 -0.33,-0.329 -1.816,-0.732 -3.304,-0.896 -5.022,-0.551 -5.938,-5.975 -2.436,-14.435 1.024,-2.475 2.653,-6.412 3.62,-8.75 1.856,-4.486 2.078,-4.583 9.955,-4.351 l 5,0.148 5.75,-9.42 c 5.978,-9.793 8.172513,-11.223136 5.838513,-12.567136 -0.763,-0.44 -2.437508,-1.805859 -2.636508,-2.828859 L 34.656175,43.681419 31.901594,46.64 M 181.66459,57.277 c 0.897,1.773 3.489,6.269 5.762,9.991 l 4.132,6.768 5,-0.142 c 7.881,-0.224 8.099,-0.129 9.955,4.356 0.967,2.338 2.596,6.275 3.62,8.75 3.502,8.46 2.586,13.884 -2.436,14.435 -1.488,0.164 -2.974,0.567 -3.304,0.896 -0.329,0.33 -0.652,6.115 -0.717,12.856 l -0.118,12.256 3.801,0.629 c 5.457,0.904 5.943,1.774 5.345,9.565 -0.894,11.649 -1.81,15.712 -4.273,18.941 -4.4361,2.19945 -4.23636,4.71557 0.169,3.49 3.60755,-4.00475 4.2513,-9.15792 4.784,-14.814 0.538,-5.949 0.67,-12.463 0.292,-14.476 -0.62,-3.308 -1.027,-3.691 -4.209,-3.97 l -3.522,-0.308 -0.547,-7 c -0.622,-7.95 -0.517,-14.405 0.254,-15.653 0.288,-0.466 1.441,-0.847 2.561,-0.847 4.942,0 9.408,-4.804 7.018,-7.55 -0.455,-0.523 -1.907,-4.213 -3.227,-8.2 -1.32,-3.987 -2.748,-7.25 -3.173,-7.25 -0.425,0 -0.783,-1.013 -0.795,-2.25 -0.012,-1.237 -0.864,-3.345 -1.893,-4.683 l -1.87,-2.433 -5.736,1.283 c -5.87,1.314 -7.418,0.786 -7.464,-2.545 -0.008,-0.62 -0.646,-1.651 -1.418,-2.292 -0.772,-0.64 -2.584,-3.577 -4.026,-6.525 -1.443,-2.949 -3.292,-5.618 -4.109,-5.931 -1.263,-0.485 -1.241,-0.087 0.144,2.653 M 98.702594,56.689 c -0.267,0.267 -2.411,0.671 -4.764,0.898 -2.354,0.227 -4.729,0.862 -5.28,1.413 -0.55,0.55 -2.17,1 -3.6,1 -1.43,0 -3.133,0.533 -3.784,1.184 -0.652,0.652 -1.984,1.244 -2.96,1.316 -2.41,0.177 -15.922,10.313 -20.304,15.231 -1.951,2.19 -3.352,4.609 -3.113,5.375 0.239,0.767 0.09,1.074 -0.331,0.682 -0.421,-0.392 -1.975,1.754 -3.452,4.768 -1.478,3.013 -3.033,5.134 -3.455,4.712 -0.422,-0.423 -0.644,-0.318 -0.494,0.232 0.462,1.687 -1.222,7.547 -2.026,7.05 -0.416,-0.257 -0.826,1.427 -0.912,3.741 -0.085,2.315 -0.666,5.453 -1.29,6.974 -1.786,4.354 -0.536,17.17 2.51,25.735 1.467,4.125 2.904,8.836 3.192,10.47 0.289,1.633 0.758,3.202 1.042,3.487 0.285,0.284 24.448,0.527 53.696996,0.538 29.249,0.012 53.855,0.243 54.68,0.514 0.825,0.27 1.854,0.941 2.287,1.491 0.433,0.55 0.501,-0.656 0.152,-2.68 -0.43,-2.488 -0.13,-4.592 0.926,-6.5 3.235,-5.846 5.259,-15.615 5.142,-24.82 -0.144,-11.408 -1.917,-21.59 -3.957,-22.732 -0.852,-0.477 -1.55,-1.551 -1.55,-2.388 0,-0.836 -1.288,-3.401 -2.863,-5.7 -1.575,-2.299 -3.15,-5.08 -3.502,-6.18 -0.832,-2.606 -6.868,-8.934 -10.657,-11.172 -1.638,-0.968 -2.978,-2.112 -2.978,-2.544 0,-0.431 -0.675,-0.784 -1.5,-0.784 -0.825,0 -1.5,-0.438 -1.5,-0.974 0,-1.131 -5.584,-4.261 -8.47,-4.748 -1.083,-0.183 -4.391,-1.441 -7.352,-2.797 -4.044,-1.851 -7.578,-2.565 -14.215,-2.871 -4.858,-0.224 -9.050996,-0.188 -9.318996,0.079 m -1.614,2.012 c -3.008,0.23 -5.933,0.76 -6.5,1.176 -0.566,0.417 -3.73,1.607 -7.03,2.646 -3.3,1.039 -6.9,2.621 -8,3.517 -1.1,0.895 -4.025,2.787 -6.5,4.205 -2.475,1.417 -5.671,3.854 -7.102,5.416 -4.737,5.168 -14.034,20.726 -15.44,25.839 -1.335,4.853 -1.422,5.533 -2.046,16 l -0.596,10 3.509,10.5 3.508,10.5 52.716996,0.259 c 59.629,0.293 53.928,1.118 57.05,-8.259 0.916,-2.75 2.136,-5.594 2.713,-6.32 0.598,-0.753 1.023,-6.118 0.989,-12.5 -0.081,-15.555 -0.586,-20.62 -2.152,-21.587 -0.742,-0.459 -1.647,-2.13 -2.011,-3.714 -0.8,-3.487 -12.207,-21.236 -13.702,-21.32 -0.585,-0.032 -2.356,-1.409 -3.937,-3.059 -1.581,-1.65 -3.439,-3 -4.13,-3 -0.691,0 -1.845,-0.829 -2.563,-1.843 -0.719,-1.014 -2.432,-2.098 -3.807,-2.41 -1.375,-0.311 -5.65,-1.695 -9.5,-3.076 -7.341,-2.632 -16.273,-3.673 -25.469996,-2.97 m -84.15,97.943 c -1.209,1.458 -1.119,1.567 0.797,0.958 1.627,-0.516 2.315,-0.202 2.782,1.268 0.341,1.075 1.84,3.49 3.331,5.367 1.49,1.877 3.549,4.972 4.574,6.878 l 1.865,3.465 -2.045,3.816 c -1.649,3.075 -1.833,4.279 -0.954,6.21 0.6,1.316 1.399,2.394 1.774,2.394 0.376,0 2.891,2.766 5.59,6.147 3.003,3.762 6.458,6.857 8.906,7.977 l 4,1.831 2.502,-3.012 c 2.328,-2.801 2.729,-2.933 5.75,-1.88 1.787,0.623 3.248,1.524 3.248,2.003 0,0.479 2.588,2.756 5.75,5.061 3.162,2.304 5.907,4.313 6.1,4.464 0.192,0.151 -0.196,1.928 -0.863,3.948 -1.985,6.016 -0.246,7.991 8.376,9.511 3.925,0.692 9.60409,2.38854 13.17909,2.44154 l 6.09933,0.66838 2.32758,-5.90992 c 1.657,-4.793 1.938,-4.858 15.336996,-3.593 l 6.806,0.643 1.964,3.85 1.965,3.85 4.729,-0.013 c 2.721,-0.008 8.341,-1.311 13.23,-3.068 4.675,-1.68 9.287,-3.301 10.25,-3.603 2.145,-0.673 2.219,-2.949 0.251,-7.659 l -1.499,-3.588 2.228,-1.192 c 1.226,-0.656 2.833,-1.797 3.571,-2.535 0.738,-0.738 2.097,-1.344 3.02,-1.346 0.924,-0.002 3.152,-0.902 4.953,-2 4.366,-2.661 5.852,-2.52 7.9,0.754 0.947,1.512 1.808,2.889 1.915,3.059 0.107,0.169 1.753,-0.343 3.658,-1.139 3.903,-1.63 10.277,-7.594 11.189,-10.468 0.331,-1.044 1.706,-2.401 3.056,-3.016 3.376,-1.538 4.189,-5.506 1.973,-9.622 l -1.784,-3.312 2.344,-3.876 c 1.29,-2.132 3.355,-5.111 4.591,-6.621 1.235,-1.509 2.538,-3.665 2.896,-4.791 0.49,-1.546 1.18,-1.889 2.819,-1.398 1.988,0.594 2.038,0.511 0.597,-0.995 -2.061,-2.155 -4.766,-1.065 -5.599,2.256 -0.36,1.433 -1.5,3.514 -2.533,4.623 -1.034,1.109 -3.04,3.997 -4.459,6.418 l -2.579,4.401 1.596,3.348 c 0.878,1.841 1.3,4.143 0.938,5.115 -0.78,2.094 -14.65,16.269 -15.917,16.267 -0.481,-0.001 -2.169,-1.114 -3.751,-2.475 -3.427,-2.947 -4.161,-2.872 -12.854,1.317 -3.702,1.783 -6.964,3.223 -7.25,3.201 -0.286,-0.023 -1.349,0.745 -2.362,1.708 -1.266,1.203 -1.579,2.277 -1,3.434 1.044,2.088 1.115,9.788 0.092,9.893 -2.42,0.246 -5.313,1.069 -12.258,3.487 -9.455,3.291 -12.057,2.872 -15.032,-2.422 l -2.164,-3.851 -10.546,-0.645 c -10.626996,-0.65 -13.949996,0.088 -12.884996,2.864 0.599,1.56 -3.346,5.901 -5.734,6.311 -1.028,0.177 -3.953,-0.158 -6.5,-0.743 -2.547,-0.586 -6.398,-1.239 -8.558,-1.453 -5.039,-0.498 -6.75,-2.816 -6.369,-8.625 0.163,-2.475 -0.084,-4.569 -0.547,-4.652 -0.464,-0.084 -2.039,-1.244 -3.5,-2.578 -4.506,-4.113 -12.847,-9.77 -14.406,-9.77 -0.815,0 -2.625,0.9 -4.024,2 -1.398,1.1 -3.013,2 -3.588,2 -2.344,0 -5.983,-2.362 -6.968,-4.524 -0.577,-1.266 -1.953,-2.59 -3.059,-2.94 -1.105,-0.351 -2.31,-1.628 -2.678,-2.837 -0.367,-1.21 -1.782,-3.113 -3.145,-4.23 l -2.476,-2.03 2.221,-4.573 2.222,-4.573 -2.586,-4.413 c -1.423,-2.427 -3.505,-5.399 -4.628,-6.605 -1.123,-1.205 -2.042,-2.853 -2.042,-3.662 0,-1.568 -2.607,-4.613 -3.949,-4.613 -0.443,0 -1.42,0.74 -2.171,1.644"
     stroke="none"
     fill="#bab3b0"
     fill-rule="evenodd"
     id="path1"
     sodipodi:nodetypes="ccccccccscccccsccccccccsscscccscsccccccccccccscccssscsccccccccsccccccccccccccccccccccccccccccccccccscsssccccccccccssscccsccccccsccccsccccssccsssccscccsccccccccsccccccssccccccccccccscccccscccccccccccccccccsscccccscccccccccccccccccccccccscccccccscscccccccccssc"
     style="display:none" /><path
     d="m 88.013594,13.364 c -0.956,0.746 -1.352,2.538 -1.155,5.222 0.323,4.411 -1.227,6.56 -5.148,7.138 -1.183,0.175 -4.402,1.398 -7.152,2.719 -5.529,2.656 -14.049,5.557 -16.32,5.557 -0.805,0 -2.646,-1.237 -4.092,-2.75 -1.445,-1.512 -3.181,-2.694 -3.858,-2.625 -0.676,0.069 -1.98,0.181 -2.897,0.25 -0.916,0.069 -1.391,0.4 -1.054,0.737 0.595,0.595 -3.662,5.019 -12.129,12.607 -2.283,2.045 -4.15,4.253 -4.15,4.905 0,0.707 0.808,0.455 2,-0.624 l 2,-1.81 v 2.155 c 0,1.185 0.465,2.155 1.032,2.155 0.568,0 1.439,1.013 1.937,2.25 1.291259,3.213379 1.555587,-0.56898 -0.469,-2.25 -2.94,-2.44 -1.453,-5.382 6.238,-12.334 l 7.561,-6.834 3.49,3.49 3.49,3.491 9.611,-3.481 c 5.285,-1.914 12.535,-4.463 16.11,-5.664 3.575,-1.201 6.441,-2.63 6.369,-3.176 -0.073,-0.546 -0.438,-3.129 -0.812,-5.742 l -0.68,-4.75 h 18.061996 c 13.814,0 18.047,0.294 18.001,1.25 -0.032,0.688 -0.412,3.391 -0.842,6.008 -0.517,3.139 -0.412,5.06 0.309,5.644 1.671,1.355 29.468,10.098 32.105,10.098 1.512,0 3.423,-1.393 5.488,-4 l 3.168,-4 5.166,4.868 c 8.869,8.359 12.353,11.112 13.105,10.359 1.544,-1.544 -0.051,2.431 -2.189,5.456 -1.238,1.751 -2.25,3.66 -2.25,4.242 0,0.582 3.015,6.125 6.7,12.317 3.685,6.192 6.739,11.349 6.786,11.461 0.241,0.565 10.514,-2.962 10.514,-3.61 0,-0.417 -2.363,-0.591 -5.25,-0.386 l -5.25,0.371 -4.132,-6.789 c -5.659,-9.299 -7.825,-13.689 -6.281,-12.735 0.848,0.524 1.07,0.298 0.687,-0.702 -0.312,-0.811 0.268,-3.248 1.288,-5.414 l 1.854,-3.938 -3.885,-3.5 c -7.047,-6.347 -13.218,-11.499 -13.88,-11.586 -0.358,-0.048 -1.524,-0.466 -2.591,-0.93 -1.233,-0.536 -2.074,-0.441 -2.309,0.262 -0.202,0.608 -1.944,2.308 -3.87,3.777 -2.929,2.234 -3.94,2.511 -6.191,1.698 -1.479,-0.535 -5.165,-1.537 -8.19,-2.226 -3.025,-0.689 -5.95,-1.601 -6.5,-2.026 -0.55,-0.425 -2.892,-1.279 -5.205,-1.898 -5.878,-1.571 -7.424,-3.386 -6.725,-7.893 0.371,-2.396 0.078,-4.338 -0.842,-5.571 -1.274,-1.71 -3.056,-1.917 -18.364,-2.137 -11.485996,-0.164 -17.422996,0.124 -18.408996,0.894 m -56.963,49.662 -5.492,9.072 -5.25,-0.381 c -2.888,-0.21 -5.25,-0.041 -5.25,0.376 0,1.021 10.432,4.037 10.755,3.109 0.14,-0.403 2.754,-4.921 5.809,-10.041 9.349328,-12.874175 6.636786,-20.010003 -0.572,-2.135 m 57.17,-6.054 c -15.487,4.183 -29.411,14.544 -38.341,28.528 -2.459,3.85 -4.744,7.9 -5.079,9 -0.335,1.1 -1.325,3.95 -2.2,6.334 -1.122,3.059 -1.597,7.912 -1.613,16.5 -0.024,12.585 1.162,19.234 4.924,27.605 l 1.995,4.438 -1.924,2.446 c -1.652,2.101 -1.924,4.116 -1.924,14.256 0,11.042 0.157,11.992 2.413,14.615 l 2.414,2.806 h 55.672996 55.673 l 2.512,-2.92 2.511,-2.92 -0.348,-12.152 c -0.284,-9.928 -0.668,-12.472 -2.098,-13.902 -2.116,-2.114 -2.111,-2.008 -0.265,-5.578 1.594,-3.082 3.885,-9.739 4.953,-14.392 1.286,-5.603 0.747,-22.133 -0.935,-28.675 -2.607,-10.142 -9.068,-21.394 -16.59,-28.893 -12.528,-12.491 -25.52,-18.087 -43.413,-18.7 -8.714996,-0.299 -12.524996,0.034 -18.337996,1.604 m 10.482,-0.283 c -0.267,0.267 -2.411,0.671 -4.764,0.898 -2.354,0.227 -4.729,0.862 -5.28,1.413 -0.55,0.55 -2.17,1 -3.6,1 -1.43,0 -3.133,0.533 -3.784,1.184 -0.652,0.652 -1.984,1.244 -2.96,1.316 -2.41,0.177 -15.922,10.313 -20.304,15.231 -1.951,2.19 -3.352,4.609 -3.113,5.375 0.239,0.767 0.09,1.074 -0.331,0.682 -0.421,-0.392 -1.975,1.754 -3.452,4.768 -1.478,3.013 -3.033,5.134 -3.455,4.712 -0.422,-0.423 -0.644,-0.318 -0.494,0.232 0.462,1.687 -1.222,7.547 -2.026,7.05 -0.416,-0.257 -0.826,1.427 -0.912,3.741 -0.085,2.315 -0.666,5.453 -1.29,6.974 -1.786,4.354 -0.536,17.17 2.51,25.735 1.467,4.125 2.904,8.836 3.192,10.47 0.289,1.633 0.758,3.202 1.042,3.487 0.285,0.284 24.448,0.527 53.696996,0.538 29.249,0.012 53.855,0.243 54.68,0.514 0.825,0.27 1.854,0.941 2.287,1.491 0.433,0.55 0.501,-0.656 0.152,-2.68 -0.43,-2.488 -0.13,-4.592 0.926,-6.5 3.235,-5.846 5.259,-15.615 5.142,-24.82 -0.144,-11.408 -1.917,-21.59 -3.957,-22.732 -0.852,-0.477 -1.55,-1.551 -1.55,-2.388 0,-0.836 -1.288,-3.401 -2.863,-5.7 -1.575,-2.299 -3.15,-5.08 -3.502,-6.18 -0.832,-2.606 -6.868,-8.934 -10.657,-11.172 -1.638,-0.968 -2.978,-2.112 -2.978,-2.544 0,-0.431 -0.675,-0.784 -1.5,-0.784 -0.825,0 -1.5,-0.438 -1.5,-0.974 0,-1.131 -5.584,-4.261 -8.47,-4.748 -1.083,-0.183 -4.391,-1.441 -7.352,-2.797 -4.044,-1.851 -7.578,-2.565 -14.215,-2.871 -4.858,-0.224 -9.050996,-0.188 -9.318996,0.079 m -88.099,19.561 c -0.967,2.338 -2.596,6.275 -3.62,8.75 -3.502,8.46 -2.586,13.884 2.436,14.435 1.488,0.164 2.974,0.567 3.304,0.896 0.329,0.33 0.652,6.115 0.717,12.856 l 0.118,12.256 -3.801,0.629 c -5.457,0.904 -5.943,1.774 -5.345,9.565 0.902,11.76 1.816,15.719 4.413,19.125 2.304,3.02 2.656,3.165 4.229,1.742 2.238,-2.026 4.853,-0.956 5.675,2.323 0.36,1.433 1.5,3.514 2.533,4.623 1.034,1.109 3.043,4.003 4.466,6.43 l 2.586,4.413 -2.222,4.573 -2.221,4.573 2.476,2.03 c 1.363,1.117 2.763,2.975 3.113,4.129 0.35,1.154 1.714,2.589 3.03,3.189 1.317,0.6 2.667,1.95 3,3 0.572,1.801 4.412,4.213 6.707,4.213 0.575,0 2.19,-0.9 3.588,-2 1.399,-1.1 3.209,-2 4.024,-2 1.559,0 9.9,5.657 14.406,9.77 1.461,1.334 3.036,2.494 3.5,2.578 0.463,0.083 0.71,2.177 0.547,4.652 -0.394,6.007 1.311,8.158 6.88,8.683 2.429,0.229 5.991,0.841 7.916,1.361 4.431,1.196 7,1.212 7,0.044 0,-0.502 -1.912,-1.218 -4.25,-1.592 -2.338,-0.373 -7.098,-1.377 -10.58,-2.229 -5.707,-1.398 -6.263,-1.757 -5.656,-3.659 2.244,-7.03 2.375,-6.806 -8.961,-15.475 -5.849,-4.473 -11.034,-8.133 -11.521,-8.133 -0.488,0 -2.293,1.688 -4.012,3.75 l -3.126,3.75 -6.859,-7.152 c -9.312,-9.709 -9.652,-10.461 -6.446,-14.271 1.419,-1.687 2.43,-3.433 2.246,-3.88 -0.184,-0.447 -3.416,-5.617 -7.183,-11.488 -5.945,-9.268 -7.089,-10.545 -8.684,-9.692 -1.01,0.541 -2.694,0.983 -3.743,0.983 -2.027,0 -2.864,-2.734 -5.319,-17.365 -1.319,-7.863 -0.87,-8.594 5.287,-8.62 l 3.693,-0.015 0.307,-12.75 c 0.169,-7.013 0.147,-13.518 -0.048,-14.457 -0.196,-0.939 -1.996,-2.231 -4,-2.871 -2.005,-0.64 -4.011,-1.497 -4.457,-1.905 -0.657,-0.6 3.581,-14.47 6.803,-22.267 0.398,-0.963 0.293,-1.75 -0.232,-1.75 -0.525,0 -1.746,1.912 -2.714,4.25 m 192.963996,-0.5 c 3.222,7.797 7.46,21.667 6.803,22.267 -0.446,0.408 -2.452,1.265 -4.457,1.905 -2.004,0.64 -3.804,1.932 -4,2.871 -0.195,0.939 -0.217,7.444 -0.048,14.457 l 0.307,12.75 3.693,0.015 c 6.157,0.026 6.606,0.757 5.287,8.62 -2.455,14.631 -3.292,17.365 -5.319,17.365 -1.049,0 -2.733,-0.442 -3.743,-0.983 -1.595,-0.853 -2.739,0.424 -8.684,9.692 -3.767,5.871 -6.999,11.041 -7.183,11.488 -0.184,0.447 0.83,2.196 2.253,3.888 l 2.587,3.075 -7.665,8.42 c -4.215,4.631 -7.965,8.42 -8.333,8.42 -0.368,0 -1.278,-1.137 -2.021,-2.527 -2.289,-4.277 -4.902,-4.055 -16.628,1.41 -5.96,2.778 -10.996,5.531 -11.192,6.118 -0.195,0.587 0.381,2.909 1.281,5.158 0.9,2.25 1.475,4.253 1.276,4.451 -0.965,0.966 -22.047,8.308 -22.698,7.905 -0.413,-0.255 -1.302,-2.434 -1.977,-4.843 l -1.226,-4.379 -10.566,-0.646 c -16.585996,-1.015 -17.189996,-0.962 -18.133996,1.603 -0.455,1.238 -1.098,3.983 -1.429,6.102 l -0.6,3.851 2.364,-2.752 c 1.301,-1.513 2.159,-3.287 1.908,-3.941 -1.065,-2.776 2.258,-3.514 12.884996,-2.864 l 10.546,0.645 2.164,3.851 c 2.975,5.294 5.577,5.713 15.032,2.422 6.945,-2.418 9.838,-3.241 12.258,-3.487 1.023,-0.105 0.952,-7.805 -0.092,-9.893 -0.579,-1.157 -0.266,-2.231 1,-3.434 1.013,-0.963 2.076,-1.731 2.362,-1.708 0.286,0.022 3.548,-1.418 7.25,-3.201 8.693,-4.189 9.427,-4.264 12.854,-1.317 1.582,1.361 3.27,2.474 3.751,2.475 1.267,0.002 15.137,-14.173 15.917,-16.267 0.362,-0.972 -0.06,-3.274 -0.938,-5.115 l -1.596,-3.348 2.579,-4.401 c 1.419,-2.421 3.425,-5.309 4.459,-6.418 1.033,-1.109 2.173,-3.19 2.533,-4.623 0.822,-3.279 3.437,-4.349 5.675,-2.323 1.573,1.423 1.925,1.278 4.229,-1.742 2.597,-3.406 3.511,-7.365 4.413,-19.125 0.598,-7.791 0.112,-8.661 -5.345,-9.565 l -3.801,-0.629 0.118,-12.256 c 0.065,-6.741 0.388,-12.526 0.717,-12.856 0.33,-0.329 1.816,-0.732 3.304,-0.896 5.022,-0.551 5.938,-5.975 2.436,-14.435 -1.024,-2.475 -2.653,-6.412 -3.62,-8.75 -0.968,-2.338 -2.189,-4.25 -2.714,-4.25 -0.525,0 -0.63,0.787 -0.232,1.75 M 49.615594,155.223 c -1.828,2.609 -2.212,18.685 -0.522,21.843 l 1.035,1.934 h 54.357996 c 48.645,0 54.422,-0.166 54.965,-1.582 1.15,-2.996 0.666,-21.959 -0.593,-23.218 -0.903,-0.903 -14.365,-1.2 -54.443,-1.2 H 51.171594 l -1.556,2.223 m 12.11,3.444 c -0.367,0.366 -0.667,3.893 -0.667,7.838 v 7.171 l 3.676,0.138 c 3.756,0.141 6.348,-1.171 6.294,-3.186 -0.017,-0.621 -0.489,-0.341 -1.05,0.622 -0.561,0.963 -1.502,1.75 -2.092,1.75 -0.656,0 -0.546,-0.68 0.282,-1.75 l 1.356,-1.75 -2.062,1.75 c -2.125,1.804 -3.9,2.362 -3.029,0.952 0.271,-0.439 0.03,-1.451 -0.535,-2.25 -0.844,-1.192 -0.93,-1.144 -0.478,0.266 0.303,0.945 0.083,2.007 -0.489,2.36 -0.694,0.43 -0.928,-1.882 -0.706,-6.97 0.183,-4.187 0.296,-7.612 0.25,-7.61 -0.046,0.001 -0.384,0.302 -0.75,0.669 m 48.332996,1.392 c 0,0.582 0.399,0.813 0.886,0.512 1.258,-0.778 1.818,3.161 1.199,8.429 l -0.529,4.5 -0.653,-5 -0.654,-5 0.126,4.922 c 0.153,6.032 2.617,7.815 2.64,1.911 0.02,-4.916 1.206,-6.77 3.884,-6.07 1.267,0.332 1.858,0.152 1.485,-0.45 -0.34,-0.551 -1.691,-0.796 -3.001,-0.546 -1.966,0.376 -2.383,0.043 -2.383,-1.906 0,-1.432 -0.59,-2.361 -1.5,-2.361 -0.825,0 -1.5,0.477 -1.5,1.059 m 29.149,4.261 c -0.88,1.06 -0.314,1.277 2.878,1.103 3.434,-0.187 3.989,0.075 4.089,1.93 0.095,1.761 0.2,1.824 0.583,0.349 0.992,-3.826 -4.966,-6.495 -7.55,-3.382 m -31.134,28.93 c -0.01,1.226 0.771,1.75 2.607,1.75 2.25,0 2.441,0.219 1.343,1.542 -0.905,1.091 -0.968,1.855 -0.216,2.607 0.752,0.752 1.018,0.531 0.908,-0.754 -0.228,-2.645 3.028,-2.964 3.849,-0.377 0.372,1.173 0.897,1.912 1.166,1.643 0.906,-0.905 -1.726,-4.661 -3.266,-4.661 -0.838,0 -1.272,-0.408 -0.964,-0.907 0.309,-0.498 -0.386,-0.659 -1.543,-0.356 -1.233,0.322 -2.469,-0.027 -2.986,-0.844 -0.705,-1.113 -0.885,-1.042 -0.898,0.357"
     stroke="none"
     fill="#cea6a8"
     fill-rule="evenodd"
     id="path2"
     sodipodi:nodetypes="ccccscccscsccsscccccccscccscccscccccsscscccscccccccscssccccccccscccccscccccsccccccccccccccccssscccsccccccsccccsccccssccsssccsccccccccccccccccccsccscscccscsccccsccccsccsccccccccscccccccccsccscccsccccccccccccccsccccccccccccccccccccccccccsccscscsscccscscsscccccccccccccccccccccsscccccccscscccscccc"
     style="display:none" /><path
     d="m 103.23859,37.25 0.18,5.25 0.375,-4.75 0.375,-4.75 h 3.004 c 1.652,0 2.785,0.355 2.517,0.788 -0.268,0.433 0.606,0.878 1.941,0.989 1.573,0.13 2.428,-0.323 2.428,-1.288 0,-1.138 -1.296,-1.489 -5.5,-1.489 h -5.5 l 0.18,5.25 M 90.223594,33.877 c -0.735,0.466 -1.297,1.134 -1.25,1.485 0.047,0.351 -0.14,0.638 -0.415,0.638 -2.748,0 -2.896,-0.098 -1.5,-1 0.901,-0.582 1.025,-0.975 0.309,-0.985 -1.966,-0.025 -2.559,1.952 -0.789,2.631 0.906,0.348 2.072,1.582 2.592,2.743 l 0.944,2.111 -0.45,-2.311 c -0.329,-1.685 0.138,-2.548 1.722,-3.187 1.194,-0.481 1.722,-0.911 1.172,-0.954 -0.55,-0.043 -0.325,-0.515 0.5,-1.048 1.333,-0.862 1.333,-0.969 0,-0.969 -0.825,0 -2.101,0.381 -2.835,0.846 m -16.498,4.79 c -0.999,0.998 -0.804,5.333 0.239,5.333 0.499,0 0.671,0.9 0.384,2 -0.288,1.1 -0.054,2 0.52,2 0.574,0 1.284,0.788 1.578,1.75 0.294,0.962 0.289,-0.05 -0.01,-2.25 -0.3,-2.2 -0.957,-4.15 -1.46,-4.333 -0.503,-0.183 -0.642,-1.42 -0.308,-2.75 0.609,-2.424 0.301,-2.995 -0.943,-1.75 m 61.773996,1.77 c -2.123,1.571 -0.062,1.706 2.418,0.158 0.922,-0.575 2.089,0 3.622,1.785 1.904,2.215 2.45,2.408 3.44,1.216 0.803,-0.969 0.844,-1.623 0.128,-2.066 -0.577,-0.356 -1.049,-0.364 -1.049,-0.018 0,0.347 -0.707,-0.076 -1.571,-0.941 -1.957,-1.956 -4.461,-2.005 -6.988,-0.134 m -32.441,6.004 V 50 h 5.5 c 4.222,0 5.5,-0.348 5.5,-1.5 0,-0.91 -0.885,-1.472 -2.25,-1.43 l -2.25,0.071 2,0.859 c 1.496,0.643 0.773,0.877 -2.867,0.93 l -4.866,0.07 0.482,-2.524 c 0.266,-1.388 0.093,-2.765 -0.383,-3.059 -0.476,-0.294 -0.866,1.067 -0.866,3.024 m 36.483,1.305 c 1.358,2.685 1.38,5.534 0.052,6.862 -1.608,1.608 -2.946,1.865 -2.035,0.392 0.34,-0.55 0.141,-1 -0.441,-1 -0.582,0 -1.059,0.477 -1.059,1.059 0,0.582 -0.48,0.762 -1.067,0.4 -0.586,-0.363 -0.814,-0.911 -0.506,-1.219 0.843,-0.844 -3.284,-3.446 -4.385,-2.766 -1.852,1.145 0.212,3.522 4.059,4.674 3.384,1.014 4.156,0.93 5.896,-0.646 2.41,-2.181 2.548,-4.448 0.429,-7.061 -0.866,-1.067 -1.29,-1.38 -0.943,-0.695 m 17.017,5.028 c 0.55,0.567 1.9,1.284 3,1.593 1.172,0.329 0.852,0.425 -0.774,0.231 -1.525,-0.181 -3.021,0.071 -3.324,0.561 -0.303,0.49 -0.18,0.826 0.274,0.747 2.71,-0.471 5.58,0.35 7.324,2.094 1.1,1.1 2.45,2 3,2 2.011,0 0.925,-2.917 -1.811,-4.865 -3.077,-2.191 -9.408,-4.135 -7.689,-2.361 M 47.808594,55.217 c -1.859,2.327 -2.382,8.274 -0.813,9.244 0.533,0.329 0.733,-0.55 0.464,-2.037 -0.582,-3.205 0.406,-6.661 1.678,-5.875 0.514,0.318 1.204,-0.123 1.533,-0.98 0.329,-0.857 1.07,-1.266 1.647,-0.909 0.613,0.379 0.753,0.169 0.336,-0.505 -1.088,-1.762 -2.908,-1.363 -4.845,1.062 M 151.05859,55.5 c -1.292,1.375 -1.955,2.5 -1.474,2.5 0.481,0 0.334,0.54 -0.326,1.2 -0.66,0.66 -1.186,1.673 -1.168,2.25 0.017,0.578 0.662,0.217 1.433,-0.8 0.874,-1.153 1.898,-1.552 2.718,-1.058 1.076,0.647 1.083,0.503 0.041,-0.783 -1.053,-1.301 -0.998,-1.682 0.314,-2.185 0.874,-0.336 1.332,-1.025 1.019,-1.532 -0.313,-0.506 -0.004,-1.149 0.687,-1.428 0.691,-0.278 0.772,-0.542 0.18,-0.585 -0.591,-0.043 -2.132,1.046 -3.424,2.421 m 6.395,6.67 c -0.486,0.787 -0.178,0.961 0.941,0.531 1.104,-0.424 1.664,-0.125 1.664,0.889 0,0.841 0.45,1.25 1,0.91 1.103,-0.682 1.384,0.783 0.349,1.818 -0.358,0.358 -1.244,-0.13 -1.968,-1.084 -1.171,-1.541 -1.321,-1.347 -1.349,1.743 l -0.032,3.478 2.689,-2.69 2.69,-2.689 -1.845,-2.038 c -2.105,-2.326 -3.108,-2.536 -4.139,-0.868 m 12.605,3.881 -2.5,1.942 2.5,-0.371 c 2.901,-0.43 5.096,0.964 4.395,2.791 -0.607,1.582 2.148,3.987 3.565,3.112 0.889,-0.55 -0.843,-3.629 -4.905,-8.721 -0.305,-0.383 -1.68,0.178 -3.055,1.247 M 36.761594,67.775 c -2.553,2.822 -3.959,7.372 -2.669,8.638 0.654,0.641 1.031,0.677 0.919,0.087 -0.104,-0.55 -0.13,-1.675 -0.056,-2.5 0.119,-1.333 0.241,-1.333 1.103,0 0.556,0.861 0.976,1.002 0.985,0.332 0.008,-0.643 0.324,-1.993 0.702,-3 0.609,-1.622 0.491,-1.672 -1.023,-0.441 -1.494,1.217 -1.63,1.185 -1.08,-0.25 0.578,-1.507 1.739,-2.064 3.666,-1.759 1.037,0.163 0.945,-1.643 -0.116,-2.299 -0.477,-0.295 -1.571,0.242 -2.431,1.192 m 123.930996,5.077 c -2.172,2.4 -2.095,2.805 1.116,5.859 1.512,1.439 2.075,2.254 1.25,1.812 -1.152,-0.618 -1.117,-0.397 0.154,0.954 2.174,2.313 4.258,1.155 2.625,-1.459 -0.648,-1.039 -1.539,-1.666 -1.979,-1.394 -0.44,0.272 -0.8,-0.009 -0.8,-0.624 0,-0.615 -0.399,-0.872 -0.886,-0.57 -0.488,0.301 -1.116,-0.331 -1.397,-1.404 -0.564,-2.158 1.701,-4.777 2.714,-3.138 0.73,1.182 4.569,1.045 4.569,-0.164 0,-0.467 -0.787,-0.72 -1.75,-0.562 -0.963,0.159 -2.252,-0.028 -2.866,-0.413 -0.614,-0.386 -1.852,0.11 -2.75,1.103 m 18.447,15.551 c -0.894,1.077 -0.865,1.523 0.127,1.921 0.799,0.32 0.602,0.548 -0.517,0.597 -0.995,0.043 -1.568,0.469 -1.274,0.945 0.295,0.477 -0.354,1.672 -1.441,2.655 -1.087,0.984 -1.976,1.439 -1.976,1.012 0,-0.428 -0.675,-0.218 -1.5,0.467 -1.984,1.646 -1.93,0.573 0.071,-1.429 0.865,-0.864 1.145,-1.571 0.623,-1.571 -1.652,0 -3.253,2.683 -2.607,4.367 0.557,1.452 0.898,1.415 3.268,-0.35 5.419,-4.036 9.604,-8.02 7.721,-7.352 -1.517,0.538 -1.787,0.328 -1.281,-0.991 0.784,-2.042 0.338,-2.142 -1.214,-0.271 M 62.292594,165.541 c -0.129,6.588 0.004,7.051 2.064,7.195 1.948,0.136 2,0.039 0.452,-0.841 -2.008,-1.141 -2.319,-4.926 -0.55,-6.695 0.855,-0.855 0.874,-1.2 0.066,-1.2 -0.623,0 -1.305,-1.238 -1.514,-2.75 -0.21,-1.512 -0.443,0.418 -0.518,4.291 m 16.433,-5.874 c -0.944,0.943 -0.834,13.554 0.113,12.969 0.721,-0.445 1.554,-13.636 0.862,-13.636 -0.17,0 -0.609,0.3 -0.975,0.667 m -12.667,4.191 c 0,0.51 0.675,1.187 1.5,1.504 1.796,0.689 1.985,4.753 0.3,6.438 -0.893,0.893 -0.902,1.2 -0.035,1.2 1.729,0 3.437,-3.788 2.723,-6.039 -0.657,-2.068 -4.488,-4.717 -4.488,-3.103 m 59.999996,-0.18 c 0,0.507 0.54,1.462 1.2,2.122 0.933,0.933 0.78,1.2 -0.691,1.2 h -1.891 l 1.844,1.348 c 2.186,1.599 1.266,3.652 -1.638,3.652 -1.565,0 -1.932,-0.478 -1.534,-2.001 0.288,-1.101 0.115,-1.75 -0.383,-1.441 -0.499,0.308 -0.907,1.433 -0.907,2.501 0,1.552 0.702,1.941 3.5,1.941 h 3.5 v -3.878 c 0,-2.226 -0.639,-4.407 -1.5,-5.122 -0.825,-0.685 -1.5,-0.83 -1.5,-0.322 m -38.216996,2.9 c -1.271,2.789 -0.305,5.431 2.288,6.259 0.966,0.308 0.812,-0.24 -0.476,-1.691 l -1.905,-2.146 h 3.548 c 3.851,0 5.569,-2.086 3.281,-3.984 -1.091,-0.906 -1.255,-0.721 -0.824,0.927 0.446,1.706 0.071,2.057 -2.195,2.057 -2.241,0 -2.639,-0.36 -2.21,-2 0.735,-2.812 -0.111,-2.488 -1.507,0.578 m 14.614996,-1.412 c -0.422,0.682 0.487,2.139 2.191,3.513 2.435,1.965 2.666,2.507 1.411,3.319 -1.049,0.68 -1.115,0.976 -0.219,0.987 2.519,0.03 2.597,-3.19 0.125,-5.106 -2.044,-1.584 -2.18,-2.014 -0.906,-2.856 1.295,-0.857 1.269,-0.994 -0.191,-1.008 -0.93,-0.008 -2.015,0.509 -2.411,1.151 m 36.802,0.034 c -1.9,1.9 -1.4,5.547 0.99,7.22 3.055,2.14 3.611,1.061 0.702,-1.362 l -2.392,-1.991 3.75,-0.034 c 3.034,-0.027 3.75,-0.404 3.75,-1.974 0,-1.068 -0.408,-2.193 -0.907,-2.501 -0.498,-0.309 -0.671,0.34 -0.383,1.441 0.429,1.641 0.032,2.001 -2.21,2.001 -2.241,0 -2.639,-0.36 -2.21,-2 0.61,-2.334 0.514,-2.404 -1.09,-0.8 m -34.45,23.489 c -0.963,0.252 -1.75,0.875 -1.75,1.384 0,1.162 0.266,1.157 3.505,-0.075 1.995,-0.758 2.981,-0.654 4.065,0.429 1.855,1.856 1.803,2.329 -0.32,2.884 -1.351,0.353 -1.251,0.483 0.441,0.573 3.041,0.161 3.84,-1.64 1.752,-3.947 -1.683,-1.86 -3.946,-2.227 -7.693,-1.248 m 7.806,8.221 c -0.693,1.121 0.364,4.09 1.457,4.09 0.44,0 0.564,0.9 0.277,2 -0.288,1.1 -0.947,2 -1.466,2 -0.518,0 -0.604,-0.562 -0.191,-1.25 0.535,-0.891 0.278,-0.867 -0.897,0.086 -0.907,0.735 -2.113,1.049 -2.681,0.698 -0.592,-0.366 -0.803,-0.04 -0.493,0.766 0.997,2.6 5.526,0.733 7.046,-2.905 1.585,-3.793 1.814,-5.61 0.431,-3.424 -0.512,0.809 -1.244,1.157 -1.627,0.774 -0.383,-0.383 -0.128,-1.383 0.568,-2.221 1.042,-1.255 0.989,-1.524 -0.299,-1.524 -0.859,0 -1.816,0.409 -2.125,0.91"
     stroke="none"
     fill="#ffe9f2"
     fill-rule="evenodd"
     id="path3"
     style="display:inline" /><path
     d="m 106.05859,80 c 0,1.642 0.672,2.003 3.75,2.015 4.759,0.02 5.506,0.547 8.143,5.749 l 2.162,4.263 -5.704,8.237 c -3.137,4.53 -6.836,9.742 -8.22,11.582 l -2.516,3.347 -0.868,-2.347 c -0.923,-2.49 -4.746996,-16.451 -4.746996,-17.328 0,-0.285 0.873,-0.518 1.941,-0.518 3.049996,0 3.616996,-2.13 1.106996,-4.162 -2.708996,-2.194 -12.192996,-2.573 -13.867996,-0.554 -1.427,1.719 -0.221,3.435 2.718,3.865 2.936,0.43 3.27,1.067 6.511,12.447 3.094,10.862 3.185,12.404 0.73,12.404 -1.295,0 -2.889,-2.05 -5.25,-6.75 -2.75,-5.478 -4.317,-7.315 -8.315,-9.75 -4.388,-2.672 -5.8,-3 -12.917,-3 -9.465052,0 -13.970847,4.32851 -15.656101,6.541 -4.5933,3.6749 -8.687899,16.52 -5.068899,22.731 2.550327,4.59988 -0.211612,2.48551 5.732,8.425 11.509,10.945 31.641,6.07 36.95,-8.947 l 1.855,-5.25 h 4.545 c 3.462996,0 4.894996,-0.495 6.014996,-2.078 0.809,-1.142 3.617,-5.08 6.241,-8.75 2.623,-3.669 5.548,-7.763 6.5,-9.095 0.951,-1.333 2.42,-3.286 3.263,-4.341 l 1.532,-1.917 1.362,2.545 c 1.275,2.382 1.133,2.776 -2.211,6.12 -14.09,14.09 -3.929,37.472 16.284,37.472 12.828,0 22.467,-9.421 22.463,-21.956 -0.002,-10.7563 -8.05921,-17.07888 -8.469,-17.17 -5.42317,-3.68834 -11.2987,-4.901261 -18.033,-4.303 l -4.538,0.603 -4.858,-9.315 c -6.565,-12.586 -6.801,-12.815 -13.22,-12.815 -4.678,0 -5.345,0.249 -5.345,2 m 29.25,23.676 c -1.238,0.255 -2.25,1.122 -2.25,1.927 0,2.52 4.731,10.838 6.915,12.155 2.456,1.483 2.707,4.477 0.556,6.628 -2.634,2.634 -6.426,0.184 -6.456,-4.169 -0.016,-2.43 -4.341,-11.682 -5.915,-12.655 -0.516,-0.319 -2.507,0.9 -4.425,2.708 -2.638,2.488 -3.658,4.433 -4.192,7.996 -0.846,5.644 -0.284,8.254 2.738,12.719 5.667,8.37 18.804,10.541 26.514,4.381 5.504,-4.398 7.449,-8.702 7.013,-15.518 -0.565,-8.833 -6.176,-14.966 -14.783,-16.156 -1.906,-0.263 -4.477,-0.27 -5.715,-0.016 m -72.069996,2.006 c -1.827,0.9 -4.527,3.218 -6,5.153 -2.287,3 -2.68,4.493 -2.677,10.172 0.002,5.751 0.384,7.156 2.809,10.336 8.471,11.106 26.904,7.851 30.711,-5.424 l 0.882,-3.074 -7.203,0.457 c -3.961,0.251 -8.4,0.78 -9.863,1.177 -2.098,0.568 -2.892,0.291 -3.747,-1.307 -2.12,-3.962 1.715,-7.416 5.804,-5.227 1.085,0.58 4.702,1.055 8.038,1.055 5.625,0 6.066,-0.164 6.062,-2.25 -0.015,-9.13 -15.098,-15.857 -24.816,-11.068"
     stroke="none"
     fill="#b5b5b5"
     fill-rule="evenodd"
     id="path5"
     sodipodi:nodetypes="ccccccccssccccsccscccccsccccccsscccccsccscscsccccsccccccccccccscc"
     style="display:inline" /><path
     d="m 88.615594,18.75 c 0.374,2.613 0.739,5.196 0.812,5.742 0.072,0.546 -2.794,1.975 -6.369,3.176 -3.575,1.201 -10.825,3.75 -16.11,5.664 l -9.611,3.481 -3.49,-3.491 -3.49,-3.49 -7.561,6.834 c -7.722,6.981 -9.18,9.892 -6.194,12.371 2.31,1.917 0.988,6.119 -5.173,16.447 -2.949,4.942 -5.48,9.343 -5.625,9.779 -0.146,0.436 -2.834,-0.054 -5.973,-1.09 l -5.709,-1.883 -2.465,6.605 c -4.341,11.634 -5.702,16.403 -4.891,17.142 0.436,0.397 2.432,1.245 4.437,1.885 2.004,0.64 3.804,1.932 4,2.871 0.195,0.939 0.217,7.444 0.048,14.457 l -0.307,12.75 -3.693,0.015 c -6.157,0.026 -6.606,0.757 -5.287,8.62 2.455,14.631 3.292,17.365 5.319,17.365 1.049,0 2.733,-0.442 3.743,-0.983 1.595,-0.853 2.739,0.424 8.684,9.692 3.767,5.871 6.999,11.041 7.183,11.488 0.184,0.447 -0.827,2.193 -2.246,3.88 -3.206,3.81 -2.866,4.562 6.446,14.271 l 6.859,7.152 3.126,-3.75 c 1.719,-2.063 3.524,-3.75 4.012,-3.75 0.487,0 5.672,3.66 11.521,8.133 11.339,8.672 11.205,8.44 8.957,15.489 -0.715,2.244 -1.082,2.113 17.806,6.344 4.165,0.933 4.123,0.976 5.145,-5.181 0.339,-2.043 1.078,-4 1.642,-4.349 0.565,-0.349 7.027996,-0.312 14.363996,0.08 l 13.338,0.715 1.235,4.41 c 0.679,2.426 1.572,4.619 1.985,4.874 0.651,0.403 21.733,-6.939 22.698,-7.905 0.199,-0.198 -0.376,-2.201 -1.276,-4.451 -0.9,-2.249 -1.476,-4.571 -1.281,-5.158 0.196,-0.587 5.232,-3.34 11.192,-6.118 11.726,-5.465 14.339,-5.687 16.628,-1.41 0.743,1.39 1.653,2.527 2.021,2.527 0.368,0 4.118,-3.789 8.333,-8.42 l 7.665,-8.42 -2.587,-3.075 c -1.423,-1.692 -2.437,-3.441 -2.253,-3.888 0.184,-0.447 3.416,-5.617 7.183,-11.488 5.945,-9.268 7.089,-10.545 8.684,-9.692 1.01,0.541 2.694,0.983 3.743,0.983 2.027,0 2.864,-2.734 5.319,-17.365 1.319,-7.863 0.87,-8.594 -5.287,-8.62 l -3.693,-0.015 -0.307,-12.75 c -0.169,-7.013 -0.147,-13.518 0.048,-14.457 0.196,-0.939 1.996,-2.231 4,-2.871 2.005,-0.64 4.001,-1.488 4.437,-1.885 0.811,-0.739 -0.55,-5.508 -4.891,-17.142 l -2.465,-6.605 -5.632,1.858 c -3.097,1.022 -5.693,1.744 -5.768,1.605 -0.075,-0.139 -3.151,-5.319 -6.836,-11.511 -3.685,-6.192 -6.7,-11.735 -6.7,-12.317 0,-0.582 1.133,-2.544 2.518,-4.359 l 2.517,-3.301 -4.267,-3.781 c -2.348,-2.079 -6.593,-5.964 -9.434,-8.632 l -5.166,-4.852 -3.168,4 c -2.065,2.607 -3.976,4 -5.488,4 -2.637,0 -30.434,-8.743 -32.105,-10.098 -0.721,-0.584 -0.826,-2.505 -0.309,-5.644 0.43,-2.617 0.81,-5.32 0.842,-6.008 0.046,-0.956 -4.187,-1.25 -18.001,-1.25 H 87.935594 l 0.68,4.75 m -0.395,38.222 c -15.487,4.183 -29.411,14.544 -38.341,28.528 -2.459,3.85 -4.744,7.9 -5.079,9 -0.335,1.1 -1.325,3.95 -2.2,6.334 -1.122,3.059 -1.597,7.912 -1.613,16.5 -0.024,12.585 1.162,19.234 4.924,27.605 l 1.995,4.438 -1.924,2.446 c -1.652,2.101 -1.924,4.116 -1.924,14.256 0,11.042 0.157,11.992 2.413,14.615 l 2.414,2.806 h 55.672996 55.673 l 2.512,-2.92 2.511,-2.92 -0.348,-12.152 c -0.284,-9.928 -0.668,-12.472 -2.098,-13.902 -2.116,-2.114 -2.111,-2.008 -0.265,-5.578 1.594,-3.082 3.885,-9.739 4.953,-14.392 1.286,-5.603 0.747,-22.133 -0.935,-28.675 -2.607,-10.142 -9.068,-21.394 -16.59,-28.893 -12.528,-12.491 -25.52,-18.087 -43.413,-18.7 -8.714996,-0.299 -12.524996,0.034 -18.337996,1.604 m -38.605,98.251 c -1.828,2.609 -2.212,18.685 -0.522,21.843 l 1.035,1.934 h 54.357996 c 48.645,0 54.422,-0.166 54.965,-1.582 1.15,-2.996 0.666,-21.959 -0.593,-23.218 -0.903,-0.903 -14.365,-1.2 -54.443,-1.2 H 51.171594 l -1.556,2.223"
     stroke="none"
     fill="#b1182e"
     fill-rule="evenodd"
     id="path6"
     sodipodi:nodetypes="ccsccccccccccccccccccsccsccccsccscccccccccccscccsccsccccccccccsssccccccscccsccccscccccscccccccccccccccscscsscc" /><text
     xml:space="preserve"
     style="font-style:normal;font-variant:normal;font-weight:300;font-stretch:normal;font-size:24px;font-family:raleway;-inkscape-font-specification:'raleway Light';text-align:start;writing-mode:lr-tb;direction:ltr;text-anchor:start;white-space:pre;fill:#ffffff;stroke:#ffffff;stroke-width:1.88976"
     id="text1"><textPath
       xlink:href="#path4"
       id="textPath4"
       style="font-style:normal;font-variant:normal;font-weight:250;font-stretch:normal;font-size:24px;font-family:raleway;-inkscape-font-specification:'raleway weight=250';fill:#ffffff;stroke:#ffffff">GOMPEI'S GEARS</textPath></text><path
     style="fill:none;stroke:none;stroke-width:1.88976"
     d="M 36.859426,106.55602 C 43.338518,68.522985 77.58934,48.084505 104.24115,48.459527 c 32.52116,0.457611 67.33369,24.151132 67.722,61.747943"
     id="path4"
     sodipodi:nodetypes="csc" /><text
     xml:space="preserve"
     style="font-style:normal;font-variant:normal;font-weight:250;font-stretch:normal;font-size:21.3333px;font-family:raleway;-inkscape-font-specification:'raleway weight=250';text-align:start;writing-mode:lr-tb;direction:ltr;text-anchor:start;fill:none;stroke:none;stroke-width:1.88976"
     x="50.469383"
     y="173.94189"
     id="text4"><tspan
       sodipodi:role="line"
       id="tspan4"
       x="50.469383"
       y="173.94189"
       style="font-style:normal;font-variant:normal;font-weight:bold;font-stretch:normal;font-size:21.3333px;font-family:raleway;-inkscape-font-specification:'raleway Bold';fill:#ffffff;fill-opacity:1">Bike Share</tspan></text><g
     style="fill:#000000"
     id="g1"
     transform="matrix(0.41242518,0,0,0.41242518,92.680634,185.38184)"><path
       d="m 48.68,38.71 c 8.06,-8.06 10,-34.59 10,-34.59 A 40.94,40.94 0 0 1 44.41,7.73 C 36.16,8.43 28.52,9.6 24,14.08 17.13,21 15.4,30.82 19.34,37.77 23.66,31 41.47,21.29 41.47,21.29 28.69,30.43 14,47.78 13.41,50 c -0.59,2.22 3.64,2.3 4.3,1.15 0.66,-1.15 3.2,-5.78 6,-8.57 6.97,4.95 17.62,3.49 24.97,-3.87 z"
       id="path1-3"
       style="fill:#ffffff" /></g></svg>
