<?xml version="1.0" encoding="UTF-8" standalone="no"?>
<svg
   width="240"
   height="240"
   viewBox="0 0 240 240"
   version="1.1"
   id="svg7"
   sodipodi:docname="icon-white.svg"
   inkscape:version="1.4 (e7c3feb100, 2024-10-09)"
   xml:space="preserve"
   xmlns:inkscape="http://www.inkscape.org/namespaces/inkscape"
   xmlns:sodipodi="http://sodipodi.sourceforge.net/DTD/sodipodi-0.dtd"
   xmlns:xlink="http://www.w3.org/1999/xlink"
   xmlns="http://www.w3.org/2000/svg"
   xmlns:svg="http://www.w3.org/2000/svg"><defs
     id="defs7" /><sodipodi:namedview
     id="namedview7"
     pagecolor="#adadad"
     bordercolor="#000000"
     borderopacity="0.25"
     inkscape:showpageshadow="2"
     inkscape:pageopacity="0.0"
     inkscape:pagecheckerboard="true"
     inkscape:deskcolor="#d1d1d1"
     inkscape:zoom="2.6662914"
     inkscape:cx="81.0114"
     inkscape:cy="121.32957"
     inkscape:window-width="1707"
     inkscape:window-height="932"
     inkscape:window-x="0"
     inkscape:window-y="0"
     inkscape:window-maximized="1"
     inkscape:current-layer="svg7" /><path
     id="path7"
     style="display:inline;fill:#ffffff;fill-opacity:1;stroke:none;stroke-width:2.09051"
     d="M 94.177794,0 94.728795,13.150656 64.900982,23.286409 56.616443,13.697255 29.827813,38.356616 37.559182,46.30167 25.684458,65.753278 12.427894,61.643025 1.1041718,96.16484 12.978895,101.37044 V 124.9323 L 0,128.21836 l 8.8377106,35.06841 7.1803674,-1.9174 13.809735,20.00036 -7.458038,8.4938 25.133458,25.47926 7.455868,-9.58915 20.714603,15.06805 -3.592353,10.95996 30.934159,7.3963 2.7615,-12.32861 25.95996,0.82206 L 137.26,240 l 33.14249,-10.9578 -4.41885,-11.78201 21.81878,-9.58916 6.07619,8.49381 24.02711,-27.12336 -6.62936,-5.4789 12.4279,-20.00036 9.11538,4.1081 7.18036,-39.17651 -12.1524,-1.6441 0.55318,-23.56187 10.49505,-5.478898 -11.60139,-32.055664 -12.9789,4.110252 -13.25657,-21.64446 7.45587,-9.040403 L 182.83038,15.616808 172.8885,25.75256 140.02152,15.341356 142.50753,0.27329964 Z M 115.7189,54.657748 A 65.178372,64.65765 0 0 1 180.89755,119.31568 65.178372,64.65765 0 0 1 115.7189,183.9736 65.178372,64.65765 0 0 1 50.540246,119.31568 65.178372,64.65765 0 0 1 115.7189,54.657748 Z" /><path
     d="M 96.627536,1.1268036 C 94.266232,1.992823 94.111847,2.4886357 93.996337,9.5732473 l -0.07886,4.8303167 -9.167547,3.034373 c -7.724775,2.55619 -14.913091,5.435209 -18.266232,7.314889 -0.427611,0.239092 -2.382407,-1.313352 -4.343866,-3.451957 -4.21836,-4.598938 -7.404899,-4.922869 -11.08569,-1.129351 -1.47054,1.517186 -3.872939,3.871746 -5.339036,5.233578 -10.052758,9.34111 -12.690138,13.468244 -12.690138,14.578864 0,1.189951 2.722902,-2.35543 14.316173,-13.356962 2.642306,-2.50771 4.498251,-4.862269 4.125063,-5.233578 -0.374299,-0.371308 0.153273,-0.736006 1.170656,-0.81203 1.018493,-0.07602 2.466818,-0.199427 3.217638,-0.275452 0.751929,-0.07603 2.680069,1.22631 4.285,2.89224 1.606042,1.667033 3.650803,3.029967 4.5449,3.029967 2.522352,0 11.98534,-3.196339 18.126286,-6.122736 3.054368,-1.455485 6.629644,-2.802994 7.943578,-2.99581 4.44716,-0.650065 6.159827,-3.053104 5.756651,-8.079542 -0.264342,-3.2910941 0.124396,-4.9592281 1.329483,-5.7062525 0.954073,-0.5905679 9.949464,-0.9464512 20.442054,-0.8087255 16.94896,0.2225648 18.88932,0.4462314 20.31099,2.3391338 1.02627,1.3651375 1.3528,3.5004372 0.93963,6.1447712 -0.77636,4.965839 0.94075,6.965617 7.46932,8.696554 2.569,0.682017 5.17021,1.62296 5.78109,2.091227 0.61087,0.468268 3.85961,1.473115 7.21941,2.232259 3.35981,0.759144 7.45377,1.863153 9.09646,2.45262 2.50014,0.895768 3.62304,0.590568 6.87622,-1.870867 2.13917,-1.618553 4.07397,-3.491622 4.29833,-4.16152 0.26101,-0.77457 1.19509,-0.879241 2.56456,-0.288674 1.18509,0.511238 2.5068,0.971793 2.93774,1.02468 0.43095,0.05178 2.75449,1.830099 5.16355,3.951076 2.40907,2.120976 6.63298,5.736001 9.38524,8.034368 4.97696,4.153808 5.6267,5.812026 3.39535,8.656888 -1.68601,2.149624 -2.57678,5.023133 -1.79597,5.796601 1.11623,1.108417 4.7115,-5.203829 4.71928,-8.286682 0.007,-2.250989 -2.42795,-5.059492 -11.20231,-12.923081 -12.48626,-11.18994 -14.34887,-11.754064 -18.55612,-5.617006 -1.40501,2.049359 -3.04438,4.025999 -3.64414,4.394002 -0.95185,0.583957 -25.41457,-6.702285 -29.89838,-8.905897 -1.21175,-0.594975 -1.58605,-2.306079 -1.3728,-6.26597 C 142.45749,0.93839482 141.46899,0.5384393 118.27245,0.42825871 107.55329,0.37757564 97.812629,0.69159031 96.627534,1.1268036 M 35.432438,40.15497 c -1.70045,1.895107 -4.375228,-3.035521 -0.02666,3.702068 4.377377,2.222052 0.725721,5.363978 0.14597,7.830927 -3.189083,5.157033 -2.251329,4.605013 -4.387654,8.145258 -3.465809,5.743423 -0.953735,7.932873 -10.528129,5.968482 l -6.370856,-1.413617 -2.07697,2.680694 c -1.142889,1.474216 -2.089188,3.796823 -2.102516,5.159757 -0.01333,1.362934 -0.4109517,2.479063 -0.8829904,2.479063 -0.4720387,0 -2.0580887,3.595192 -3.5241854,7.988092 -1.4660966,4.3929 -3.0788029,8.458564 -3.584162,9.034808 -2.65452349,3.025559 2.3057702,8.318638 7.7947472,8.318638 1.2439606,0 2.5245736,0.41978 2.8444496,0.93323 0.856334,1.37505 0.972955,8.48721 0.282113,17.24657 l -0.607542,7.71264 -3.9118124,0.33935 c -3.5341815,0.30741 -3.986228,0.7294 -4.6748491,4.37417 -0.4198368,2.21794 -0.2732271,9.3951 0.3243183,15.94974 0.9429667,10.33053 1.4105627,12.1408 3.5197427,13.6062 1.3383685,0.92883 2.1447217,2.15183 1.793747,2.71595 -0.3520853,0.56523 0.1399456,1.02689 1.0917975,1.02689 2.345755,0 2.188038,-0.8517 -0.9040927,-4.87219 -2.7356031,-3.55773 -3.7529853,-8.03437 -4.7459326,-20.8693 -0.6641862,-8.58417 -0.124396,-9.54274 5.9365813,-10.53878 l 4.221691,-0.69303 -0.13106,-13.50373 C 14.855994,106.04957 14.497241,99.675624 14.131827,99.312028 13.765303,98.949534 12.114834,98.505507 10.462143,98.32481 4.8843116,97.717715 3.8669293,91.74152 7.7565282,82.420243 c 1.1373356,-2.72697 2.9466318,-7.064779 4.0206588,-9.640801 2.061421,-4.942701 2.307992,-5.049577 11.056812,-4.793958 l 5.553397,0.163068 6.386406,-10.379011 c 6.63964,-10.789985 9.077041,-12.365717 6.484715,-13.846544 -0.847448,-0.484795 -2.707289,-1.989706 -2.928315,-3.116854 l 0.161689,-3.910954 -3.059456,3.259781 M 201.77109,51.874879 c 0.99629,1.953502 3.87516,6.907221 6.39973,11.008143 l 4.58933,7.457022 5.55339,-0.156457 c 8.75328,-0.246804 8.9954,-0.142133 11.05682,4.799466 1.07402,2.576022 2.88332,6.913832 4.02066,9.640802 3.88959,9.321277 2.87221,15.297472 -2.70562,15.904565 -1.65269,0.1807 -3.30316,0.62473 -3.66968,0.98722 -0.36542,0.3636 -0.72417,6.73754 -0.79636,14.16482 l -0.13106,13.50373 4.22169,0.69304 c 6.06098,0.99603 6.60077,1.9546 5.93658,10.53877 -0.99295,12.83494 -2.01033,17.31157 -4.74593,20.8693 -4.92709,2.42337 -4.70524,5.19565 0.1877,3.84531 4.00683,-4.41246 4.72183,-10.09025 5.31349,-16.32216 0.59755,-6.55464 0.74416,-13.7318 0.32432,-15.94974 -0.68861,-3.64477 -1.14067,-4.06676 -4.67485,-4.37417 l -3.91181,-0.33935 -0.60754,-7.71264 c -0.69084,-8.75936 -0.57422,-15.87152 0.28211,-17.24657 0.31988,-0.51344 1.60049,-0.93323 2.84445,-0.93323 5.48898,0 10.44927,-5.293077 7.79475,-8.318636 -0.50536,-0.576244 -2.11807,-4.641908 -3.58416,-9.034808 -1.4661,-4.3929 -3.05215,-7.988092 -3.52419,-7.988092 -0.47204,0 -0.86966,-1.11613 -0.88299,-2.479064 -0.0133,-1.362933 -0.95963,-3.68554 -2.10252,-5.159756 l -2.07697,-2.680694 -6.37085,1.413617 c -6.51969,1.447773 -8.23902,0.866019 -8.29011,-2.804096 -0.009,-0.68312 -0.7175,-1.819081 -1.57495,-2.525339 -0.85744,-0.705156 -2.86999,-3.941159 -4.47159,-7.189283 -1.60271,-3.249226 -3.65636,-6.189945 -4.56378,-6.534811 -1.40279,-0.534375 -1.37835,-0.09586 0.15994,2.923091 m -92.14416,-0.647862 c -0.29656,0.294183 -2.67786,0.739312 -5.29128,0.989422 -2.61455,0.25011 -5.252407,0.949757 -5.864391,1.556852 -0.610874,0.605993 -2.410174,1.101806 -3.998446,1.101806 -1.588271,0 -3.479758,0.587262 -4.20281,1.304538 -0.724163,0.718377 -2.203588,1.370646 -3.287611,1.449976 -2.676737,0.19502 -17.684235,11.362924 -22.551232,16.781605 -2.166935,2.412955 -3.722997,5.078223 -3.457545,5.922207 0.265453,0.845085 0.09996,1.183339 -0.367634,0.751431 -0.467596,-0.431908 -2.193592,1.932568 -3.834065,5.25341 -1.641584,3.319742 -3.368691,5.656672 -3.837397,5.19171 -0.468707,-0.466064 -0.715278,-0.350375 -0.548676,0.255619 0.513134,1.858746 -1.35725,8.315327 -2.250236,7.767731 -0.462043,-0.283164 -0.917421,1.572276 -1.01294,4.121856 -0.09441,2.55068 -0.739712,6.00815 -1.432776,7.684 -1.983673,4.79726 -0.595324,18.918 2.787805,28.35497 1.629367,4.54495 3.225413,9.73556 3.545288,11.53591 0.320987,1.79925 0.841895,3.52798 1.157328,3.84199 0.316544,0.31292 27.153887,0.58066 59.640138,0.59278 32.48626,0.0132 59.81563,0.26773 60.73194,0.56632 0.91631,0.29749 2.0592,1.0368 2.54012,1.6428 0.48093,0.60599 0.55646,-0.72279 0.16883,-2.95284 -0.47758,-2.7413 -0.14438,-5.0595 1.02849,-7.16174 3.59305,-6.44116 5.84106,-17.2047 5.71111,-27.34682 -0.15994,-12.56941 -2.12916,-23.787994 -4.39496,-25.046256 -0.9463,-0.525561 -1.72155,-1.708901 -1.72155,-2.631112 0,-0.92111 -1.43056,-3.747242 -3.17988,-6.280294 -1.74932,-2.533051 -3.49864,-5.597173 -3.88959,-6.80916 -0.92409,-2.871306 -7.62815,-9.843533 -11.83651,-12.309375 -1.8193,-1.066548 -3.30761,-2.327014 -3.30761,-2.802994 0,-0.474878 -0.7497,-0.863816 -1.66602,-0.863816 -0.91631,0 -1.66601,-0.482591 -1.66601,-1.073158 0,-1.246143 -6.20204,-4.694795 -9.40746,-5.231375 -1.20286,-0.20163 -4.87699,-1.587702 -8.16571,-3.081751 -4.49159,-2.039442 -8.41672,-2.826132 -15.7883,-3.163284 -5.39568,-0.246805 -10.05275,-0.20714 -10.35041,0.08704 m -1.79264,2.216834 c -3.34092,0.253415 -6.58966,0.837372 -7.21942,1.295724 -0.628645,0.459453 -4.142834,1.770602 -7.808076,2.915378 -3.665241,1.144776 -7.663687,2.887833 -8.885434,3.875051 -1.221747,0.986116 -4.470484,3.070733 -7.219415,4.633094 -2.748932,1.561258 -6.298663,4.246359 -7.888045,5.96738 -5.261287,5.694133 -15.587273,22.836028 -17.148888,28.469564 -1.482757,5.34706 -1.579386,6.09629 -2.27245,17.6289 l -0.661964,11.01805 3.897373,11.56897 3.896263,11.56896 58.551676,0.28536 c 66.22869,0.32283 59.89671,1.23182 63.36425,-9.09981 1.01738,-3.02997 2.37241,-6.1635 3.01328,-6.96341 0.66418,-0.82966 1.13623,-6.74085 1.09845,-13.77258 -0.09,-17.13859 -0.65086,-22.71924 -2.39017,-23.784683 -0.82412,-0.505729 -1.82929,-2.346847 -2.23358,-4.092107 -0.88854,-3.841997 -13.55806,-23.397949 -15.21852,-23.490501 -0.64976,-0.03526 -2.61676,-1.552445 -4.37275,-3.370424 -1.75598,-1.81798 -3.81962,-3.305418 -4.5871,-3.305418 -0.76748,0 -2.04921,-0.913397 -2.84667,-2.030628 -0.79858,-1.117231 -2.70118,-2.311589 -4.22836,-2.655352 -1.52718,-0.342662 -6.27534,-1.867561 -10.55145,-3.389155 -8.1535,-2.899953 -18.07409,-4.046933 -28.289,-3.272363 M 14.370628,161.35802 c -1.342811,1.60644 -1.24285,1.72653 0.885212,1.05553 1.807075,-0.56853 2.571222,-0.22256 3.089909,1.39709 0.378742,1.18444 2.04365,3.84531 3.699673,5.9134 1.654912,2.06808 3.941801,5.47817 5.080247,7.57822 l 2.071417,3.81775 -2.271339,4.20449 c -1.83151,3.38806 -2.035875,4.71463 -1.059588,6.84222 0.666407,1.44998 1.55384,2.63772 1.970345,2.63772 0.417615,0 3.210974,3.0476 6.208697,6.7728 3.33537,4.145 7.172767,7.55509 9.89171,8.78911 l 4.442717,2.0174 2.77892,-3.31864 c 2.585661,-3.08615 3.031043,-3.23159 6.386405,-2.07139 1.984784,0.68643 3.607487,1.67915 3.607487,2.20692 0,0.52776 2.874438,3.03657 6.386406,5.57624 3.511967,2.53856 6.560782,4.75209 6.775143,4.91846 0.213251,0.16637 -0.217693,2.12428 -0.958516,4.34993 -2.204698,6.62846 -0.273227,8.80453 9.30305,10.47927 4.359416,0.76245 10.667063,2.63171 14.637742,2.69011 l 6.774395,0.73642 2.5852,-6.51158 c 1.84039,-5.28096 2.1525,-5.35258 17.03448,-3.95879 l 7.55929,0.70846 2.18137,4.24195 2.18249,4.24195 5.2524,-0.0143 c 3.02216,-0.009 9.26417,-1.44447 14.69428,-3.38034 5.19243,-1.85103 10.31488,-3.63706 11.38447,-3.96981 2.3824,-0.74151 2.46459,-3.24922 0.27878,-8.43873 l -1.66491,-3.95328 2.47459,-1.31335 c 1.3617,-0.72278 3.14656,-1.97994 3.96624,-2.79308 0.81968,-0.81313 2.32909,-1.48082 3.35425,-1.48303 1.02627,-0.002 3.50086,-0.99383 5.50119,-2.20361 4.84923,-2.9319 6.4997,-2.77655 8.77437,0.83076 1.05181,1.66593 2.00811,3.18312 2.12695,3.37043 0.11884,0.1862 1.94702,-0.37792 4.06287,-1.25496 4.33498,-1.79594 11.41445,-8.36711 12.42739,-11.5337 0.36763,-1.15029 1.89482,-2.64544 3.39423,-3.32305 3.74966,-1.69458 4.65264,-6.06654 2.19137,-10.60158 l -1.98145,-3.64918 2.60343,-4.2706 c 1.43278,-2.34905 3.72633,-5.63133 5.09913,-7.29505 1.37169,-1.66263 2.81891,-4.03812 3.21653,-5.27876 0.54423,-1.70339 1.3106,-2.08131 3.131,-1.54032 2.20803,0.65447 2.26357,0.56302 0.66308,-1.0963 -2.28911,-2.37439 -5.2935,-1.17342 -6.21869,2.48568 -0.39985,1.57889 -1.66602,3.87174 -2.81335,5.09365 -1.14845,1.2219 -3.37647,4.40391 -4.95252,7.07139 l -2.86445,4.84904 1.77265,3.68885 c 0.97518,2.02842 1.44388,4.56478 1.04182,5.63574 -0.86633,2.30718 -16.27146,17.92528 -17.67869,17.92307 -0.53423,-0.001 -2.40906,-1.22741 -4.16615,-2.72697 -3.8063,-3.24702 -4.62154,-3.16438 -14.27668,1.45108 -4.11173,1.96452 -7.73477,3.55112 -8.05242,3.52688 -0.31765,-0.0253 -1.49831,0.82085 -2.62342,1.88189 -1.40612,1.32547 -1.75377,2.50881 -1.11068,3.7836 1.15955,2.30057 1.2384,10.78447 0.10218,10.90016 -2.68785,0.27105 -5.90104,1.17783 -13.61471,3.842 -10.50147,3.62604 -13.39146,3.16439 -16.69573,-2.66857 l -2.40351,-4.24306 -11.71322,-0.71066 c -11.80319,-0.71618 -15.49397,0.097 -14.3111,3.15557 0.6653,1.71882 -3.71633,6.50175 -6.368636,6.9535 -1.141778,0.19501 -4.390515,-0.17409 -7.219415,-0.81865 -2.828901,-0.64565 -7.106126,-1.36513 -9.505194,-1.60092 -5.596713,-0.5487 -7.497085,-3.10269 -7.073916,-9.50308 0.181041,-2.72697 -0.0933,-5.03415 -0.607542,-5.1256 -0.515355,-0.0926 -2.264675,-1.37064 -3.887377,-2.84045 -5.004721,-4.53173 -14.268897,-10.76465 -16.000446,-10.76465 -0.905203,0 -2.915533,0.99163 -4.469373,2.20362 -1.55273,1.21198 -3.346477,2.20361 -3.985118,2.20361 -2.603432,0 -6.645194,-2.60247 -7.739213,-4.98457 -0.640862,-1.39489 -2.169156,-2.85368 -3.397568,-3.23931 -1.2273,-0.38673 -2.565669,-1.79374 -2.974399,-3.12582 -0.407619,-1.33319 -1.97923,-3.42993 -3.493086,-4.66064 l -2.750042,-2.23667 2.466819,-5.03856 2.467929,-5.03856 -2.872217,-4.86226 c -1.580496,-2.67409 -3.892931,-5.94865 -5.140223,-7.27743 -1.247293,-1.32768 -2.268007,-3.14345 -2.268007,-4.03481 0,-1.72764 -2.895541,-5.08264 -4.386073,-5.08264 -0.492031,0 -1.577165,0.81534 -2.411285,1.81137"
     stroke="none"
     fill="#bab3b0"
     fill-rule="evenodd"
     id="path1"
     sodipodi:nodetypes="ccccccccscccccsccccccccsscscccscsccccccccccccscccssscsccccccccsccccccccccccccccccccccccccccccccccccscsssccccccccccssscccsccccccsccccsccccssccsssccscccsccccccccsccccccssccccccccccccscccccscccccccccccccccccsscccccscccccccccccccccccccccccscccccccscscccccccccssc"
     style="display:none;stroke-width:1.10624" /><path
     d="m 97.754875,3.491279 c -1.061809,0.8219471 -1.501638,2.7963832 -1.282834,5.7536301 0.358749,4.8600659 -1.362804,7.2278469 -5.717777,7.8646899 -1.313934,0.192816 -4.88921,1.540325 -7.943578,2.99581 -6.140946,2.926397 -15.603934,6.122736 -18.126286,6.122736 -0.894097,0 -2.938858,-1.362934 -4.5449,-3.029967 -1.604931,-1.66593 -3.533071,-2.968265 -4.285,-2.89224 -0.75082,0.07602 -2.199145,0.199427 -3.217638,0.275452 -1.017383,0.07602 -1.544955,0.440722 -1.170656,0.81203 0.660854,0.655575 -4.067308,5.529964 -13.471429,13.890467 -2.535681,2.253193 -4.609319,4.68598 -4.609319,5.404357 0,0.778977 0.897428,0.501322 2.221358,-0.687526 l 2.221359,-1.994269 v 2.374392 c 0,1.30564 0.516466,2.374391 1.146221,2.374391 0.630866,0 1.598267,1.11613 2.151386,2.479063 1.434174,3.54052 1.727758,-0.626905 -0.520909,-2.479063 -3.265397,-2.688406 -1.613817,-5.929919 6.928417,-13.589673 l 8.397846,-7.529741 3.876271,3.845302 3.876271,3.846404 10.674738,-3.835386 c 5.86994,-2.108856 13.922365,-4.917359 17.893044,-6.240628 3.970678,-1.323269 7.153885,-2.89775 7.073916,-3.499336 -0.08108,-0.601586 -0.486478,-3.44755 -0.901872,-6.3265687 L 97.668243,4.1920275 h 20.061087 c 15.34292,0 20.04443,0.3239309 19.99334,1.3772573 -0.0356,0.7580424 -0.4576,3.7362237 -0.9352,6.6196492 -0.57422,3.458569 -0.4576,5.575138 0.3432,6.218593 1.85595,1.492947 32.7295,11.126035 35.65836,11.126035 1.67935,0 3.80186,-1.534815 6.09541,-4.407223 l 3.51863,-4.407224 5.73777,5.363591 c 9.85061,9.209995 13.72022,12.243267 14.55545,11.413607 1.71489,-1.701188 -0.0566,2.67849 -2.43127,6.011453 -1.37503,1.929262 -2.49903,4.032609 -2.49903,4.67386 0,0.641251 3.3487,6.748561 7.44155,13.570943 4.09285,6.822382 7.48487,12.504394 7.53707,12.627797 0.26767,0.62252 11.67768,-3.263549 11.67768,-3.97752 0,-0.459453 -2.62454,-0.651167 -5.83107,-0.425297 l -5.83106,0.40877 -4.58933,-7.48016 c -6.28533,-10.245692 -8.69106,-15.08262 -6.97618,-14.031497 0.94186,0.577346 1.18843,0.328338 0.76304,-0.773468 -0.34653,-0.893564 0.29766,-3.578665 1.43056,-5.965177 l 2.0592,-4.338911 -4.31499,-3.856321 C 193.3055,26.947624 186.4515,21.27112 185.71623,21.175263 c -0.39763,-0.05289 -1.69268,-0.513442 -2.87777,-1.02468 -1.36947,-0.590567 -2.30355,-0.485896 -2.56456,0.288674 -0.22436,0.669898 -2.15916,2.542967 -4.29833,4.16152 -3.25318,2.461435 -4.37608,2.766635 -6.87622,1.870867 -1.64269,-0.589467 -5.73665,-1.693476 -9.09646,-2.45262 -3.3598,-0.759144 -6.60854,-1.763991 -7.21941,-2.232259 -0.61088,-0.468267 -3.21209,-1.40921 -5.78109,-2.091227 -6.52857,-1.730937 -8.24568,-3.730715 -7.46932,-8.696554 0.41206,-2.6399268 0.0866,-4.7796337 -0.93519,-6.1381604 C 137.18287,2.9767356 135.20364,2.7486618 118.20137,2.5062645 105.44411,2.3255684 98.850005,2.6428885 97.754875,3.491279 m -63.267624,54.717882 -6.09985,9.995583 -5.831066,-0.419788 c -3.207642,-0.231379 -5.831067,-0.04517 -5.831067,0.414279 0,1.124944 11.586607,4.44799 11.945356,3.425514 0.155495,-0.444028 3.058811,-5.421986 6.451936,-11.063232 10.384105,-14.184842 7.371341,-22.047139 -0.635309,-2.352356 m 63.497535,-6.670332 c -17.20109,4.608853 -32.666188,16.024664 -42.584554,31.432317 -2.731161,4.241952 -5.269063,8.704266 -5.64114,9.916252 -0.372078,1.211987 -1.47165,4.352134 -2.443495,6.978839 -1.246182,3.370423 -1.773755,8.717483 -1.791525,18.179803 -0.02666,13.86622 1.290609,21.19213 5.468984,30.41535 l 2.215805,4.88981 -2.136946,2.69502 c -1.834843,2.31489 -2.136947,4.53503 -2.136947,15.70734 0,12.16614 0.174376,13.21286 2.680069,16.10289 l 2.681179,3.09167 h 61.834844 61.83485 l 2.79002,-3.21727 2.78892,-3.21727 -0.38652,-13.38915 c -0.31543,-10.93873 -0.74193,-13.74172 -2.3302,-15.3173 -2.3502,-2.32922 -2.34465,-2.21243 -0.29433,-6.14588 1.77042,-3.39576 4.31499,-10.73048 5.50119,-15.85719 1.42834,-6.17342 0.82968,-24.38627 -1.03848,-31.59428 C 182.10097,91.035263 174.92487,78.637743 166.57034,70.375301 152.65575,56.612644 138.2258,50.446939 118.35242,49.771532 c -9.67957,-0.32944 -13.91126,0.03746 -20.367634,1.767297 m 11.642144,-0.311812 c -0.29656,0.294183 -2.67785,0.739312 -5.29128,0.989422 -2.61454,0.25011 -5.252402,0.949757 -5.864386,1.556852 -0.610874,0.605993 -2.410174,1.101806 -3.998446,1.101806 -1.588271,0 -3.479758,0.587262 -4.20281,1.304538 -0.724163,0.718377 -2.203588,1.370646 -3.287611,1.449976 -2.676737,0.19502 -17.684235,11.362924 -22.551232,16.781605 -2.166935,2.412955 -3.722997,5.078223 -3.457545,5.922207 0.265453,0.845085 0.09996,1.183339 -0.367634,0.751431 -0.467596,-0.431908 -2.193592,1.932568 -3.834065,5.25341 -1.641584,3.319742 -3.368691,5.656672 -3.837397,5.19171 -0.468707,-0.466064 -0.715278,-0.350375 -0.548676,0.255619 0.513134,1.858746 -1.35725,8.315327 -2.250236,7.767731 -0.462043,-0.283164 -0.917421,1.572276 -1.01294,4.121856 -0.09441,2.55068 -0.739712,6.00815 -1.432776,7.684 -1.983673,4.79726 -0.595324,18.918 2.787805,28.35497 1.629367,4.54495 3.225413,9.73556 3.545288,11.53591 0.320987,1.79925 0.841895,3.52798 1.157328,3.84199 0.316544,0.31292 27.153887,0.58066 59.640143,0.59278 32.48626,0.0132 59.81563,0.26773 60.73194,0.56632 0.91631,0.29749 2.0592,1.0368 2.54012,1.6428 0.48093,0.60599 0.55646,-0.72279 0.16883,-2.95284 -0.47759,-2.7413 -0.14439,-5.0595 1.02849,-7.16174 3.59304,-6.44116 5.84106,-17.2047 5.71111,-27.34682 -0.15994,-12.56941 -2.12917,-23.787994 -4.39496,-25.046256 -0.9463,-0.525561 -1.72155,-1.708901 -1.72155,-2.631112 0,-0.92111 -1.43056,-3.747242 -3.17988,-6.280294 -1.74932,-2.533051 -3.49864,-5.597173 -3.88959,-6.80916 -0.92409,-2.871306 -7.62815,-9.843533 -11.83651,-12.309375 -1.8193,-1.066548 -3.30761,-2.327014 -3.30761,-2.802994 0,-0.474878 -0.7497,-0.863816 -1.66602,-0.863816 -0.91631,0 -1.66601,-0.482591 -1.66601,-1.073158 0,-1.246143 -6.20204,-4.694795 -9.40746,-5.231375 -1.20286,-0.20163 -4.87699,-1.587702 -8.16571,-3.081751 -4.49159,-2.039442 -8.41673,-2.826132 -15.78831,-3.163284 -5.39568,-0.246805 -10.05275,-0.20714 -10.35041,0.08704 M 11.777192,72.779442 c -1.074027,2.576022 -2.8833232,6.913831 -4.0206588,9.640801 -3.8895989,9.321277 -2.8722166,15.297472 2.7056148,15.904567 1.652691,0.180697 3.30316,0.624724 3.669684,0.987218 0.365414,0.363596 0.724163,6.737542 0.796357,14.164822 l 0.13106,13.50373 -4.221691,0.69303 c -6.0609773,0.99604 -6.6007675,1.95461 -5.9365813,10.53878 1.0018328,12.95723 2.0169936,17.31928 4.9014277,21.07203 2.5590046,3.32746 2.9499646,3.48722 4.6970626,1.91935 2.4857,-2.23226 5.390127,-1.05333 6.303105,2.5595 0.399845,1.57888 1.666019,3.87174 2.813351,5.09364 1.148442,1.22191 3.379797,4.41053 4.960293,7.08462 l 2.872217,4.86226 -2.467929,5.03856 -2.466819,5.03856 2.750042,2.23667 c 1.513856,1.23071 3.068807,3.27787 3.457544,4.54935 0.388738,1.27149 1.903705,2.85258 3.365359,3.51366 1.462764,0.66109 2.962181,2.14852 3.332038,3.30542 0.635308,1.98435 4.900316,4.64191 7.449325,4.64191 0.638641,0 2.432388,-0.99163 3.985118,-2.20361 1.55384,-1.21199 3.56417,-2.20362 4.469373,-2.20362 1.731549,0 10.995725,6.23292 16.000446,10.76465 1.622702,1.46981 3.372022,2.7479 3.887377,2.84045 0.514245,0.0914 0.788583,2.39863 0.607542,5.1256 -0.437608,6.61855 1.456101,8.98854 7.641473,9.56698 2.69784,0.25232 6.65408,0.92662 8.792138,1.49956 4.92142,1.31776 7.77475,1.33539 7.77475,0.0485 0,-0.55311 -2.123614,-1.342 -4.720382,-1.75407 -2.596768,-0.41098 -7.883602,-1.51719 -11.750987,-2.45593 -6.338647,-1.54032 -6.956184,-1.93587 -6.282002,-4.03151 2.492364,-7.74569 2.637863,-7.49889 -9.952797,-17.05044 -6.496363,-4.92838 -12.255235,-8.96099 -12.796136,-8.96099 -0.542012,0 -2.546788,1.85985 -4.456046,4.13177 l -3.471983,4.13177 -7.618149,-7.88011 c -10.342646,-10.69743 -10.720277,-11.52599 -7.159439,-15.72387 1.576054,-1.85875 2.698951,-3.7825 2.494586,-4.27501 -0.204365,-0.49251 -3.794081,-6.18884 -7.978009,-12.65754 -6.602989,-10.21154 -7.873606,-11.61855 -9.645139,-10.67871 -1.121786,0.59608 -2.99217,1.08308 -4.157273,1.08308 -2.251347,0 -3.1809854,-3.01234 -5.907703,-19.13286 -1.464986,-8.6635 -0.966291,-9.46892 5.872161,-9.49757 l 4.101739,-0.0165 0.340978,-14.04803 c 0.187705,-7.72696 0.16327,-14.89421 -0.05331,-15.928807 C 16.668626,98.786467 14.669403,97.362934 12.443602,96.657778 10.21669,95.952622 7.9886671,95.008375 7.4933042,94.558838 6.7635879,93.897754 11.470647,78.615707 15.049255,70.024927 c 0.442051,-1.061039 0.325429,-1.92816 -0.257677,-1.92816 -0.583107,0 -1.939246,2.106653 -3.014384,4.682675 M 226.0983,72.228539 c 3.57861,8.59078 8.28567,23.872827 7.55596,24.533911 -0.49537,0.449536 -2.72339,1.393784 -4.9503,2.09894 -2.2258,0.705156 -4.22503,2.12869 -4.44272,3.16328 -0.21658,1.0346 -0.24102,8.20185 -0.0533,15.92881 l 0.34098,14.04803 4.10174,0.0165 c 6.83845,0.0286 7.33714,0.83406 5.87216,9.49756 -2.72672,16.12052 -3.65636,19.13286 -5.90771,19.13286 -1.1651,0 -3.03548,-0.487 -4.15727,-1.08307 -1.77153,-0.93985 -3.04215,0.46716 -9.64514,10.6787 -4.18393,6.4687 -7.77364,12.16504 -7.97801,12.65754 -0.20436,0.49251 0.92187,2.41957 2.50236,4.28382 l 2.87333,3.38806 -8.51336,9.2772 c -4.68151,5.10247 -8.84656,9.27721 -9.25529,9.27721 -0.40873,0 -1.41944,-1.25276 -2.24468,-2.78427 -2.54234,-4.71242 -5.44455,-4.46782 -18.46837,1.55355 -6.61965,3.06082 -12.21303,6.09409 -12.43073,6.74085 -0.21658,0.64676 0.42317,3.20515 1.42278,5.68311 0.99962,2.47907 1.63826,4.68598 1.41723,4.90414 -1.07181,1.06435 -24.48715,9.1538 -25.2102,8.70978 -0.45871,-0.28096 -1.4461,-2.6818 -2.19581,-5.33605 l -1.36169,-4.82481 -11.73544,-0.71176 c -18.42172,-1.11834 -19.09257,-1.05994 -20.14105,1.76619 -0.50536,1.36404 -1.21953,4.38849 -1.58717,6.72322 l -0.6664,4.24305 2.62564,-3.03216 c 1.445,-1.66704 2.39796,-3.62164 2.11918,-4.34222 -1.18287,-3.05861 2.50791,-3.87175 14.3111,-3.15557 l 11.71322,0.71066 2.40351,4.24306 c 3.30427,5.83296 6.19426,6.29461 16.69573,2.66857 7.71367,-2.66417 10.92686,-3.57095 13.61471,-3.842 1.13622,-0.11569 1.05737,-8.59959 -0.10218,-10.90016 -0.64309,-1.27479 -0.29544,-2.45813 1.11068,-3.7836 1.12511,-1.06104 2.30577,-1.90723 2.62342,-1.88189 0.31765,0.0242 3.94069,-1.56236 8.05242,-3.52688 9.65514,-4.61546 10.47038,-4.6981 14.27668,-1.45108 1.75709,1.49956 3.63192,2.72587 4.16615,2.72697 1.40723,0.002 16.81236,-15.61589 17.67869,-17.92307 0.40206,-1.07096 -0.0666,-3.60732 -1.04182,-5.63574 l -1.77265,-3.68885 2.86445,-4.84904 c 1.57605,-2.66748 3.80407,-5.84949 4.95252,-7.07139 1.14733,-1.22191 2.4135,-3.51476 2.81335,-5.09365 0.91297,-3.61282 3.8174,-4.79176 6.3031,-2.5595 1.7471,1.56787 2.13806,1.40811 4.69706,-1.91934 2.88444,-3.75275 3.8996,-8.1148 4.90143,-21.07204 0.66419,-8.58417 0.1244,-9.54274 -5.93658,-10.53877 l -4.22169,-0.69304 0.13106,-13.50373 c 0.0722,-7.42728 0.43094,-13.80122 0.79636,-14.16482 0.36652,-0.36249 2.01699,-0.80652 3.66968,-0.98722 5.57783,-0.607093 6.59521,-6.583288 2.70562,-15.904565 -1.13734,-2.72697 -2.94664,-7.06478 -4.02066,-9.640802 -1.07514,-2.576022 -2.43128,-4.682674 -3.01439,-4.682674 -0.5831,0 -0.69973,0.867121 -0.25768,1.92816 M 55.107012,159.79236 c -2.030321,2.87461 -2.456822,20.58724 -0.579774,24.06674 l 1.149553,2.1309 h 60.374299 c 54.02899,0 60.44539,-0.1829 61.04849,-1.74306 1.27728,-3.30101 0.73971,-24.19456 -0.65864,-25.58173 -1.00294,-0.99493 -15.9549,-1.32217 -60.46871,-1.32217 H 56.835229 l -1.728217,2.44932 m 13.450326,3.79462 c -0.407619,0.40326 -0.740823,4.28933 -0.740823,8.63595 v 7.90105 l 4.082857,0.15205 c 4.171712,0.15535 7.050593,-1.29021 6.990616,-3.51035 -0.01888,-0.68422 -0.543122,-0.37572 -1.166213,0.68532 -0.623091,1.06104 -1.668241,1.92816 -2.323541,1.92816 -0.728606,0 -0.606431,-0.74923 0.313211,-1.92816 l 1.506081,-1.92816 -2.29022,1.92816 c -2.360194,1.98766 -4.33165,2.60247 -3.364248,1.04892 0.300994,-0.48369 0.03332,-1.59872 -0.594213,-2.47906 -0.937414,-1.31336 -1.032932,-1.26047 -0.530905,0.29308 0.336536,1.0412 0.09219,2.21132 -0.543122,2.60026 -0.770812,0.47377 -1.030711,-2.0736 -0.78414,-7.67959 0.203254,-4.61326 0.328761,-8.38695 0.27767,-8.38474 -0.05109,10e-4 -0.426501,0.33274 -0.83301,0.73711 m 53.682462,1.53371 c 0,0.64125 0.44316,0.89577 0.98406,0.56413 1.39723,-0.85721 2.01921,3.4828 1.3317,9.28712 l -0.58755,4.95812 -0.72527,-5.50903 -0.72639,-5.50903 0.13995,5.42309 c 0.16993,6.6461 2.90665,8.61062 2.93219,2.10555 0.0222,-5.41647 1.33948,-7.45922 4.31388,-6.68796 1.40723,0.3658 2.06364,0.16748 1.64936,-0.49581 -0.37763,-0.6071 -1.87816,-0.87704 -3.33315,-0.60159 -2.18359,0.41428 -2.64675,0.0474 -2.64675,-2.10004 0,-1.57778 -0.6553,-2.60136 -1.66602,-2.60136 -0.91631,0 -1.66601,0.52556 -1.66601,1.16681 m 32.37519,4.6948 c -0.9774,1.16791 -0.34876,1.407 3.19653,1.21529 3.81407,-0.20604 4.4305,0.0826 4.54157,2.12648 0.10551,1.94028 0.22213,2.0097 0.64752,0.38453 1.1018,-4.21551 -5.51563,-7.15623 -8.38562,-3.7263 m -34.57989,31.87524 c -0.0111,1.35081 0.85633,1.92816 2.89554,1.92816 2.49903,0 2.71117,0.24129 1.49164,1.69898 -1.00516,1.20207 -1.07514,2.04385 -0.23991,2.87241 0.83523,0.82856 1.13068,0.58506 1.0085,-0.83076 -0.25323,-2.91428 3.36314,-3.26575 4.27501,-0.41538 0.41317,1.29242 0.99627,2.10665 1.29505,1.81027 1.00627,-0.99714 -1.91704,-5.13552 -3.62748,-5.13552 -0.93075,0 -1.41279,-0.44954 -1.0707,-0.99934 0.3432,-0.5487 -0.42872,-0.72609 -1.71377,-0.39224 -1.36947,0.35478 -2.74227,-0.0297 -3.31649,-0.92993 -0.78303,-1.22631 -0.98295,-1.14808 -0.99739,0.39335"
     stroke="none"
     fill="#cea6a8"
     fill-rule="evenodd"
     id="path2"
     sodipodi:nodetypes="ccccscccscsccsscccccccscccscccscccccsscscccscccccccscssccccccccscccccscccccsccccccccccccccccssscccsccccccsccccsccccssccsssccsccccccccccccccccccsccscscccscsccccsccccsccsccccccccscccccccccsccscccsccccccccccccccsccccccccccccccccccccccccccsccscscsscccscscsscccccccccccccccccccccsscccccccscscccscccc"
     style="display:none;stroke-width:1.10624" /><path
     d="m 114.66496,29.809014 0.19993,5.78448 0.4165,-5.233578 0.4165,-5.233577 h 3.33649 c 1.83484,0 3.09324,0.391141 2.79558,0.868223 -0.29767,0.477082 0.67307,0.967385 2.15582,1.089686 1.7471,0.143234 2.69673,-0.355884 2.69673,-1.419126 0,-1.253855 -1.43944,-1.640589 -6.10873,-1.640589 h -6.10874 l 0.19992,5.784481 m -14.45548,-3.716392 c -0.816353,0.513442 -1.440554,1.249448 -1.388352,1.636182 0.0522,0.386734 -0.155495,0.702952 -0.460932,0.702952 -3.052147,0 -3.216528,-0.107977 -1.666019,-1.101806 1.000722,-0.641251 1.138446,-1.07426 0.3432,-1.085278 -2.183596,-0.02755 -2.842229,2.150725 -0.876326,2.898851 1.006275,0.383428 2.301327,1.743057 2.87888,3.022253 l 1.048479,2.325912 -0.499803,-2.546273 c -0.365413,-1.856543 0.153274,-2.807401 1.912593,-3.511455 1.32615,-0.529969 1.91259,-1.003745 1.30171,-1.051123 -0.61087,-0.04738 -0.36097,-0.56743 0.55534,-1.154692 1.48054,-0.949757 1.48054,-1.06765 0,-1.06765 -0.91631,0 -2.33353,0.419788 -3.14877,0.932127 m -18.32399,5.27765 c -1.109569,1.099603 -0.892986,5.875931 0.265452,5.875931 0.554229,0 0.745266,0.991625 0.426501,2.203612 -0.319876,1.211986 -0.05998,2.203611 0.577553,2.203611 0.63753,0 1.426113,0.868223 1.752652,1.928161 0.32654,1.059937 0.320987,-0.05509 -0.01111,-2.479064 -0.333203,-2.423972 -1.06292,-4.572494 -1.621591,-4.774124 -0.558672,-0.201631 -0.713056,-1.564565 -0.34209,-3.029966 0.676404,-2.670778 0.334315,-3.299909 -1.04737,-1.928161 m 68.611103,1.950197 c -2.35797,1.730937 -0.0689,1.879681 2.68562,0.174085 1.02405,-0.633538 2.32021,0 4.02288,1.966724 2.11473,2.440499 2.72116,2.653148 3.82074,1.339795 0.89187,-1.067649 0.93741,-1.78823 0.14216,-2.27633 -0.64086,-0.392243 -1.1651,-0.401058 -1.1651,-0.01983 0,0.382327 -0.78525,-0.08374 -1.74488,-1.036799 -2.1736,-2.155132 -4.95474,-2.209121 -7.76142,-0.147642 m -36.03155,6.615242 v 3.921327 h 6.10874 c 4.68928,0 6.10873,-0.383428 6.10873,-1.652709 0,-1.002643 -0.98295,-1.621858 -2.49903,-1.575582 l -2.49902,0.07823 2.22135,0.946451 c 1.66158,0.708462 0.85856,0.966284 -3.18431,1.02468 l -5.40457,0.07713 0.53535,-2.780958 c 0.29544,-1.529306 0.10329,-3.046493 -0.42539,-3.370424 -0.52868,-0.323931 -0.96185,1.175627 -0.96185,3.331861 m 40.52091,1.437857 c 1.50831,2.958348 1.53274,6.097393 0.0578,7.560591 -1.78597,1.771704 -3.27206,2.054868 -2.26023,0.431908 0.37763,-0.605993 0.1566,-1.101805 -0.48981,-1.101805 -0.64642,0 -1.17621,0.525561 -1.17621,1.166812 0,0.641251 -0.53313,0.839576 -1.1851,0.440722 -0.65086,-0.399955 -0.90409,-1.003745 -0.562,-1.343101 0.9363,-0.929924 -3.64747,-3.796823 -4.87033,-3.047595 -2.05698,1.261568 0.23546,3.88056 4.50825,5.14984 3.75854,1.117232 4.61598,1.02468 6.54856,-0.711766 2.67674,-2.403039 2.83001,-4.900833 0.47648,-7.779851 -0.96184,-1.175627 -1.43277,-1.520492 -1.04737,-0.765755 m 18.90043,5.53988 c 0.61088,0.624723 2.11029,1.414718 3.33204,1.755176 1.30172,0.362494 0.9463,0.468268 -0.85967,0.254517 -1.69378,-0.199426 -3.35536,0.07823 -3.69189,0.618114 -0.33654,0.539884 -0.19993,0.910091 0.30432,0.823048 3.00994,-0.51895 6.19759,0.385633 8.13462,2.307182 1.22175,1.211986 2.72116,2.203612 3.33204,2.203612 2.23357,0 1.02737,-3.213968 -2.01144,-5.360286 -3.41756,-2.414056 -10.44928,-4.555967 -8.54002,-2.601363 M 53.100052,49.605159 c -2.064753,2.563902 -2.645638,9.116342 -0.902982,10.185094 0.591992,0.362494 0.814128,-0.605994 0.515355,-2.244379 -0.646416,-3.531288 0.450936,-7.339129 1.86372,-6.473109 0.570889,0.350374 1.337258,-0.135522 1.702671,-1.07977 0.365414,-0.944248 1.188427,-1.394886 1.829289,-1.001542 0.680846,0.417585 0.836341,0.186206 0.373188,-0.556412 -1.208419,-1.941381 -3.229855,-1.501761 -5.381241,1.170118 M 167.77769,49.91697 c -1.435,1.514983 -2.17138,2.754515 -1.63714,2.754515 0.53423,0 0.37096,0.594975 -0.36209,1.322167 -0.73304,0.727192 -1.31726,1.843321 -1.29727,2.479063 0.0189,0.636844 0.73527,0.239092 1.5916,-0.881445 0.97074,-1.270382 2.10807,-1.710002 3.01883,-1.16571 1.19509,0.712868 1.20287,0.554208 0.0455,-0.862714 -1.16955,-1.43345 -1.10846,-1.853238 0.34875,-2.407446 0.97073,-0.370207 1.47943,-1.129351 1.13178,-1.687966 -0.34764,-0.557514 -0.004,-1.265975 0.76304,-1.573379 0.76748,-0.306302 0.85744,-0.597179 0.19992,-0.644557 -0.65641,-0.04738 -2.36797,1.152489 -3.80296,2.667472 m 7.10279,7.349045 c -0.53979,0.867122 -0.1977,1.058836 1.04515,0.585059 1.22619,-0.467165 1.84817,-0.137726 1.84817,0.979506 0,0.926618 0.49981,1.377257 1.11068,1.002643 1.22508,-0.751432 1.53718,0.862714 0.38763,2.003083 -0.39763,0.394446 -1.38169,-0.143235 -2.18582,-1.194358 -1.30061,-1.697882 -1.46721,-1.484132 -1.49831,1.920448 l -0.0355,3.832081 2.98662,-2.963858 2.98773,-2.962756 -2.04921,-2.24548 c -2.33798,-2.562801 -3.45199,-2.79418 -4.5971,-0.956368 m 14.00011,4.276109 -2.7767,2.139707 2.7767,-0.40877 c 3.22208,-0.473777 5.66002,1.062141 4.88144,3.07514 -0.67418,1.743057 2.38574,4.3929 3.95957,3.42882 0.98739,-0.605993 -0.9363,-3.998454 -5.44788,-9.608849 -0.33876,-0.421992 -1.86594,0.196121 -3.39313,1.373952 M 40.830378,63.441637 c -2.835564,3.109296 -4.397179,8.122513 -2.964403,9.517399 0.726384,0.706258 1.14511,0.745923 1.020714,0.09586 -0.115511,-0.605993 -0.144388,-1.845525 -0.0622,-2.754514 0.132171,-1.468708 0.267674,-1.468708 1.225079,0 0.617538,0.948654 1.084023,1.104009 1.094019,0.365799 0.0089,-0.708461 0.359861,-2.195899 0.779697,-3.305417 0.676404,-1.78713 0.545344,-1.84222 -1.136225,-0.485897 -1.659354,1.340898 -1.810407,1.30564 -1.199533,-0.275451 0.641972,-1.660422 1.931471,-2.274128 4.07175,-1.938077 1.151774,0.179595 1.049592,-1.810267 -0.128839,-2.533051 -0.529794,-0.325033 -1.744877,0.266637 -2.700061,1.313352 m 137.647584,5.593868 c -2.41239,2.644334 -2.32687,3.090566 1.23952,6.455481 1.67935,1.585499 2.30466,2.48347 1.38835,1.996472 -1.2795,-0.680916 -1.24063,-0.437417 0.17104,1.051123 2.41462,2.548477 4.72927,1.272586 2.91554,-1.607535 -0.71972,-1.144776 -1.70934,-1.835608 -2.19804,-1.535917 -0.4887,0.299691 -0.88854,-0.0099 -0.88854,-0.687527 0,-0.677611 -0.44316,-0.960775 -0.98406,-0.628029 -0.54202,0.331643 -1.23952,-0.364698 -1.55162,-1.546936 -0.62643,-2.377697 1.88926,-5.263326 3.01438,-3.457467 0.8108,1.302335 5.07469,1.151388 5.07469,-0.180696 0,-0.514543 -0.8741,-0.7933 -1.94368,-0.619215 -1.06959,0.175188 -2.50125,-0.03085 -3.18321,-0.455045 -0.68196,-0.425297 -2.05698,0.121198 -3.05437,1.215291 m 20.4887,17.134183 c -0.99295,1.186645 -0.96074,1.678051 0.14106,2.116569 0.88743,0.352578 0.66863,0.60379 -0.57422,0.657778 -1.10513,0.04738 -1.74155,0.516747 -1.41501,1.041207 0.32765,0.525561 -0.39318,1.842219 -1.60049,2.925294 -1.20731,1.084177 -2.1947,1.585499 -2.1947,1.115028 0,-0.471573 -0.74971,-0.240194 -1.66602,0.514543 -2.20359,1.813573 -2.14361,0.631335 0.0789,-1.57448 0.96074,-0.951961 1.27173,-1.730937 0.69195,-1.730937 -1.83484,0 -3.61304,2.956145 -2.89554,4.811586 0.61865,1.599822 0.99739,1.559055 3.6297,-0.385632 6.01877,-4.446889 10.66697,-8.836483 8.57556,-8.100477 -1.6849,0.592772 -1.98479,0.361393 -1.42278,-1.091889 0.87077,-2.249888 0.37541,-2.360069 -1.34837,-0.29859 M 69.187094,171.16079 c -0.143278,7.2587 0.0044,7.76883 2.292442,7.92749 2.163603,0.14985 2.221358,0.043 0.502027,-0.92662 -2.230244,-1.25716 -2.575666,-5.42749 -0.610874,-7.37659 0.949631,-0.94204 0.970734,-1.32216 0.07331,-1.32216 -0.691953,0 -1.449437,-1.36404 -1.681568,-3.02997 -0.233243,-1.66593 -0.492031,0.46056 -0.575332,4.72785 m 18.251792,-6.47201 c -1.048481,1.03901 -0.926306,14.93388 0.125507,14.28932 0.8008,-0.4903 1.725996,-15.02422 0.957406,-15.02422 -0.188816,0 -0.676404,0.33054 -1.082913,0.7349 m -14.068974,4.61767 c 0,0.56192 0.749708,1.30784 1.666019,1.65712 1.99478,0.75914 2.204698,5.23688 0.333204,7.09342 -0.991837,0.98392 -1.001833,1.32217 -0.03887,1.32217 1.920364,0 3.817404,-4.17364 3.024379,-6.65381 -0.729716,-2.27853 -4.984728,-5.19721 -4.984728,-3.4189 m 66.640749,-0.19832 c 0,0.55861 0.59977,1.61084 1.33282,2.33803 1.03626,1.02798 0.86633,1.32216 -0.76748,1.32216 h -2.10029 l 2.04809,1.48524 c 2.42794,1.76179 1.40612,4.02379 -1.81929,4.02379 -1.73822,0 -2.14584,-0.52666 -1.70379,-2.20471 0.31988,-1.21309 0.12773,-1.92816 -0.42539,-1.5877 -0.55423,0.33935 -1.00738,1.57889 -1.00738,2.75561 0,1.71001 0.77969,2.13861 3.88737,2.13861 h 3.88738 v -4.2728 c 0,-2.45262 -0.70972,-4.85566 -1.66602,-5.64345 -0.91631,-0.75474 -1.66602,-0.9145 -1.66602,-0.35478 m -42.446822,3.19523 c -1.411674,3.07294 -0.338758,5.98391 2.541232,6.89621 1.07292,0.33935 0.90187,-0.26444 -0.528681,-1.86316 l -2.115845,-2.36447 h 3.940696 c 4.27722,0 6.18537,-2.29837 3.64413,-4.3896 -1.21175,-0.99823 -1.3939,-0.7944 -0.9152,1.02138 0.49537,1.87968 0.0789,2.26641 -2.43794,2.26641 -2.48903,0 -2.93108,-0.39665 -2.454599,-2.20361 0.816349,-3.09828 -0.123285,-2.74129 -1.673793,0.63684 m 16.232572,-1.55575 c -0.4687,0.75143 0.5409,2.35677 2.4335,3.87065 2.7045,2.16505 2.96107,2.76222 1.56717,3.65689 -1.1651,0.74923 -1.23841,1.07536 -0.24324,1.08748 2.7978,0.0331 2.88443,-3.51476 0.13883,-5.62582 -2.27022,-1.74526 -2.42128,-2.21903 -1.00627,-3.14676 1.43833,-0.94424 1.40945,-1.09519 -0.21214,-1.11062 -1.03293,-0.009 -2.23802,0.56082 -2.67785,1.26818 m 40.87522,0.0375 c -2.11029,2.09344 -1.55495,6.11172 1.09957,7.95504 3.39313,2.35787 4.01067,1.16902 0.7797,-1.50066 l -2.65674,-2.19369 4.16504,-0.0375 c 3.3698,-0.0297 4.16505,-0.44513 4.16505,-2.17497 0,-1.17673 -0.45316,-2.41626 -1.00739,-2.75562 -0.55311,-0.34045 -0.74526,0.37462 -0.42539,1.58771 0.47649,1.80806 0.0356,2.20471 -2.4546,2.20471 -2.48903,0 -2.93108,-0.39665 -2.4546,-2.20361 0.67752,-2.57162 0.57089,-2.64874 -1.21064,-0.88145 m -38.2629,25.88032 c -1.06958,0.27766 -1.94369,0.96408 -1.94369,1.5249 0,1.2803 0.29544,1.27479 3.89293,-0.0826 2.21581,-0.83517 3.31094,-0.72059 4.51491,0.47267 2.06031,2.04495 2.00256,2.56611 -0.35541,3.17761 -1.50053,0.38894 -1.38946,0.53217 0.48981,0.63133 3.37757,0.17739 4.265,-1.80696 1.94591,-4.34882 -1.86928,-2.04936 -4.38275,-2.45373 -8.54446,-1.37506 m 8.66996,9.05795 c -0.7697,1.23512 0.40429,4.50638 1.61826,4.50638 0.4887,0 0.62642,0.99163 0.30766,2.20362 -0.31988,1.21198 -1.05181,2.20361 -1.62826,2.20361 -0.57533,0 -0.67085,-0.61922 -0.21214,-1.37726 0.59422,-0.98171 0.30877,-0.95527 -0.99627,0.0948 -1.00739,0.80982 -2.34687,1.15579 -2.97774,0.76906 -0.65752,-0.40327 -0.89187,-0.0441 -0.54756,0.84398 1.10735,2.86469 6.13761,0.80762 7.82585,-3.20075 1.76042,-4.17915 2.01477,-6.18113 0.4787,-3.77258 -0.56867,0.89136 -1.38169,1.27479 -1.80708,0.8528 -0.42539,-0.42199 -0.14216,-1.5238 0.63087,-2.44711 1.15733,-1.38277 1.09846,-1.67916 -0.33209,-1.67916 -0.95408,0 -2.017,0.45064 -2.3602,1.00265"
     stroke="none"
     fill="#ffe9f2"
     fill-rule="evenodd"
     id="path3"
     style="display:inline;stroke-width:1.10624" /><path
     d="m 117.79708,76.911214 c 0,1.809165 0.74638,2.206917 4.16505,2.220138 5.28572,0.02204 6.1154,0.602688 9.04426,6.334282 l 2.40129,4.696999 -6.33532,9.075574 c -3.4842,4.991183 -7.5926,10.733793 -9.12978,12.761113 l -2.79447,3.68775 -0.96407,-2.58594 c -1.02516,-2.7435 -5.27239,-18.125809 -5.27239,-19.092093 0,-0.314015 0.96962,-0.570736 2.15583,-0.570736 3.38756,0 4.01732,-2.346846 1.22951,-4.585716 -3.00882,-2.417362 -13.542503,-2.834946 -15.402891,-0.6104 -1.584939,1.894004 -0.24546,3.784703 3.018826,4.25848 3.260955,0.473776 3.631925,1.175626 7.231635,13.714175 3.43644,11.96782 3.53751,13.6668 0.81079,13.6668 -1.43833,0 -3.20875,-2.2587 -5.83106,-7.43719 -3.05437,-6.03569 -4.794805,-8.05971 -9.2353,-10.7426 -4.873661,-2.94403 -6.44194,-3.305422 -14.346645,-3.305422 -10.512637,0 -15.51713,4.769182 -17.388907,7.206912 -5.101683,4.04903 -9.649469,18.20183 -5.629921,25.04515 2.832595,5.06818 -0.235033,2.73855 6.366414,9.28272 12.782808,12.05926 35.143003,6.68796 41.039599,-9.85786 l 2.06031,-5.78448 h 5.04804 c 3.84628,0 5.43677,-0.5454 6.68073,-2.28956 0.89854,-1.25826 4.01733,-5.59717 6.93175,-9.6408 2.91331,-4.04252 6.16205,-8.55332 7.21941,-10.02092 1.05626,-1.46871 2.68785,-3.620537 3.62415,-4.782942 l 1.70156,-2.112162 1.51275,2.804096 c 1.41611,2.624498 1.2584,3.058618 -2.45572,6.743048 -15.64947,15.52445 -4.36385,41.28687 18.08631,41.28687 14.24779,0 24.95363,-10.38011 24.94918,-24.19124 -0.002,-11.85136 -8.95119,-18.81762 -9.40634,-18.91801 -6.0234,-4.063838 -12.54923,-5.400241 -20.02888,-4.741074 l -5.04026,0.664389 -5.39568,-10.263321 c -7.29161,-13.867329 -7.55373,-14.119642 -14.68318,-14.119642 -5.19576,0 -5.93658,0.27435 -5.93658,2.203612 m 32.48737,26.086356 c -1.37502,0.28096 -2.49903,1.23623 -2.49903,2.12318 0,2.77655 5.25462,11.94137 7.68035,13.39245 2.72782,1.63398 3.00661,4.93279 0.61753,7.30277 -2.92552,2.90216 -7.13722,0.20273 -7.17054,-4.59343 -0.0178,-2.67739 -4.82146,-12.8713 -6.56967,-13.94335 -0.57311,-0.35148 -2.78447,0.99162 -4.91475,2.98369 -2.92998,2.74129 -4.06287,4.8843 -4.65597,8.81004 -0.93964,6.21859 -0.31544,9.0943 3.04104,14.01387 6.29422,9.22211 20.88521,11.61413 29.44855,4.82701 6.11318,-4.84574 8.27345,-9.58792 7.78919,-17.09782 -0.62753,-9.73226 -6.85955,-16.48963 -16.41917,-17.80078 -2.11695,-0.28978 -4.97251,-0.29749 -6.34753,-0.0176 m -80.046654,2.21022 c -2.029211,0.99163 -5.028045,3.54561 -6.664075,5.67761 -2.540124,3.30542 -2.976621,4.95041 -2.973289,11.20757 0.0022,6.33648 0.426501,7.88452 3.119898,11.38826 9.408564,12.23666 29.881716,8.65028 34.110072,-5.97619 l 0.979619,-3.38695 -8.000223,0.50352 c -4.399401,0.27656 -9.329706,0.85941 -10.95463,1.29683 -2.330205,0.62582 -3.212084,0.32062 -4.161715,-1.44006 -2.35464,-4.36536 1.904815,-8.17099 6.446382,-5.75914 1.205087,0.63905 5.222414,1.1624 8.927641,1.1624 6.24757,0 6.73738,-0.18069 6.732937,-2.47906 -0.01666,-10.05949 -16.769035,-17.471337 -27.562617,-12.19479"
     stroke="none"
     fill="#b5b5b5"
     fill-rule="evenodd"
     id="path5"
     sodipodi:nodetypes="ccccccccssccccsccscccccsccccccsscccccsccscscsccccsccccccccccccscc"
     style="display:inline;fill:#ffffff;stroke-width:1.10624" /><path
     d="m 98.423504,9.4256053 c 0.415394,2.8790187 0.820792,5.7249827 0.901872,6.3265687 0.07997,0.601586 -3.103238,2.176067 -7.073916,3.499336 -3.970679,1.323269 -12.023104,4.131772 -17.893044,6.240628 L 63.683678,29.327524 59.807407,25.48112 55.931136,21.635818 47.53329,29.165559 c -8.576665,7.691707 -10.196035,10.899063 -6.879547,13.63044 2.565669,2.112162 1.097351,6.74195 -5.745544,18.121401 -3.275393,5.445124 -6.086523,10.294172 -6.247571,10.774559 -0.162159,0.480388 -3.147665,-0.0595 -6.634087,-1.200968 l -6.340868,-2.0747 -2.737825,7.277427 C 8.1263894,88.512127 6.6147549,93.76664 7.5155158,94.580874 c 0.4842561,0.437417 2.7011722,1.371748 4.9280842,2.076904 2.225801,0.705156 4.225024,2.128689 4.442717,3.163285 0.216582,1.034597 0.241017,8.201847 0.05331,15.928807 l -0.340978,14.04803 -4.101739,0.0165 c -6.838452,0.0286 -7.337147,0.83407 -5.872161,9.49757 2.7267176,16.12052 3.656356,19.13286 5.907703,19.13286 1.165103,0 3.035487,-0.487 4.157273,-1.08308 1.771533,-0.93984 3.04215,0.46717 9.645139,10.67871 4.183928,6.4687 7.773644,12.16503 7.978009,12.65754 0.204365,0.49251 -0.918532,2.41626 -2.494586,4.27501 -3.560838,4.19788 -3.183207,5.02644 7.159439,15.72387 l 7.618149,7.88011 3.471983,-4.13177 c 1.909258,-2.27302 3.914034,-4.13177 4.456046,-4.13177 0.540901,0 6.299773,4.03261 12.796136,8.96099 12.593992,9.55486 12.445161,9.29924 9.948354,17.06587 -0.794136,2.47245 -1.201755,2.32811 19.776755,6.98986 4.625981,1.02798 4.579331,1.07536 5.714451,-5.70846 0.37652,-2.25099 1.19731,-4.40722 1.82373,-4.79175 0.62754,-0.38453 7.80585,-0.34377 15.95379,0.0881 l 14.81424,0.78779 1.37169,4.85896 c 0.75415,2.67299 1.74599,5.08925 2.2047,5.37021 0.72305,0.44402 24.13839,-7.64543 25.2102,-8.70978 0.22103,-0.21816 -0.41761,-2.42507 -1.41723,-4.90414 -0.99961,-2.47796 -1.63936,-5.03635 -1.42278,-5.68311 0.2177,-0.64676 5.81108,-3.68003 12.43073,-6.74085 13.02382,-6.02137 15.92603,-6.26597 18.46837,-1.55355 0.82524,1.53151 1.83595,2.78427 2.24468,2.78427 0.40873,0 4.57378,-4.17474 9.25529,-9.27721 l 8.51336,-9.2772 -2.87333,-3.38806 c -1.58049,-1.86425 -2.70672,-3.79131 -2.50236,-4.28382 0.20437,-0.4925 3.79408,-6.18884 7.97801,-12.65754 6.60299,-10.21154 7.87361,-11.61855 9.64514,-10.6787 1.12179,0.59607 2.99217,1.08307 4.15727,1.08307 2.25135,0 3.18099,-3.01234 5.90771,-19.13286 1.46498,-8.6635 0.96629,-9.46892 -5.87216,-9.49756 l -4.10174,-0.0165 -0.34098,-14.04803 c -0.18771,-7.72696 -0.16327,-14.89421 0.0533,-15.92881 0.21769,-1.03459 2.21692,-2.458124 4.44272,-3.16328 2.22691,-0.705156 4.44383,-1.639487 4.92808,-2.076904 0.90076,-0.814235 -0.61087,-6.068747 -5.43233,-18.887156 l -2.73782,-7.277428 -6.25535,2.047156 c -3.43977,1.126045 -6.3231,1.921549 -6.4064,1.768398 -0.0833,-0.153151 -3.49975,-5.860505 -7.5926,-12.682887 -4.09285,-6.822382 -7.44155,-12.929692 -7.44155,-13.570943 0,-0.641251 1.2584,-2.802994 2.79669,-4.802772 l 2.79558,-3.637061 -4.73927,-4.165928 c -2.60788,-2.290654 -7.32271,-6.57117 -10.47815,-9.510788 l -5.73777,-5.345962 -3.51863,4.407224 c -2.29355,2.872408 -4.41606,4.407223 -6.09541,4.407223 -2.92886,0 -33.80241,-9.633088 -35.65836,-11.126035 -0.8008,-0.643455 -0.91742,-2.760024 -0.3432,-6.218593 0.4776,-2.8834255 0.89965,-5.8616068 0.9352,-6.6196492 0.0511,-1.0533264 -4.65042,-1.3772573 -19.99334,-1.3772573 H 97.668243 l 0.755261,5.2335778 M 97.984786,51.538829 c -17.20109,4.608853 -32.666188,16.024664 -42.584554,31.432317 -2.731161,4.241952 -5.269063,8.704266 -5.64114,9.916252 -0.372078,1.211987 -1.47165,4.352134 -2.443495,6.978839 -1.246182,3.370423 -1.773755,8.717483 -1.791525,18.179803 -0.02666,13.86622 1.290609,21.19213 5.468984,30.41535 l 2.215805,4.88981 -2.136946,2.69502 c -1.834843,2.31489 -2.136947,4.53503 -2.136947,15.70734 0,12.16614 0.174376,13.21286 2.680069,16.10289 l 2.681179,3.09167 h 61.834844 61.83485 l 2.79002,-3.21727 2.78892,-3.21727 -0.38652,-13.38915 c -0.31543,-10.93873 -0.74193,-13.74172 -2.3302,-15.3173 -2.3502,-2.32922 -2.34465,-2.21243 -0.29433,-6.14588 1.77042,-3.39576 4.31499,-10.73048 5.50119,-15.85719 1.42834,-6.17342 0.82968,-24.38627 -1.03848,-31.59428 C 182.10097,91.035263 174.92487,78.637743 166.57034,70.375301 152.65575,56.612644 138.2258,50.446939 118.35242,49.771532 c -9.67957,-0.32944 -13.91126,0.03746 -20.367634,1.767297 M 55.107012,159.79236 c -2.030321,2.87461 -2.456822,20.58724 -0.579774,24.06674 l 1.149553,2.1309 h 60.374299 c 54.02899,0 60.44539,-0.1829 61.04849,-1.74306 1.27728,-3.30101 0.73971,-24.19456 -0.65864,-25.58173 -1.00294,-0.99493 -15.9549,-1.32217 -60.46871,-1.32217 H 56.835229 l -1.728217,2.44932"
     stroke="none"
     fill="#b1182e"
     fill-rule="evenodd"
     id="path6"
     sodipodi:nodetypes="ccsccccccccccccccccccsccsccccsccscccccccccccscccsccsccccccccccsssccccccscccsccccscccccscccccccccccccccscscsscc"
     style="stroke-width:1.10624" /><text
     xml:space="preserve"
     style="font-style:normal;font-variant:normal;font-weight:300;font-stretch:normal;font-size:24px;font-family:raleway;-inkscape-font-specification:'raleway Light';text-align:start;writing-mode:lr-tb;direction:ltr;text-anchor:start;white-space:pre;fill:#ffffff;stroke:#ffffff;stroke-width:1.88976"
     id="text1"><textPath
       xlink:href="#path4"
       id="textPath4"
       style="font-style:normal;font-variant:normal;font-weight:250;font-stretch:normal;font-size:24px;font-family:raleway;-inkscape-font-specification:'raleway weight=250';fill:#ffffff;stroke:#ffffff">GOMPEI'S GEARS</textPath></text><path
     style="fill:none;stroke:none;stroke-width:2.09051"
     d="m 40.939001,106.17079 c 7.196193,-41.905019 45.237872,-64.424255 74.839489,-64.011054 36.12057,0.504198 74.78613,26.609858 75.21742,68.034244"
     id="path4"
     sodipodi:nodetypes="csc" /><text
     xml:space="preserve"
     style="font-style:normal;font-variant:normal;font-weight:250;font-stretch:normal;font-size:23.5996px;font-family:raleway;-inkscape-font-specification:'raleway weight=250';text-align:start;writing-mode:lr-tb;direction:ltr;text-anchor:start;fill:none;stroke:none;stroke-width:2.09051"
     x="55.830933"
     y="181.14198"
     id="text4"
     transform="scale(1.0040187,0.99599739)"><tspan
       sodipodi:role="line"
       id="tspan4"
       x="55.830933"
       y="181.14198"
       style="font-style:normal;font-variant:normal;font-weight:bold;font-stretch:normal;font-size:23.5996px;font-family:raleway;-inkscape-font-specification:'raleway Bold';fill:#ffffff;fill-opacity:1;stroke-width:2.09051">Bike Share</tspan></text><g
     style="fill:#000000"
     id="g1"
     transform="matrix(0.4580721,0,0,0.45441248,102.93846,193.02154)"><path
       d="m 48.68,38.71 c 8.06,-8.06 10,-34.59 10,-34.59 A 40.94,40.94 0 0 1 44.41,7.73 C 36.16,8.43 28.52,9.6 24,14.08 17.13,21 15.4,30.82 19.34,37.77 23.66,31 41.47,21.29 41.47,21.29 28.69,30.43 14,47.78 13.41,50 c -0.59,2.22 3.64,2.3 4.3,1.15 0.66,-1.15 3.2,-5.78 6,-8.57 6.97,4.95 17.62,3.49 24.97,-3.87 z"
       id="path1-3"
       style="fill:#ffffff" /></g></svg>
