<?xml version="1.0" encoding="UTF-8" standalone="no"?>
<!-- Created with Inkscape (http://www.inkscape.org/) -->

<svg
   version="1.1"
   id="svg1"
   width="28.799999"
   height="28.799999"
   viewBox="0 0 28.799999 28.799999"
   sodipodi:docname="profile.svg"
   inkscape:version="1.4 (e7c3feb100, 2024-10-09)"
   inkscape:export-filename="profile.svg"
   inkscape:export-xdpi="96"
   inkscape:export-ydpi="96"
   xmlns:inkscape="http://www.inkscape.org/namespaces/inkscape"
   xmlns:sodipodi="http://sodipodi.sourceforge.net/DTD/sodipodi-0.dtd"
   xmlns="http://www.w3.org/2000/svg"
   xmlns:svg="http://www.w3.org/2000/svg">
  <sodipodi:namedview
     id="namedview1"
     pagecolor="#ffffff"
     bordercolor="#000000"
     borderopacity="0.25"
     inkscape:showpageshadow="2"
     inkscape:pageopacity="0.0"
     inkscape:pagecheckerboard="0"
     inkscape:deskcolor="#d1d1d1"
     inkscape:zoom="25.104167"
     inkscape:cx="14.4"
     inkscape:cy="14.4"
     inkscape:window-width="1707"
     inkscape:window-height="932"
     inkscape:window-x="0"
     inkscape:window-y="0"
     inkscape:window-maximized="1"
     inkscape:current-layer="g1" />
  <defs
     id="defs1" />
  <g
     id="g1">
    <path
       id="path1"
       style="fill:#000000"
       sodipodi:type="inkscape:offset"
       inkscape:radius="0.39393988"
       inkscape:original="M 12.486328 1.4003906 C 11.149089 1.6087594 9.8814237 2.0007324 8.6699219 2.5820312 C 5.5791726 4.0650248 3.070382 6.8797215 1.9609375 10.109375 C 0.612647 14.034321 1.158472 18.319506 3.4453125 21.75 C 5.5588686 24.92055 8.8928269 26.982 12.75 27.505859 C 13.490414 27.606419 15.048318 27.621056 15.828125 27.535156 C 18.106331 27.284198 20.482275 26.348474 22.277344 24.996094 C 27.34828 21.175721 28.996371 14.412879 26.246094 8.7070312 C 24.355068 4.7838234 20.680154 2.0806548 16.314453 1.4003906 C 15.368749 1.2530309 13.432032 1.2530309 12.486328 1.4003906 z M 14.400391 2.3203125 C 17.504155 2.3203125 20.607683 3.5055343 22.980469 5.8789062 C 27.020327 9.9197636 27.679532 16.275084 24.554688 21.060547 C 22.510547 24.190996 19.211604 26.166715 15.449219 26.517578 C 11.576087 26.878769 7.6209237 25.239987 5.1074219 22.230469 C 1.0817613 17.410384 1.392244 10.308069 5.8203125 5.8789062 C 8.1930977 3.5055343 11.296627 2.3203125 14.400391 2.3203125 z M 13.544922 7.375 C 12.436562 7.646358 11.458009 8.4507794 11.068359 9.6777344 C 10.743531 10.700572 10.925477 11.877634 11.541016 12.740234 C 12.046121 13.448074 12.783195 13.942061 13.619141 14.130859 C 13.865517 14.186509 14.201704 14.209109 14.529297 14.193359 C 16.397158 14.103548 17.820312 12.604843 17.820312 10.728516 C 17.820313 9.7816948 17.476488 8.9555583 16.798828 8.2753906 C 15.892516 7.365724 14.653282 7.103642 13.544922 7.375 z M 14.744141 8.3476562 C 15.497292 8.4696446 16.19444 8.9556848 16.578125 9.765625 C 16.751204 10.130986 16.769531 10.223982 16.769531 10.740234 C 16.769531 11.256486 16.751204 11.34753 16.578125 11.712891 C 16.324167 12.248983 15.920385 12.673455 15.431641 12.914062 C 15.085638 13.084401 14.972697 13.108897 14.464844 13.123047 C 13.663506 13.145369 13.2459 12.996615 12.712891 12.498047 C 11.738517 11.586634 11.679316 10.092071 12.580078 9.1191406 C 13.182124 8.4688599 13.99099 8.2256679 14.744141 8.3476562 z M 14.904297 14.355469 C 14.003598 14.289913 13.070192 14.39966 12.150391 14.707031 C 9.5613427 15.572218 7.6781359 18.022586 7.5195312 20.732422 L 7.4824219 21.335938 L 7.6757812 21.498047 C 7.9153541 21.699635 8.09861 21.703199 8.3261719 21.511719 C 8.4878425 21.375681 8.5063189 21.321468 8.5449219 20.845703 C 8.7150338 18.749167 9.9485512 16.901269 11.775391 16.005859 C 12.454544 15.672977 12.765913 15.572069 13.5 15.445312 C 15.243211 15.144305 17.185009 15.770433 18.474609 17.048828 C 19.465831 18.031438 20.103436 19.336788 20.197266 20.578125 C 20.248734 21.259045 20.316239 21.465186 20.519531 21.570312 C 20.776427 21.703162 20.928507 21.680867 21.125 21.484375 C 21.264981 21.344391 21.29911 21.256041 21.298828 21.048828 C 21.298191 20.581738 21.125865 19.624821 20.943359 19.080078 C 20.020891 16.326692 17.606392 14.552136 14.904297 14.355469 z "
       d="m 14.400391,0.890625 c -0.730721,0 -1.461336,0.0411154 -1.97461,0.1210937 C 11.051704,1.2258277 9.745861,1.6287776 8.5,2.2265625 5.3089331,3.7576902 2.7337703,6.6447505 1.5878906,9.9804688 0.20036444,14.019632 0.76241192,18.436346 3.1171875,21.96875 c 2.1758952,3.264065 5.6163375,5.389402 9.5800785,5.927734 0.808383,0.109792 2.33242,0.121983 3.173828,0.0293 2.35451,-0.259363 4.783828,-1.214878 6.642578,-2.615234 5.216627,-3.930135 6.91776,-10.904416 4.08789,-16.7753907 C 24.654591,4.4958806 20.864338,1.711248 16.375,1.0117187 15.861726,0.93174038 15.131111,0.890625 14.400391,0.890625 Z m 0,1.8242188 c 3.003475,0 6.003065,1.1450758 8.300781,3.4433593 3.90899,3.9099569 4.547117,10.0569629 1.523437,14.6874999 -1.979542,3.031522 -5.165049,4.939152 -8.8125,5.279297 C 11.673352,26.47366 7.8384255,24.885981 5.4101562,21.978516 1.5129292,17.312209 1.813905,10.444967 6.0996094,6.1582031 8.3973246,3.8599197 11.396915,2.7148438 14.400391,2.7148438 Z m -0.0039,4.1660156 c -0.319089,-0.00118 -0.637525,0.035973 -0.945312,0.1113281 -1.231009,0.3013859 -2.325607,1.2054505 -2.757813,2.5664063 -0.364062,1.1463802 -0.165298,2.4395062 0.527344,3.4101562 0.387571,0.543131 0.926141,0.919394 1.513672,1.203125 -0.236427,0.05445 -0.473845,0.08353 -0.708984,0.162109 -2.7466489,0.917853 -4.7300149,3.497414 -4.8984379,6.375 L 7.0898437,21.3125 a 0.39397928,0.39397928 0 0 0 0.1386719,0.326172 l 0.1933594,0.162109 v -0.002 c 0.156774,0.131917 0.348294,0.243336 0.5761719,0.248047 0.2278778,0.0047 0.4274678,-0.104319 0.5820312,-0.234375 0.094904,-0.07986 0.2215567,-0.21937 0.2753907,-0.382813 0.053834,-0.163442 0.062417,-0.311004 0.082031,-0.552734 0.1592062,-1.962129 1.314285,-3.685596 3.011719,-4.517578 0.664676,-0.325786 0.899239,-0.40142 1.617187,-0.525391 1.604611,-0.277074 3.436001,0.309664 4.63086,1.494141 0.927324,0.919268 1.522137,2.151011 1.607421,3.279297 0.02648,0.350388 0.05354,0.590983 0.123047,0.804687 0.06951,0.213704 0.230993,0.415164 0.410157,0.507813 0.164608,0.08513 0.354136,0.150863 0.5625,0.121094 0.208363,-0.02977 0.374994,-0.148433 0.503906,-0.277344 0.175945,-0.175949 0.289403,-0.464223 0.289062,-0.714844 -7.68e-4,-0.563248 -0.17403,-1.488067 -0.376953,-2.09375 -0.842839,-2.515708 -2.897508,-4.191699 -5.285156,-4.748047 1.298694,-0.621416 2.183594,-1.93858 2.183594,-3.478515 1e-6,-1.042191 -0.393512,-1.984512 -1.136719,-2.7304691 C 16.323374,7.2405019 15.353752,6.884392 14.396484,6.8808594 Z m 0.285157,1.8554687 c 0.627998,0.1017174 1.210265,0.4990683 1.541015,1.1972657 0.166613,0.3517112 0.152344,0.2997122 0.152344,0.8066402 0,0.506929 0.0145,0.452486 -0.152344,0.804688 -0.219237,0.462799 -0.563679,0.818133 -0.964843,1.015625 -0.328954,0.161945 -0.307862,0.154126 -0.804688,0.167969 -0.748835,0.02086 -0.984114,-0.06243 -1.470703,-0.517578 -0.82328,-0.770082 -0.871564,-2.005184 -0.113281,-2.8242192 0.515808,-0.5571344 1.184864,-0.7520492 1.8125,-0.6503907 z"
       transform="matrix(1.0693308,0,0,1.07022,-0.89827205,-0.95316467)" />
  </g>
</svg>
