<?xml version="1.0" encoding="UTF-8" standalone="no"?>
<!-- Uploaded to: SVG Repo, www.svgrepo.com, Generator: SVG Repo Mixer Tools -->

<svg
   fill="#000000"
   height="625"
   width="500"
   version="1.1"
   id="Capa_1"
   viewBox="0 0 230.34562 287.93203"
   xml:space="preserve"
   xmlns="http://www.w3.org/2000/svg"
   xmlns:svg="http://www.w3.org/2000/svg"><defs
   id="defs18" />
<g
   id="Pin_1"
   style="display:inline"><path
     id="path1-4-8-7"
     style="display:inline;fill:#ffffff;fill-opacity:1;stroke:#ab2b37;stroke-width:8.89357;stroke-dasharray:none;stroke-opacity:1"
     d="m 105.18663,4.4467889 c -6.662072,0 -11.902879,5.5192935 -11.902879,12.2330761 V 29.214731 C 84.923424,31.329359 77.03141,34.633639 69.778105,38.925529 L 60.994468,30.122003 C 56.437488,25.519929 48.460582,25.52524 43.889143,30.118126 L 29.832694,44.278654 c -2.254403,2.267049 -3.540734,5.403159 -3.540734,8.607126 0,3.247665 1.248087,6.305945 3.531398,8.602117 l 8.439344,8.543766 c -1.510488,2.500664 -2.85406,5.108192 -4.1185,7.761984 -0.05096,0.106147 -0.09824,0.214251 -0.148804,0.320621 -0.855791,1.814747 -1.653754,3.660001 -2.388295,5.54149 -0.41782,1.055216 -0.824364,2.115685 -1.203488,3.189866 -0.182299,0.526324 -0.360252,1.053859 -0.532947,1.584904 -0.606974,1.826715 -1.171204,3.672279 -1.663579,5.548399 H 16.494105 c -6.6668766,0 -12.0473161,5.398328 -12.0473161,12.097533 v 20.02456 c 0,6.71863 5.3804395,11.99527 12.0473161,11.99527 h 11.46581 c 1.962986,8.31909 4.893813,16.99056 8.523398,25.79005 l -6.669924,6.76435 c -2.283302,2.29618 -3.535744,5.36904 -3.535744,8.62157 0,3.25252 1.257258,6.32539 3.535744,8.62157 l 14.065794,14.17059 c 2.283311,2.29618 5.3132,3.55819 8.535847,3.55819 1.656091,0 56.75719,73.5704 58.78778,76.00104 0.98048,1.17497 2.42495,1.85462 3.94791,1.86159 h 0.0218 c 1.51467,0 2.95566,-0.66737 3.94168,-1.82771 2.01222,-2.36789 56.94227,-76.04433 58.70001,-76.04433 3.22746,0 6.26731,-1.26686 8.54581,-3.55819 l 14.06578,-14.16117 c 2.27849,-2.29134 3.52611,-5.35446 3.53574,-8.60212 0,-3.25253 -1.26207,-6.3061 -3.53574,-8.60714 l -6.38601,-6.509 c 3.61286,-8.86304 6.51956,-17.62881 8.45055,-26.07928 h 11.26907 c 6.66206,0 12.13946,-5.27664 12.13946,-11.99527 v -20.02456 c 0.005,-6.699205 -5.46743,-12.097533 -12.1295,-12.097533 h -11.63142 c -1.64737,-6.276794 -3.95962,-12.279619 -6.8349,-17.948373 -0.11937,-0.236977 -0.23905,-0.473256 -0.36048,-0.709001 -0.92097,-1.776932 -1.87989,-3.530907 -2.91191,-5.23656 -0.0106,-0.01744 -0.0193,-0.03596 -0.0299,-0.0533 l 8.43934,-8.524315 c 2.2785,-2.296182 3.53138,-5.359637 3.53138,-8.612157 0,-3.247665 -1.26252,-6.31581 -3.53138,-8.607137 L 186.37433,30.127546 c -4.5618,-4.602074 -12.53415,-4.597392 -17.07667,-0.0048 l -8.76747,8.782186 C 153.28568,34.622836 145.4048,31.325244 137.05692,29.214211 V 16.679865 c 0,-6.7137826 -5.323,-12.2330761 -11.98506,-12.2330761 z" /></g>
</svg>
