<?xml version="1.0" encoding="UTF-8" standalone="no"?>
<!-- Uploaded to: SVG Repo, www.svgrepo.com, Generator: SVG Repo Mixer Tools -->

<svg
   fill="#000000"
   height="625"
   width="500"
   version="1.1"
   id="Capa_1"
   viewBox="0 0 230.34562 287.93203"
   xml:space="preserve"
   xmlns="http://www.w3.org/2000/svg"
   xmlns:svg="http://www.w3.org/2000/svg"><defs
   id="defs18" />
<g
   id="Pin_1-9"
   style="display:inline"
   transform="translate(7.6108212e-4)"><path
     id="path1-4-8-7-1"
     style="display:inline;fill:#ffffff;fill-opacity:1;stroke:#ab2b37;stroke-width:8.89357;stroke-dasharray:none;stroke-opacity:1"
     d="m 105.18664,4.44645 c -6.66207,0 -11.90288,5.519293 -11.90288,12.233076 V 29.214392 C 84.92343,31.32902 77.03142,34.6333 69.77812,38.92519 L 60.99448,30.121664 C 56.4375,25.51959 48.46059,25.524901 43.88915,30.117764 L 29.8327,44.27832 c -2.2544,2.26704 -3.54073,5.40315 -3.54073,8.60712 0,3.24767 1.24809,6.30595 3.5314,8.60212 l 8.43934,8.54376 c -1.51049,2.50067 -2.85406,5.1082 -4.1185,7.76199 -0.051,0.10614 -0.0982,0.21425 -0.1488,0.32062 -0.85579,1.81475 -1.65376,3.66 -2.3883,5.54149 -0.41782,1.05521 -0.82436,2.11568 -1.20348,3.18986 -0.1823,0.52633 -0.36026,1.05386 -0.53295,1.58491 -0.60698,1.82671 -1.17121,3.67228 -1.66358,5.5484 H 16.49412 c -6.66688,0 -12.04732,5.39833 -12.04732,12.09753 v 20.02456 c 0,6.71863 5.38044,11.99527 12.04732,11.99527 h 11.46581 c 1.96298,8.31909 4.89381,16.99056 8.52339,25.79005 l -6.66992,6.76435 c -2.2833,2.29618 -3.53574,5.36904 -3.53574,8.62157 0,3.25252 1.25725,6.32539 3.53574,8.62157 l 14.06579,14.17059 c 2.28331,2.29618 5.3132,3.55819 8.53585,3.55819 1.65609,0 56.75719,73.5704 58.78778,76.00104 0.98048,1.17497 2.42495,1.85462 3.94791,1.86159 h 0.0218 c 1.51467,0 2.95566,-0.66737 3.94168,-1.82771 2.01222,-2.36789 56.94227,-76.04433 58.70001,-76.04433 3.22746,0 6.26731,-1.26686 8.54581,-3.55819 l 14.06578,-14.16117 c 2.27849,-2.29134 3.52611,-5.35446 3.53574,-8.60212 0,-3.25253 -1.26207,-6.3061 -3.53574,-8.60714 l -6.38601,-6.509 c 3.61286,-8.86304 6.51956,-17.62881 8.45055,-26.07928 h 11.26907 c 6.66206,0 12.13946,-5.27664 12.13946,-11.99527 v -20.02456 c 0.005,-6.6992 -5.46743,-12.09753 -12.1295,-12.09753 h -11.63142 c -1.64737,-6.2768 -3.95962,-12.27962 -6.8349,-17.94838 -0.11937,-0.23697 -0.23905,-0.47325 -0.36048,-0.709 -0.92097,-1.77693 -1.87989,-3.5309 -2.91191,-5.23656 -0.0106,-0.0174 -0.0193,-0.036 -0.0299,-0.0533 l 8.43934,-8.52431 c 2.2785,-2.29618 3.53138,-5.35964 3.53138,-8.61216 0,-3.24766 -1.26252,-6.31581 -3.53138,-8.60714 L 186.37434,30.127207 c -4.5618,-4.602074 -12.53415,-4.597392 -17.07667,-0.0048 l -8.76747,8.782186 c -7.24451,-4.282096 -15.12539,-7.579688 -23.47327,-9.690721 V 16.679526 c 0,-6.713783 -5.323,-12.233076 -11.98506,-12.233076 z" /><path
     id="path1-4-8-7-00-8"
     style="display:inline;fill:#ab2b37;fill-opacity:1;stroke:none;stroke-width:8.89357;stroke-dasharray:none;stroke-opacity:1"
     d="m 29.495727,143.96604 c 1.84047,6.49846 4.20335,13.16997 6.98775,19.9204 l -6.67013,6.7646 c -2.2833,2.29618 -3.53526,5.36834 -3.53526,8.62087 0,3.25252 1.25678,6.32558 3.53526,8.62176 l 14.06548,14.17076 c 2.28332,2.29618 5.31364,3.55866 8.53629,3.55866 1.65609,0 56.757033,73.56992 58.787623,76.00056 0.98048,1.17497 2.42531,1.85469 3.94827,1.86166 h 0.0216 c 1.51467,0 2.95595,-0.66713 3.94197,-1.82747 2.01222,-2.36789 56.94171,-76.04465 58.69945,-76.04465 3.22746,0 6.26768,-1.26643 8.54618,-3.55776 l 14.06548,-14.16176 c 2.27849,-2.29134 3.52653,-5.35431 3.53616,-8.60197 0,-3.25253 -1.26249,-6.30632 -3.53616,-8.60736 l -6.38579,-6.50907 c 2.78362,-6.82877 5.13522,-13.59566 6.95715,-20.20923 z" /><path
     style="display:inline;fill:#ab2b37;fill-opacity:1;stroke:none;stroke-width:2.06686"
     d="m 108.13933,186.62593 c -13.199363,-1.51527 -26.118583,-7.05502 -35.962233,-15.42054 -2.83787,-2.41175 -3.20108,-2.88815 -3.23967,-4.24941 -0.0566,-1.99823 1.41904,-3.53783 3.38104,-3.5275 1.10804,0.006 1.65996,0.34117 4.54624,2.76233 7.39262,6.20131 16.76145,10.70129 26.596233,12.77455 5.22398,1.10126 14.65977,1.39242 19.9829,0.61658 12.23845,-1.78371 22.7094,-6.67674 31.81648,-14.86769 2.54317,-2.28733 3.30296,-2.6202 4.94551,-2.16666 2.29291,0.63309 3.07435,3.57611 1.45922,5.49556 -1.37305,1.6318 -6.51795,5.81017 -9.93773,8.07088 -12.68638,8.38647 -28.6231,12.22985 -43.58799,10.5119 z M 73.658927,154.80595 c -5.5902,-0.77073 -10.25652,-3.06986 -14.37554,-7.08295 -7.85295,-7.65098 -9.8945,-19.7032 -5.0188,-29.62824 2.54137,-5.17326 6.05614,-8.78263 11.07833,-11.37647 4.19582,-2.16706 6.75234,-2.77436 11.67911,-2.77436 4.82171,0 7.43688,0.59878 11.50499,2.63426 1.33971,0.67033 2.51563,1.10507 2.61315,0.96611 0.0976,-0.13889 1.8187,-2.28872 3.82482,-4.77728 l 3.6475,-4.524638 -0.72692,-2.07185 -0.72693,-2.07185 -2.45943,-0.17111 c -2.91884,-0.20307 -3.41424,-0.39364 -4.00795,-1.54173 -0.5647,-1.09202 -0.56532,-1.62968 -0.004,-2.71684 0.75401,-1.45814 1.61946,-1.61026 8.5696,-1.50632 l 6.342603,0.0949 0.83607,0.83673 c 1.77772,1.77919 0.37351,4.8507 -2.2176,4.8507 -1.01895,0 -1.06612,0.0456 -0.87494,0.84544 0.1112,0.46498 0.27287,0.96954 0.35938,1.12123 0.13394,0.23461 32.95419,-0.0138 33.1916,-0.25118 0.043,-0.043 -0.52399,-1.5187 -1.25992,-3.27938 l -1.33806,-3.20126 -5.19595,-0.15371 c -2.85776,-0.0845 -5.36986,-0.26625 -5.58241,-0.40378 -0.21256,-0.13753 -0.60179,-0.66642 -0.86492,-1.1753 -0.60224,-1.16458 -0.35239,-2.41073 0.67725,-3.37804 0.76835,-0.72183 0.85384,-0.73032 7.35535,-0.73032 h 6.57798 l 0.73039,0.76858 c 0.42486,0.44709 2.38878,4.91507 4.69527,10.68188 2.85187,7.130438 4.08122,9.869998 4.37921,9.759008 1.33817,-0.4984 5.19554,-0.81988 7.88628,-0.65726 3.98516,0.24087 6.06053,0.80572 9.90829,2.69671 5.08263,2.49786 9.04212,6.56844 11.50838,11.83132 1.84502,3.93715 2.50708,7.41956 2.30231,12.11014 -0.29384,6.73115 -2.23644,11.527 -6.61024,16.31925 -4.82468,5.28629 -11.0688,8.03449 -18.33844,8.07127 -4.31198,0.0219 -7.44335,-0.66153 -11.11462,-2.42551 -6.74849,-3.24251 -11.37537,-8.73823 -13.4846,-16.01671 -2.85815,-9.86287 0.51461,-20.61324 8.47308,-27.0072 1.26276,-1.01452 2.61711,-2.05319 3.00967,-2.30818 l 0.71374,-0.4636 -0.58326,-1.48491 -0.58329,-1.48491 -13.4587,14.14076 c -7.40227,7.77743 -13.75651,14.22069 -14.12055,14.31835 -0.36401,0.0976 -2.8237,0.1794 -5.46597,0.18167 l -4.80409,0.004 -0.66507,2.87808 c -2.157323,9.33582 -9.190753,16.61514 -18.306613,18.94657 -2.7246,0.69684 -7.05662,0.9689 -9.67642,0.60769 z m 7.97455,-6.00239 c 3.96578,-0.93191 7.91353,-3.39603 10.56138,-6.59222 1.85135,-2.23475 4.17218,-7.46249 4.19156,-9.44167 0.002,-0.28266 -2.48692,-0.39388 -10.32216,-0.46113 l -10.32583,-0.0887 -0.74162,-0.86258 c -0.88042,-1.02398 -0.9702,-2.51201 -0.21745,-3.60358 0.2883,-0.41809 3.06015,-3.90913 6.15967,-7.7579 3.09952,-3.84878 5.71476,-7.20436 5.81165,-7.45682 0.21082,-0.54942 -2.14901,-1.71213 -4.95124,-2.43951 -2.34521,-0.6088 -7.17909,-0.61378 -9.55482,-0.0104 -6.35516,1.61546 -11.90628,6.80298 -13.97657,13.06112 -0.9419,2.8472 -1.1583,7.51354 -0.48813,10.5258 0.75782,3.40623 2.53438,6.84003 4.78194,9.24268 2.796,2.98895 6.82199,5.35124 10.30989,6.04946 2.07688,0.41575 6.65709,0.32944 8.76173,-0.16514 z m 76.530213,-0.0227 c 8.72275,-2.16755 15.10136,-10.36945 15.07834,-19.3884 -0.0211,-8.26612 -5.45267,-15.97402 -13.22106,-18.76188 -1.95345,-0.70104 -2.89917,-0.84037 -6.29535,-0.92751 -2.19812,-0.0564 -4.19183,0.0286 -4.43046,0.1885 -0.35464,0.23792 0.24893,1.98619 3.30486,9.57294 2.0563,5.10502 3.73875,9.55149 3.73875,9.88105 0,2.41806 -2.86472,3.77463 -4.65592,2.20484 -0.2781,-0.24373 -2.20499,-4.65435 -4.28199,-9.80138 -2.07701,-5.14703 -3.905,-9.35824 -4.06222,-9.35824 -0.15729,0 -1.17362,0.7064 -2.25866,1.56979 -1.981,1.57633 -4.0703,4.19905 -5.32046,6.67882 -1.76018,3.49139 -2.36425,9.41562 -1.38413,13.57419 1.27649,5.41606 5.18138,10.43359 10.12075,13.00451 3.76368,1.95901 9.45444,2.60968 13.66755,1.56273 z M 96.386417,125.99452 c -0.0145,-2.06042 -2.05513,-6.84102 -3.76587,-8.82005 l -1.0303,-1.1919 -1.96784,2.43127 c -1.0823,1.33717 -2.97672,3.63067 -4.20981,5.09666 -1.23309,1.46595 -2.24198,2.74563 -2.24198,2.8437 0,0.098 2.97437,0.17837 6.60972,0.17837 6.09142,0 6.60946,-0.0422 6.60608,-0.53801 z m 11.378543,0.14841 c 0,-0.29856 -6.16396,-19.08467 -6.91533,-21.07604 -0.14199,-0.37654 -5.381843,5.87423 -5.381843,6.42025 0,0.12691 0.47663,0.80103 1.05918,1.49831 2.52384,3.02081 4.418243,6.9876 5.242273,10.97705 0.2541,1.23012 0.46198,2.31161 0.46198,2.40327 0,0.0918 1.24509,0.1668 2.76688,0.1668 2.02837,0 2.76686,-0.10397 2.76686,-0.38954 z m 16.12918,-13.44477 10.35569,-10.91375 -14.05912,-0.08 c -7.7325,-0.044 -14.13726,-0.002 -14.23274,0.0936 -0.24837,0.24837 7.042,22.01816 7.33615,21.90655 0.13435,-0.051 4.90439,-5.00392 10.60002,-11.00646 z M 54.887127,97.242872 c -0.42271,-0.2102 -1.0285,-0.91339 -1.34623,-1.56264 -0.71006,-1.451 -0.4832,-2.39066 1.56919,-6.49968 6.89201,-13.79831 17.53094,-24.41502 30.9811,-30.91635 6.42325,-3.10477 11.62873,-4.77754 18.766393,-6.03055 4.33692,-0.76134 16.57556,-0.75638 20.73826,0.008 16.03506,2.94599 29.46474,10.32991 39.70876,21.8327 5.0153,5.63159 11.32448,15.93356 11.32448,18.49125 0,1.6477 -1.61786,3.22354 -3.30952,3.22354 -1.7651,0 -2.64998,-0.86512 -4.35777,-4.26037 -2.97885,-5.92234 -6.90058,-11.21005 -11.8969,-16.04074 -9.2147,-8.9092 -19.51227,-14.11888 -32.54505,-16.46494 -4.63575,-0.83449 -14.41245,-0.7655 -19.35263,0.13656 -19.597923,3.57856 -35.078193,15.33212 -44.031993,33.43177 -1.54122,3.11548 -2.2738,4.27469 -2.90904,4.6032 -1.04002,0.53781 -2.31688,0.5561 -3.33905,0.0478 z"
     id="path18-6" /><path
     id="path1-4-8-7-00"
     style="display:inline;fill:#ffffff;fill-opacity:1;stroke:none;stroke-width:8.89357;stroke-dasharray:none;stroke-opacity:1"
     d="m 56.143329,143.96564 c 0.917413,1.33454 1.953659,2.60054 3.140258,3.75662 4.118803,4.01287 8.785198,6.31227 14.375007,7.08312 h 9e-4 c 2.619884,0.36105 6.951094,0.0885 9.675416,-0.60825 6.005326,-1.5359 11.095569,-5.22759 14.494678,-10.23149 h -7.317973 c -2.502902,2.32631 -5.67777,4.08541 -8.877304,4.83726 -2.104637,0.49458 -6.685256,0.58041 -8.762132,0.16466 -3.068915,-0.61434 -6.553026,-2.51766 -9.250716,-5.00192 z m 76.454951,0 c 2.45901,3.63391 5.8251,6.5165 10.01194,8.52819 3.67127,1.76398 6.80309,2.44683 11.11507,2.42493 7.26964,-0.0368 13.51389,-2.78481 18.33857,-8.0711 0.8708,-0.9541 1.61923,-1.91238 2.30346,-2.88202 h -7.48893 c -2.41725,2.28608 -5.39407,3.98967 -8.71445,4.81477 -4.21311,1.04695 -9.90409,0.39608 -13.66777,-1.56293 -1.61381,-0.83999 -3.09949,-1.96094 -4.43685,-3.25184 z m 26.49964,18.40696 c -1.02585,0.01 -1.93021,0.62575 -3.83759,2.34125 -9.10708,8.19095 -19.57804,13.08438 -31.81649,14.86809 -5.32313,0.77584 -14.7585,0.484 -19.98248,-0.61726 -9.83478,-2.07326 -19.203298,-6.57297 -26.595923,-12.77428 -2.886283,-2.42116 -3.438585,-2.75635 -4.546627,-2.76235 -1.961997,-0.0103 -3.438032,1.52894 -3.381402,3.52717 0.03859,1.36126 0.402265,1.83794 3.240135,4.24969 9.843648,8.36552 22.762454,13.90529 35.961807,15.42056 14.96489,1.71795 30.90203,-2.12575 43.58841,-10.51222 3.41978,-2.26071 8.56421,-6.43839 9.93726,-8.07019 1.61513,-1.91945 0.83435,-4.86281 -1.45856,-5.4959 -0.41064,-0.11339 -0.76659,-0.17773 -1.10854,-0.17456 z" /></g>
</svg>
