<?xml version="1.0" encoding="UTF-8" standalone="no"?>
<!-- Uploaded to: SVG Repo, www.svgrepo.com, Generator: SVG Repo Mixer Tools -->

<svg
   fill="#000000"
   height="625"
   width="500"
   version="1.1"
   id="Capa_1"
   viewBox="0 0 230.34562 287.93203"
   xml:space="preserve"
   xmlns="http://www.w3.org/2000/svg"
   xmlns:svg="http://www.w3.org/2000/svg"><defs
   id="defs18" />
<g
   id="Pin_1-4"
   style="display:inline"><path
     id="path1-4-8-7-4-6"
     style="display:inline;fill:#ffffff;fill-opacity:1;stroke:#ab2b37;stroke-width:8.89357;stroke-dasharray:none;stroke-opacity:1"
     d="m 105.18648,4.446749 c -6.66207,0 -11.90288,5.519293 -11.90288,12.233076 v 12.534866 c -8.36033,2.114628 -16.25234,5.418908 -23.50565,9.710798 L 60.99432,30.121963 C 56.43733,25.519889 48.46043,25.5252 43.88899,30.118063 L 29.83254,44.278614 c -2.2544,2.267049 -3.54073,5.403159 -3.54073,8.607126 0,3.247665 1.24808,6.305945 3.53139,8.602117 l 8.43935,8.54377 c -1.51049,2.50066 -2.85406,5.10819 -4.1185,7.76198 -0.051,0.10615 -0.0982,0.21425 -0.14881,0.32062 -0.85579,1.81475 -1.65375,3.66 -2.38829,5.54149 -0.41782,1.05522 -0.82437,2.11569 -1.20349,3.18987 -0.1823,0.52632 -0.36025,1.05386 -0.53295,1.5849 -0.60697,1.82672 -1.1712,3.67228 -1.66358,5.5484 H 16.49395 c -6.66688,0 -12.04732,5.39833 -12.04732,12.097533 v 20.02456 c 0,6.71863 5.38044,11.99527 12.04732,11.99527 h 11.46581 c 1.96299,8.31909 4.89381,16.99056 8.5234,25.79005 l -6.66993,6.76435 c -2.2833,2.29618 -3.53574,5.36904 -3.53574,8.62157 0,3.25252 1.25726,6.32539 3.53574,8.62157 l 14.0658,14.17059 c 2.28331,2.29618 5.3132,3.55819 8.53585,3.55819 1.65609,0 56.75719,73.5704 58.78778,76.00104 0.98048,1.17497 2.42495,1.85462 3.94791,1.86159 h 0.0218 c 1.51467,0 2.95566,-0.66737 3.94168,-1.82771 2.01222,-2.36789 56.94227,-76.04433 58.70001,-76.04433 3.22746,0 6.26731,-1.26686 8.54581,-3.55819 l 14.06578,-14.16117 c 2.27849,-2.29134 3.52611,-5.35446 3.53574,-8.60212 0,-3.25253 -1.26207,-6.3061 -3.53574,-8.60714 l -6.38601,-6.509 c 3.61286,-8.86304 6.51956,-17.62881 8.45055,-26.07928 h 11.26907 c 6.66206,0 12.13946,-5.27664 12.13946,-11.99527 v -20.02456 c 0.005,-6.699203 -5.46743,-12.097533 -12.1295,-12.097533 H 202.1378 c -1.64737,-6.27679 -3.95962,-12.27962 -6.8349,-17.94837 -0.11937,-0.23698 -0.23905,-0.47326 -0.36048,-0.709 -0.92097,-1.77694 -1.87989,-3.53091 -2.91191,-5.23656 -0.0106,-0.0174 -0.0193,-0.036 -0.0299,-0.0533 l 8.43934,-8.524319 c 2.2785,-2.296182 3.53138,-5.359637 3.53138,-8.612157 0,-3.247665 -1.26252,-6.31581 -3.53138,-8.607137 L 186.37418,30.127506 c -4.5618,-4.602074 -12.53415,-4.597392 -17.07667,-0.0048 l -8.76747,8.782186 c -7.24451,-4.282096 -15.12539,-7.579688 -23.47327,-9.690721 V 16.679825 c 0,-6.713783 -5.323,-12.233076 -11.98506,-12.233076 z" /><path
     style="display:inline;fill:#ab2b37;fill-opacity:1;stroke:none;stroke-width:2.06686"
     d="m 108.13909,186.62586 c -13.19936,-1.51527 -26.11858,-7.05502 -35.96223,-15.42054 -2.83787,-2.41175 -3.20108,-2.88815 -3.23967,-4.24941 -0.0566,-1.99823 1.41904,-3.53783 3.38104,-3.5275 1.10804,0.006 1.65996,0.34117 4.54624,2.76233 7.39262,6.20131 16.76145,10.70129 26.59623,12.77455 5.22398,1.10126 14.65977,1.39242 19.9829,0.61658 12.23845,-1.78371 22.7094,-6.67674 31.81648,-14.86769 2.54317,-2.28733 3.30296,-2.6202 4.94551,-2.16666 2.29291,0.63309 3.07435,3.57611 1.45922,5.49556 -1.37305,1.6318 -6.51795,5.81017 -9.93773,8.07088 -12.68638,8.38647 -28.6231,12.22985 -43.58799,10.5119 z m -34.4804,-31.81998 c -5.5902,-0.77073 -10.25652,-3.06986 -14.37554,-7.08295 -7.85295,-7.65098 -9.89451,-19.7032 -5.0188,-29.62824 2.54137,-5.17326 6.05614,-8.78263 11.07833,-11.37647 4.19582,-2.16706 6.75233,-2.77436 11.67911,-2.77436 4.82171,0 7.43688,0.59878 11.50499,2.63426 1.33971,0.67033 2.51563,1.10507 2.61315,0.96611 0.0976,-0.13889 1.8187,-2.28872 3.82482,-4.77728 l 3.6475,-4.524643 -0.72692,-2.07184 -0.72693,-2.07185 -2.45943,-0.17112 c -2.91884,-0.20307 -3.41424,-0.39364 -4.00795,-1.54173 -0.5647,-1.09202 -0.56532,-1.62968 -0.004,-2.71684 0.75401,-1.45813 1.61946,-1.61025 8.5696,-1.50632 l 6.3426,0.0949 0.83607,0.83673 c 1.77772,1.77919 0.37351,4.8507 -2.2176,4.8507 -1.01895,0 -1.06612,0.0456 -0.87494,0.84544 0.1112,0.46498 0.27287,0.96954 0.35938,1.12123 0.13394,0.23462 32.95419,-0.0138 33.1916,-0.25117 0.043,-0.043 -0.52399,-1.5187 -1.25992,-3.27939 l -1.33806,-3.20125 -5.19595,-0.15372 c -2.85776,-0.0845 -5.36986,-0.26624 -5.58241,-0.40378 -0.21256,-0.13753 -0.60179,-0.66642 -0.86492,-1.17529 -0.60224,-1.16459 -0.35239,-2.41073 0.67725,-3.37804 0.76835,-0.72183 0.85384,-0.73033 7.35535,-0.73033 h 6.57798 l 0.73039,0.76858 c 0.42486,0.44709 2.38878,4.91507 4.69527,10.68188 2.85187,7.130443 4.08122,9.870003 4.37921,9.759013 1.33817,-0.4984 5.19554,-0.81988 7.88628,-0.65726 3.98516,0.24087 6.06053,0.80572 9.90829,2.69671 5.08263,2.49786 9.04212,6.56844 11.50838,11.83132 1.84502,3.93715 2.50708,7.41956 2.30231,12.11014 -0.29384,6.73115 -2.23644,11.527 -6.61024,16.31925 -4.82468,5.28629 -11.0688,8.03449 -18.33844,8.07127 -4.31198,0.0219 -7.44335,-0.66153 -11.11462,-2.42551 -6.74849,-3.24251 -11.37537,-8.73823 -13.4846,-16.01671 -2.85815,-9.86287 0.51461,-20.61324 8.47308,-27.0072 1.26276,-1.01452 2.61711,-2.05319 3.00967,-2.30818 l 0.71374,-0.4636 -0.58326,-1.48491 -0.58329,-1.48491 -13.4587,14.14076 c -7.40227,7.77743 -13.75651,14.22069 -14.12055,14.31835 -0.36401,0.0976 -2.8237,0.1794 -5.46597,0.18167 l -4.80409,0.004 -0.66507,2.87808 c -2.15732,9.33582 -9.19075,16.61514 -18.30661,18.94657 -2.7246,0.69684 -7.05662,0.9689 -9.67642,0.60769 z m 7.97455,-6.00239 c 3.96578,-0.93191 7.91353,-3.39603 10.56138,-6.59222 1.85135,-2.23475 4.17218,-7.46249 4.19156,-9.44167 0.002,-0.28266 -2.48692,-0.39388 -10.32216,-0.46113 l -10.32583,-0.0887 -0.74162,-0.86258 c -0.88042,-1.02398 -0.97021,-2.51201 -0.21745,-3.60358 0.2883,-0.41809 3.06015,-3.90913 6.15967,-7.7579 3.09952,-3.84878 5.71476,-7.20436 5.81165,-7.45682 0.21082,-0.54942 -2.14901,-1.71213 -4.95124,-2.43951 -2.34521,-0.6088 -7.17909,-0.61378 -9.55482,-0.0104 -6.35516,1.61546 -11.90628,6.80298 -13.97657,13.06112 -0.94191,2.8472 -1.15831,7.51354 -0.48813,10.5258 0.75782,3.40623 2.53438,6.84003 4.78194,9.24268 2.796,2.98895 6.82199,5.35124 10.30989,6.04946 2.07688,0.41575 6.65709,0.32944 8.76173,-0.16514 z m 76.53021,-0.0227 c 8.72275,-2.16755 15.10136,-10.36945 15.07834,-19.3884 -0.0211,-8.26612 -5.45267,-15.97402 -13.22106,-18.76188 -1.95345,-0.70104 -2.89917,-0.84037 -6.29535,-0.92751 -2.19812,-0.0564 -4.19183,0.0286 -4.43046,0.1885 -0.35464,0.23792 0.24893,1.98619 3.30486,9.57294 2.0563,5.10502 3.73875,9.55149 3.73875,9.88105 0,2.41806 -2.86472,3.77463 -4.65592,2.20484 -0.2781,-0.24373 -2.20499,-4.65435 -4.28199,-9.80138 -2.07701,-5.14703 -3.905,-9.35824 -4.06222,-9.35824 -0.15729,0 -1.17362,0.7064 -2.25866,1.56979 -1.981,1.57633 -4.0703,4.19905 -5.32046,6.67882 -1.76018,3.49139 -2.36425,9.41562 -1.38413,13.57419 1.27649,5.41606 5.18138,10.43359 10.12075,13.00451 3.76368,1.95901 9.45444,2.60968 13.66755,1.56273 z M 96.38618,125.99445 c -0.0145,-2.06042 -2.05514,-6.84102 -3.76587,-8.82005 l -1.0303,-1.1919 -1.96784,2.43127 c -1.0823,1.33717 -2.97672,3.63067 -4.20981,5.09666 -1.23309,1.46595 -2.24198,2.74563 -2.24198,2.8437 0,0.098 2.97437,0.17837 6.60972,0.17837 6.09142,0 6.60946,-0.0422 6.60608,-0.53801 z m 11.37854,0.14841 c 0,-0.29856 -6.16396,-19.08467 -6.91533,-21.07604 -0.14199,-0.37654 -5.38184,5.87423 -5.38184,6.42025 0,0.12691 0.47663,0.80103 1.05918,1.49831 2.52384,3.02081 4.41824,6.9876 5.24227,10.97705 0.2541,1.23012 0.46198,2.31161 0.46198,2.40327 0,0.0918 1.24509,0.1668 2.76688,0.1668 2.02837,0 2.76686,-0.10397 2.76686,-0.38954 z m 16.12918,-13.44477 10.35569,-10.91375 -14.05912,-0.08 c -7.7325,-0.044 -14.13726,-0.002 -14.23274,0.0936 -0.24837,0.24837 7.042,22.01816 7.33615,21.90655 0.13435,-0.051 4.90439,-5.00392 10.60002,-11.00646 z M 54.88689,97.242807 c -0.42271,-0.21021 -1.02851,-0.91339 -1.34623,-1.56264 -0.71006,-1.45101 -0.48321,-2.39067 1.56918,-6.49969 6.89202,-13.7983 17.53095,-24.41501 30.98111,-30.916349 6.42325,-3.104768 11.62873,-4.777538 18.76639,-6.030545 4.33692,-0.761338 16.57556,-0.756384 20.73826,0.0085 16.03506,2.94599 29.46474,10.329904 39.70876,21.832694 5.0153,5.63159 11.32448,15.93356 11.32448,18.49126 0,1.64769 -1.61786,3.22353 -3.30952,3.22353 -1.7651,0 -2.64998,-0.86511 -4.35777,-4.26037 -2.97885,-5.92234 -6.90058,-11.21005 -11.8969,-16.04073 -9.2147,-8.90921 -19.51227,-14.118882 -32.54505,-16.464945 -4.63575,-0.834492 -14.41245,-0.765499 -19.35263,0.136558 -19.59792,3.578557 -35.07819,15.332127 -44.03199,33.431767 -1.54122,3.11549 -2.2738,4.27469 -2.90904,4.6032 -1.04002,0.53782 -2.31689,0.5561 -3.33905,0.0478 z"
     id="path18-60-6" /><path
     id="path1-4-8-7-4"
     style="display:inline;fill:#ab2b37;fill-opacity:1;stroke:none;stroke-width:8.89357;stroke-dasharray:none;stroke-opacity:1"
     d="m 37.16466,71.983007 c -1.065877,1.900266 -2.078786,3.834188 -3.020587,5.810828 -0.05096,0.106147 -0.0979,0.213954 -0.148465,0.320324 -0.855791,1.814747 -1.654395,3.660303 -2.388936,5.541792 -0.41782,1.055216 -0.823892,2.115566 -1.203016,3.189747 -0.182299,0.526324 -0.359979,1.053481 -0.532674,1.584526 -0.606974,1.826715 -1.171332,3.67287 -1.663707,5.54899 H 16.49384 c -6.6668765,0 -12.0472558,5.398439 -12.0472558,12.097646 v 20.02387 c 0,6.71863 5.3803793,11.99597 12.0472558,11.99597 h 11.465993 c 1.962986,8.31909 4.894103,16.99022 8.523688,25.78971 l -6.670125,6.7646 c -2.283302,2.29618 -3.536165,5.36834 -3.536165,8.62087 0,3.25252 1.257679,6.32558 3.536165,8.62176 l 14.065479,14.17076 c 2.283311,2.29618 5.313638,3.55866 8.536285,3.55866 1.656091,0 56.75703,73.56992 58.78762,76.00056 0.98048,1.17497 2.42531,1.85469 3.94827,1.86166 h 0.0216 c 1.51467,0 2.95595,-0.66713 3.94197,-1.82747 2.01222,-2.36789 56.94171,-76.04465 58.69945,-76.04465 3.22746,0 6.26768,-1.26643 8.54618,-3.55776 l 14.06548,-14.16176 c 2.27849,-2.29134 3.52653,-5.35431 3.53616,-8.60197 0,-3.25253 -1.26249,-6.30632 -3.53616,-8.60736 l -6.38579,-6.50907 c 3.61286,-8.86304 6.51981,-17.62807 8.4508,-26.07854 h 11.26894 c 6.66206,0 12.13904,-5.27734 12.13904,-11.99597 v -20.02387 c 0.005,-6.699207 -5.46707,-12.097646 -12.12914,-12.097646 h -11.63156 c -1.64737,-6.276794 -3.9595,-12.280209 -6.83478,-17.948963 -0.11937,-0.236977 -0.23939,-0.473287 -0.36082,-0.709032 -0.58717,-1.132891 -1.22913,-2.230557 -1.85626,-3.338212 z" /><path
     id="path18-60"
     style="display:inline;fill:#ffffff;fill-opacity:1;stroke:none;stroke-width:2.06686"
     d="m 67.183374,71.983007 c -4.779989,4.973148 -8.843167,10.730582 -12.07335,17.19764 -2.05239,4.109025 -2.279292,5.04816 -1.56923,6.499166 0.317723,0.649252 0.923369,1.352728 1.346083,1.562931 1.022162,0.508265 2.299091,0.490129 3.339111,-0.04769 0.635243,-0.328504 1.367802,-1.487832 2.909014,-4.603313 C 65.217581,84.33902 70.670561,77.423658 77.2385,71.983006 Z m 85.940516,0 c 1.33551,1.103498 2.65243,2.259659 3.94107,3.505572 4.99632,4.830682 8.91814,10.11817 11.89699,16.040514 1.70779,3.395253 2.59257,4.260494 4.35767,4.260494 1.69166,0 3.30942,-1.576242 3.30942,-3.223939 0,-2.557695 -6.30943,-12.859047 -11.32473,-18.490635 -0.63529,-0.713358 -1.28298,-1.410407 -1.94264,-2.092006 z m -22.43891,11.355319 c -6.50151,0 -6.58651,0.0088 -7.35486,0.730628 -1.02964,0.967309 -1.27978,2.213219 -0.67754,3.377802 0.26313,0.508876 0.65213,1.037594 0.86469,1.175123 0.21255,0.137537 2.72543,0.319465 5.58319,0.404005 l 5.19537,0.153863 1.33798,3.201444 c 0.73593,1.760685 1.30361,3.235816 1.26061,3.278826 -0.23741,0.237328 -33.05833,0.486552 -33.19227,0.251941 -0.0865,-0.151693 -0.24781,-0.657053 -0.35901,-1.122035 -0.19118,-0.799857 -0.14436,-0.844901 0.87459,-0.844901 2.59111,0 3.9957,-3.071565 2.21798,-4.850755 l -0.83591,-0.836802 -6.342598,-0.09448 c -6.950132,-0.103935 -7.815566,0.04811 -8.569577,1.506245 -0.561423,1.087165 -0.561101,1.624439 0.0036,2.716458 0.593707,1.148093 1.088818,1.339167 4.007654,1.542236 l 2.460019,0.17096 0.727029,2.071311 0.726128,2.072211 -3.646839,4.525034 c -2.006116,2.48856 -3.727437,4.63808 -3.824997,4.77697 -0.09752,0.13896 -1.27327,-0.29604 -2.612983,-0.96637 -4.068111,-2.03548 -6.683877,-2.63458 -11.505584,-2.63458 -4.926779,0 -7.483419,0.60789 -11.679243,2.77495 -5.022189,2.59384 -8.536816,6.20275 -11.078184,11.37601 -4.87571,9.92504 -2.833935,21.97723 5.019015,29.62821 4.118802,4.01287 8.785197,6.31227 14.375006,7.08312 h 9e-4 c 2.619885,0.36105 6.951094,0.0885 9.675416,-0.60825 9.11586,-2.33143 16.148857,-9.61011 18.306178,-18.94593 l 0.66584,-2.87842 4.80397,-0.004 c 2.64227,-0.002 5.1013,-0.0842 5.46531,-0.18176 0.36404,-0.0977 6.71899,-6.54089 14.12126,-14.31832 l 13.45813,-14.14106 0.58396,1.48465 0.58306,1.48555 -0.71443,0.46339 c -0.39256,0.25499 -1.74613,1.29344 -3.00889,2.30796 -7.95847,6.39396 -11.33145,17.14425 -8.4733,27.00712 2.10923,7.27848 6.73573,12.77461 13.48422,16.01712 3.67127,1.76398 6.80309,2.44683 11.11507,2.42493 7.26964,-0.0368 13.51389,-2.78481 18.33857,-8.0711 4.3738,-4.79225 6.316,-9.58829 6.60984,-16.31944 0.20477,-4.69058 -0.45753,-8.1722 -2.30255,-12.10935 -2.46626,-5.26288 -6.42566,-9.33344 -11.50829,-11.8313 -3.84776,-1.89099 -5.9233,-2.4558 -9.90846,-2.69667 -2.69074,-0.16262 -6.54756,0.15845 -7.88573,0.65685 -0.29799,0.11099 -1.5274,-2.62866 -4.37927,-9.759099 -2.30649,-5.766811 -4.27023,-10.234286 -4.69509,-10.681378 l -0.73063,-0.769319 z m -20.47466,18.360164 c 2.57968,-0.017 6.11419,-0.0157 9.98044,0.006 l 14.05918,0.0792 -10.35565,10.91443 c -5.69563,6.00254 -10.46605,10.9552 -10.6004,11.0062 -0.29415,0.11161 -7.58434,-21.65786 -7.33597,-21.90623 0.0477,-0.0478 1.67271,-0.0829 4.2524,-0.0999 z m -9.36049,3.36881 c 0.75137,1.99137 6.91486,20.77716 6.91486,21.07572 0,0.28557 -0.73847,0.38961 -2.76684,0.38961 -1.52179,0 -2.76685,-0.0747 -2.76685,-0.16646 0,-0.0917 -0.20749,-1.17321 -0.46159,-2.40333 -0.82403,-3.98945 -2.71832,-7.9566 -5.242163,-10.97741 -0.582544,-0.69728 -1.05995,-1.37124 -1.05995,-1.49815 0,-0.54602 5.240543,-6.79652 5.382533,-6.41998 z m -23.816482,4.57272 c 1.798588,0.002 3.593568,0.15539 4.766175,0.45979 2.802222,0.72738 5.161457,1.8899 4.950632,2.43932 -0.09689,0.25246 -2.71131,3.60776 -5.810829,7.45654 -3.099519,3.84877 -5.87164,7.33988 -6.159945,7.75797 -0.75275,1.09157 -0.662669,2.57967 0.217748,3.60365 l 0.741425,0.8629 10.325962,0.0882 c 7.835239,0.0673 10.323764,0.17893 10.321464,0.46159 -0.01938,1.97918 -2.339861,7.20672 -4.191211,9.44147 -2.647845,3.19619 -6.595927,5.65993 -10.561706,6.59184 -2.104637,0.49458 -6.684356,0.58041 -8.761232,0.16466 -3.4879,-0.69822 -7.513766,-3.06032 -10.309766,-6.04927 -2.247556,-2.40265 -4.024557,-5.83639 -4.782371,-9.24262 -0.670176,-3.01226 -0.45332,-7.67851 0.488584,-10.52571 2.070288,-6.25814 7.621236,-11.44586 13.976401,-13.06132 1.187864,-0.30169 2.990082,-0.45092 4.788669,-0.44899 z m 76.692492,0.063 c 3.39618,0.0871 4.34147,0.22664 6.29492,0.92768 7.76839,2.78786 13.20038,10.49535 13.22148,18.76147 0.023,9.01895 -6.35589,17.22108 -15.07864,19.38863 -4.21311,1.04695 -9.9041,0.39608 -13.66778,-1.56293 -4.93937,-2.57092 -8.84432,-7.58857 -10.12081,-13.00463 -0.98012,-4.15857 -0.37541,-10.08281 1.38477,-13.5742 1.25016,-2.47977 3.33945,-5.10189 5.32045,-6.67822 1.08504,-0.86339 2.10118,-1.57013 2.25847,-1.57013 0.15722,0 1.98463,4.21166 4.06164,9.35869 2.077,5.14703 4.00399,9.55765 4.28209,9.80138 1.7912,1.56979 4.6564,0.21269 4.6564,-2.20537 0,-0.32956 -1.68232,-4.77555 -3.73862,-9.88057 -3.05593,-7.58675 -3.65956,-9.33492 -3.30492,-9.57284 0.23863,-0.1599 2.23243,-0.24536 4.43055,-0.18896 z m -62.135728,6.27962 1.030257,1.19222 c 1.710733,1.97903 3.751141,6.7593 3.765611,8.81972 0.0034,0.49581 -0.513924,0.53807 -6.605341,0.53807 -3.635347,0 -6.609839,-0.0802 -6.609839,-0.17816 0,-0.0981 1.008283,-1.37828 2.24137,-2.84423 1.233087,-1.46599 3.127804,-3.75922 4.210107,-5.09639 z m 67.507468,46.39035 c -1.02586,0.01 -1.93022,0.62575 -3.8376,2.34125 -9.10708,8.19095 -19.57804,13.08438 -31.81649,14.86809 -5.32313,0.77584 -14.7585,0.484 -19.98248,-0.61726 -9.834778,-2.07326 -19.204197,-6.57297 -26.596822,-12.77428 -2.886283,-2.42116 -3.437684,-2.75635 -4.545726,-2.76235 -1.961997,-0.0103 -3.438032,1.52894 -3.381402,3.52717 0.03859,1.36126 0.402265,1.83794 3.240135,4.24969 9.843648,8.36552 22.762453,13.90529 35.961815,15.42056 14.96489,1.71795 30.90203,-2.12575 43.58841,-10.51222 3.41978,-2.26071 8.5642,-6.43839 9.93725,-8.07019 1.61513,-1.91945 0.83435,-4.86281 -1.45856,-5.4959 -0.41063,-0.11339 -0.76658,-0.17773 -1.10853,-0.17456 z" /></g>
</svg>
